<?xml version="1.0" encoding="utf-8"?>
<!-- Generator: Adobe Illustrator 17.0.0, SVG Export Plug-In . SVG Version: 6.00 Build 0)  -->
<!DOCTYPE svg PUBLIC "-//W3C//DTD SVG 1.1//EN" "http://www.w3.org/Graphics/SVG/1.1/DTD/svg11.dtd">
<svg version="1.1" id="Layer_1" xmlns="http://www.w3.org/2000/svg" xmlns:xlink="http://www.w3.org/1999/xlink" x="0px" y="0px"
	 width="109.264px" height="111.116px" viewBox="0 0 109.264 111.116" enable-background="new 0 0 109.264 111.116"
	 xml:space="preserve">
<g id="S5StqR_1_">
	<g>
		<g>
			<path d="M43.251,19.133c5.923,0,11.715,0,17.78,0c0.019,5.773-0.905,12.097,6.965,12.986c-0.296-2.06-0.741-3.982-0.814-5.917
				c-0.129-3.411-0.079-6.831-0.017-10.246c0.062-3.433,2.709-6.19,5.886-6.255c3.174-0.065,6.037,2.858,6.141,6.303
				c0.038,1.241,0.006,2.484,0.006,3.885c3.948,0.583,7.795,1.071,11.612,1.734c4.662,0.809,6.071,3.041,6.049,6.722
				c-0.128,20.828-0.057,41.658-0.065,62.487c-0.001,4.145-0.877,5.33-4.994,6.036c-14.979,2.57-30.082,3.813-45.257,2.87
				c-9.778-0.607-19.519-1.892-29.253-3.07c-3.354-0.406-4.491-2.032-4.495-5.482c-0.022-21.079-0.022-42.158,0-63.237
				c0.004-3.528,1.413-5.133,4.946-5.752c2.207-0.387,4.437-0.645,6.988-1.009c-0.198,5.629,0.709,10.607,7.236,11.29
				c-0.342-2.176-0.858-4.321-0.975-6.488c-0.166-3.074-0.104-6.165-0.021-9.245c0.11-4.078,2.628-6.732,6.183-6.667
				c3.383,0.061,5.833,2.799,5.987,6.686C43.168,17.493,43.208,18.221,43.251,19.133z M87.645,46.328c-22.105,0-43.953,0-65.816,0
				c0,14.323,0,28.456,0,42.7c22.025,3.391,43.909,3.435,65.816-0.011C87.645,74.632,87.645,60.57,87.645,46.328z"/>
			<path d="M61.097,51.804c0,4,0,7.784,0,11.737c-3.939,0-7.779,0-11.761,0c0-3.922,0-7.766,0-11.737
				C53.258,51.804,57.038,51.804,61.097,51.804z"/>
			<path d="M79.012,63.589c-3.956,0-7.743,0-11.67,0c0-3.966,0-7.812,0-11.785c3.92,0,7.701,0,11.67,0
				C79.012,55.681,79.012,59.524,79.012,63.589z"/>
			<path d="M61.019,81.596c-3.995,0-7.781,0-11.695,0c0-3.922,0-7.708,0-11.7c3.835,0,7.674,0,11.695,0
				C61.019,73.734,61.019,77.574,61.019,81.596z"/>
			<path d="M79.06,81.611c-3.925,0-7.711,0-11.679,0c0-3.877,0-7.727,0-11.749c3.853,0,7.696,0,11.679,0
				C79.06,73.798,79.06,77.643,79.06,81.611z"/>
			<path d="M30.83,81.978c0-3.982,0-7.77,0-11.696c3.897,0,7.682,0,11.67,0c0,3.813,0,7.659,0,11.696
				C38.713,81.978,34.87,81.978,30.83,81.978z"/>
		</g>
	</g>
</g>
</svg>
