<?xml version="1.0" standalone="no"?>
<!DOCTYPE svg PUBLIC "-//W3C//DTD SVG 1.1//EN" "http://www.w3.org/Graphics/SVG/1.1/DTD/svg11.dtd" >
<svg xmlns="http://www.w3.org/2000/svg">
<metadata></metadata>
<defs>
<font id="proxima_nova_soft_sbregular" horiz-adv-x="1380" >
<font-face units-per-em="2048" ascent="1587" descent="-461" />
<missing-glyph horiz-adv-x="526" />
<glyph unicode="&#xfb01;" horiz-adv-x="1132" d="M14 895q0 39 27 66.5t68 27.5h81v62q0 78 23 141t66 106t100 65.5t127 22.5q35 0 63.5 -4t50 -15t33 -28.5t11.5 -42.5q0 -37 -19.5 -62.5t-56.5 -25.5q-8 0 -18.5 2t-22.5 2q-61 0 -98 -41t-37 -120v-62h118q39 0 67 -27.5t28 -68.5q0 -39 -28 -67.5t-67 -28.5h-118 v-701q0 -45 -33 -76.5t-78 -31.5t-78 30.5t-33 77.5v701h-81q-39 0 -67 28.5t-28 69.5zM748 1245q0 55 40 94t95 39t95 -39t40 -94q0 -57 -40 -96t-95 -39t-95 39t-40 96zM774 96v799q0 43 32 74.5t81 31.5q43 0 74.5 -31.5t31.5 -74.5v-799q0 -45 -32.5 -76.5t-77.5 -31.5 t-77 31.5t-32 76.5z" />
<glyph unicode="&#xfb02;" horiz-adv-x="1132" d="M14 895q0 39 27 66.5t68 27.5h81v62q0 78 23 141t66 106t100 65.5t127 22.5q35 0 63.5 -4t50 -15t33 -28.5t11.5 -42.5q0 -37 -19.5 -62.5t-56.5 -25.5q-8 0 -18.5 2t-22.5 2q-61 0 -98 -41t-37 -120v-62h118q39 0 67 -27.5t28 -68.5q0 -39 -28 -67.5t-67 -28.5h-118 v-701q0 -45 -33 -76.5t-78 -31.5t-78 30.5t-33 77.5v701h-81q-39 0 -67 28.5t-28 69.5zM774 96v1176q0 43 32 74.5t81 31.5q43 0 74.5 -31.5t31.5 -74.5v-1176q0 -45 -32.5 -76.5t-77.5 -31.5t-77 31.5t-32 76.5z" />
<glyph horiz-adv-x="0" />
<glyph unicode="&#xd;" horiz-adv-x="0" />
<glyph horiz-adv-x="0" />
<glyph horiz-adv-x="0" />
<glyph unicode=" "  horiz-adv-x="526" />
<glyph unicode="&#x09;" horiz-adv-x="526" />
<glyph unicode="&#xa0;" horiz-adv-x="526" />
<glyph unicode="!" horiz-adv-x="503" d="M109 123q0 61 42 103t101 42t102 -42t43 -103q0 -29 -11 -54.5t-31.5 -46t-47 -31.5t-55.5 -11q-31 0 -56.5 11t-45 31.5t-30.5 46t-11 54.5zM123 1249q-2 55 37 92t94 37q53 0 90 -37t37 -92q0 -6 -2 -54t-5 -119.5t-6 -156.5t-7.5 -166t-6.5 -148.5t-4 -102.5 q-2 -39 -29.5 -66.5t-70.5 -27.5q-39 0 -66.5 27.5t-29.5 66.5q-2 35 -5.5 102.5t-6.5 148.5t-7 166t-6 156.5t-4 119.5t-2 54z" />
<glyph unicode="&#x22;" horiz-adv-x="782" d="M98 1264q0 51 35 86.5t88 35.5q51 0 87 -35.5t36 -86.5q0 -10 -7 -62.5t-18.5 -120t-21.5 -137.5t-18 -113q-4 -20 -20.5 -33.5t-39.5 -13.5q-20 0 -36.5 13.5t-18.5 33.5q-8 43 -18.5 113t-21.5 137.5t-18.5 119.5t-7.5 63zM440 1264q0 51 36 86.5t87 35.5t86 -35.5 t35 -86.5q0 -10 -7 -63.5t-17.5 -121t-21.5 -136.5t-17 -112q-4 -20 -20.5 -33.5t-41.5 -13.5q-18 0 -34.5 13.5t-18.5 33.5q-8 43 -18.5 112t-21.5 136.5t-18.5 120.5t-7.5 64z" />
<glyph unicode="#" horiz-adv-x="1243" d="M59 430q0 29 20.5 49.5t51.5 20.5h162l121 366h-121q-29 0 -48.5 20.5t-19.5 51.5q0 29 19.5 49.5t48.5 20.5h170l104 317q8 25 28.5 38t45.5 13q37 0 58.5 -22.5t21.5 -53.5q0 -10 -2 -22l-90 -270h207l104 317q8 25 28.5 38t45.5 13q37 0 58.5 -22.5t21.5 -53.5 q0 -10 -2 -24l-93 -268h119q29 0 48.5 -21.5t19.5 -52.5q0 -29 -19.5 -48.5t-48.5 -19.5h-166l-123 -366h127q29 0 49.5 -21.5t20.5 -52.5q0 -29 -20.5 -49.5t-49.5 -20.5h-174l-106 -315q-8 -25 -28.5 -39t-47.5 -14q-35 0 -57.5 22.5t-22.5 52.5q0 4 1 11.5t3 13.5l92 268 h-206l-107 -317q-8 -25 -28.5 -39t-47.5 -14q-37 -2 -57 22.5t-20 54.5q0 12 4 25l90 268h-113q-31 0 -51.5 21.5t-20.5 52.5zM459 500h205l120 366h-204z" />
<glyph unicode="$" horiz-adv-x="1241" d="M100 217q0 47 33 82t80 35q37 0 68 -23q53 -43 120.5 -73.5t147.5 -40.5v391q-80 20 -157 47t-139.5 71t-100 111.5t-37.5 167.5q0 78 29.5 146.5t87 122t137.5 87t180 41.5v123q0 33 24.5 56.5t61.5 23.5q35 0 58.5 -23.5t23.5 -56.5v-125q47 -6 98 -17t99.5 -28.5 t89 -43t67.5 -58.5q23 -27 23 -62q0 -25 -9.5 -46t-27 -35.5t-39 -23.5t-43.5 -9q-23 0 -43 10q-51 29 -105.5 55.5t-109.5 36.5v-348q80 -23 157.5 -50.5t141 -73.5t103.5 -116t40 -172q0 -80 -26.5 -151.5t-81 -126.5t-137.5 -93t-197 -48v-117q0 -33 -23.5 -56.5 t-58.5 -23.5q-37 0 -61.5 23.5t-24.5 56.5v117q-63 4 -127 18t-121 35.5t-103 52.5t-75 68q-12 14 -17.5 29.5t-5.5 33.5zM365 1004q0 -31 13 -53.5t37.5 -40t58.5 -32t75 -24.5v315q-86 -10 -135 -53t-49 -112zM717 197q51 8 87 25.5t59.5 41t34.5 52t11 59.5 q0 33 -15 59.5t-41 47t-60.5 34.5t-75.5 27v-346z" />
<glyph unicode="%" horiz-adv-x="1529" d="M57 1044q0 72 24.5 134.5t69 108.5t106.5 72.5t138 26.5q78 0 141.5 -26.5t107.5 -72.5t68.5 -108.5t24.5 -134.5t-24.5 -133t-68.5 -106t-107.5 -70.5t-141.5 -25.5q-76 0 -138 25.5t-106.5 70.5t-69 106.5t-24.5 132.5zM217 1044q0 -88 50 -143t128 -55q39 0 73 15.5 t57.5 41t36.5 61t13 80.5q0 92 -50 147.5t-130 55.5q-78 0 -128 -55.5t-50 -147.5zM305 45q0 16 8 31l815 1278q18 25 50 24q25 0 42 -17.5t17 -41.5q0 -16 -8 -29l-817 -1278q-16 -25 -47 -24q-25 0 -42.5 16t-17.5 41zM795 311q0 72 23.5 135.5t67.5 109.5t107.5 71.5 t139.5 25.5t139 -25.5t108 -71.5t70 -109.5t25 -135.5t-25 -133t-70 -106t-108.5 -71t-138.5 -26q-76 0 -139.5 26t-107.5 71t-67.5 106.5t-23.5 132.5zM954 311q0 -43 13.5 -79.5t37 -62.5t56.5 -41t72 -15t72.5 15t57 41t38 62.5t14.5 79.5q0 92 -51.5 147.5t-130.5 55.5 q-80 0 -129.5 -55.5t-49.5 -147.5z" />
<glyph unicode="&#x26;" horiz-adv-x="1318" d="M59 365q0 80 23.5 140t64.5 107t94.5 84t112.5 68q-43 76 -69.5 152.5t-26.5 146.5t28.5 128t78 102t118 68.5t150.5 24.5q70 0 131 -18t107.5 -54t73 -89.5t26.5 -118.5q0 -78 -29 -135.5t-77 -101.5t-109.5 -77.5t-124.5 -64.5q39 -55 73.5 -98t67.5 -81t63.5 -73 t61.5 -69q33 49 59.5 102t47.5 102q10 25 33.5 40.5t52.5 15.5q41 0 68.5 -29t27.5 -66q0 -20 -12 -49q-14 -31 -32 -64.5t-38.5 -66.5t-41 -64.5t-40.5 -58.5q20 -23 44 -44t44 -43.5t33.5 -45t13.5 -45.5q0 -39 -28.5 -71.5t-73.5 -32.5q-23 0 -48.5 15t-48 35.5t-43 44 t-34.5 38.5q-78 -66 -171.5 -105t-209.5 -39q-92 0 -172 25t-140.5 73t-94.5 121.5t-34 170.5zM293 385q0 -55 19.5 -99t51 -74t74.5 -46t90 -16q66 0 123.5 26.5t108.5 69.5q-63 68 -107.5 117t-79 91t-65.5 81.5t-66 91.5q-66 -45 -107.5 -101.5t-41.5 -140.5zM481 1059 q0 -47 18.5 -99.5t49.5 -105.5q47 23 89 48.5t72.5 53t49 62.5t18.5 76q0 63 -39 97t-98 34q-33 0 -62.5 -12.5t-51 -35t-34 -53t-12.5 -65.5z" />
<glyph unicode="'" horiz-adv-x="440" d="M98 1264q0 51 35 86.5t88 35.5q51 0 87 -35.5t36 -86.5q0 -10 -7 -62.5t-18.5 -120t-21.5 -137.5t-18 -113q-4 -20 -20.5 -33.5t-39.5 -13.5q-20 0 -36.5 13.5t-18.5 33.5q-8 43 -18.5 113t-21.5 137.5t-18.5 119.5t-7.5 63z" />
<glyph unicode="(" horiz-adv-x="569" d="M86 498q0 113 18.5 226.5t53.5 223t84 211t110 189.5q12 16 29.5 24t38.5 8q43 0 68.5 -29.5t25.5 -64.5q0 -25 -10 -43q-43 -86 -76 -172t-56.5 -177t-35.5 -189.5t-12 -206.5q0 -217 47 -394.5t133 -345.5q10 -23 10 -43q0 -39 -26.5 -69.5t-67.5 -30.5q-20 0 -37.5 8 t-30.5 27q-61 86 -110 187.5t-84 211t-53.5 223t-18.5 226.5z" />
<glyph unicode=")" horiz-adv-x="569" d="M55 1284q0 37 25.5 66.5t66.5 29.5q20 0 39 -8t31 -24q63 -88 112.5 -189.5t83 -211t53 -223t19.5 -226.5t-19.5 -226.5t-53 -223t-82.5 -211t-111 -187.5q-14 -18 -31.5 -26.5t-37.5 -8.5q-41 0 -67 30.5t-26 67.5q0 23 9 45q86 168 133 345.5t47 394.5q0 109 -12.5 207 t-36 189t-56 177t-75.5 172q-10 18 -11 41z" />
<glyph unicode="*" horiz-adv-x="710" d="M68 944q0 14 7 27.5t21 19.5l164 86l-164 84q-29 14 -28 47q0 25 17 41.5t38 16.5q14 0 29 -9l155 -100l-8 186q0 23 16 39.5t43 16.5q20 0 38 -16.5t16 -39.5l-11 -186l156 98q14 8 29 9q18 0 36.5 -14.5t18.5 -41.5q0 -35 -27 -47l-165 -84l163 -86q29 -14 29 -45 q0 -25 -16.5 -41t-40.5 -16q-14 0 -27 8l-156 100l11 -186q2 -23 -15.5 -39t-42.5 -16t-40 16t-15 39l8 186l-157 -100q-12 -10 -27 -10q-18 0 -36.5 16.5t-18.5 40.5z" />
<glyph unicode="+" horiz-adv-x="1028" d="M47 694q0 29 19.5 48.5t50.5 19.5h321v346q0 31 21.5 52.5t58.5 21.5q31 0 52.5 -21.5t21.5 -52.5v-346h321q29 0 48.5 -19.5t19.5 -48.5q0 -33 -19.5 -53t-48.5 -20h-321v-361q0 -31 -21.5 -53.5t-56.5 -22.5q-33 0 -54.5 22.5t-21.5 53.5v361h-321q-31 0 -50.5 20.5 t-19.5 52.5z" />
<glyph unicode="," horiz-adv-x="503" d="M106 125q0 59 41 101t99 42q33 0 62.5 -12t52 -36.5t36 -59.5t13.5 -80q0 -92 -43 -177t-115 -149q-18 -16 -43 -16q-23 0 -45.5 15.5t-22.5 43.5q0 25 19 43q39 33 68.5 76t35.5 84q-4 -2 -14 -4t-21 -2q-53 0 -88 37t-35 94z" />
<glyph unicode="-" horiz-adv-x="614" d="M49 498q0 39 26.5 65.5t65.5 26.5h332q39 0 65.5 -26.5t26.5 -65.5q0 -41 -26.5 -69t-65.5 -28h-332q-39 0 -65.5 28t-26.5 69z" />
<glyph unicode="." horiz-adv-x="503" d="M106 123q0 61 43.5 103t102.5 42t102 -42t43 -103q0 -59 -43 -102.5t-102 -43.5t-102.5 43t-43.5 103z" />
<glyph unicode="/" horiz-adv-x="647" d="M23 18q0 10 6 25l442 1329q10 23 29.5 37t46.5 14q33 0 54.5 -23t21.5 -52q0 -12 -5 -25l-442 -1329q-8 -23 -28.5 -37t-45.5 -14q-35 0 -57 22.5t-22 52.5z" />
<glyph unicode="0" horiz-adv-x="1263" d="M84 682q0 129 31.5 255t98.5 226.5t170 161.5t247 61q143 0 247.5 -61t171 -161.5t98.5 -226.5t32 -255t-32 -255t-98.5 -227.5t-171 -163t-247.5 -61.5t-246.5 61.5t-170.5 163t-98.5 227.5t-31.5 255zM332 682q0 -98 15 -186t51 -156t93.5 -107.5t139.5 -39.5 q84 0 140 39.5t92 107.5t51.5 156t15.5 186t-15.5 186t-51.5 155t-92 106.5t-140 39.5q-82 0 -139.5 -39.5t-93.5 -106.5t-51 -155t-15 -186z" />
<glyph unicode="1" horiz-adv-x="784" d="M61 952q0 43 31 74l305 309q39 41 103 41q57 0 99 -40t42 -97v-1130q0 -51 -36 -86t-89 -35q-49 0 -85 34.5t-36 86.5v940l-164 -170q-27 -29 -67 -29q-39 0 -71 29.5t-32 72.5z" />
<glyph unicode="2" horiz-adv-x="1218" d="M88 119q0 29 12.5 55.5t36.5 44.5q186 139 319.5 246.5t217.5 195t124 161t40 143.5q0 51 -20.5 90t-55.5 64.5t-79 37.5t-91 12q-90 0 -165 -26.5t-134 -73.5q-31 -25 -70 -25q-43 0 -75.5 32t-32.5 79q0 31 18 57q33 39 84 72t111.5 55.5t128 34.5t131.5 12 q100 0 190 -27.5t159 -80.5t109.5 -132t40.5 -181q0 -96 -41.5 -185.5t-118.5 -180.5t-185.5 -186.5t-245.5 -197.5h505q45 0 76 -30.5t31 -73.5q0 -47 -30.5 -79t-76.5 -32h-800q-43 0 -78 34t-35 85z" />
<glyph unicode="3" horiz-adv-x="1177" d="M74 209q0 45 32.5 77.5t75.5 32.5q35 0 64 -20q68 -51 148.5 -78.5t164.5 -27.5q133 0 207 56t74 148q0 51 -19.5 87t-57.5 58.5t-93.5 34t-128.5 11.5q-35 -4 -66 0t-54.5 16t-37.5 36t-14 58q0 43 30.5 75t79.5 32q72 -4 133.5 4t107.5 27.5t71.5 54.5t25.5 90 q0 47 -21.5 82t-57.5 58.5t-87 35.5t-106 12q-82 0 -152.5 -24.5t-134.5 -71.5q-25 -18 -61 -18q-39 0 -73 28.5t-34 73.5t37 74q82 72 191.5 113.5t248.5 41.5q111 0 203 -25.5t156.5 -72.5t100.5 -115.5t36 -154.5q0 -68 -26.5 -122t-68.5 -93t-95.5 -63.5t-106.5 -34.5 q49 -6 105.5 -29t103.5 -64t77.5 -100t30.5 -139q0 -86 -35.5 -159t-103 -126t-163 -83t-216.5 -30q-74 0 -145.5 13.5t-135 37t-113.5 56.5t-79 74q-18 25 -18 53z" />
<glyph unicode="4" horiz-adv-x="1191" d="M45 440q0 45 23 80l491 760q31 45 81 71.5t103 26.5q41 4 78 -4t67 -28.5t47 -52t17 -70.5v-701h90q43 0 74 -31.5t31 -76.5t-31 -76t-74 -31h-90v-198q0 -51 -35.5 -86t-87.5 -35q-51 0 -85.5 34.5t-34.5 86.5v198h-539q-51 0 -88 38t-37 95zM297 522h412v625z" />
<glyph unicode="5" horiz-adv-x="1230" d="M143 201q0 45 34 77.5t81 32.5q35 0 68 -20q61 -49 135 -73.5t160 -24.5q66 0 116.5 18t86.5 51t55.5 76t19.5 92q0 53 -19.5 97t-54 76t-85 48.5t-113.5 16.5q-68 0 -130.5 -18.5t-119.5 -59.5q-43 -31 -96 -31t-88 33t-35 84v543q0 61 43 104t104 43h658 q43 0 73.5 -31.5t30.5 -77.5q0 -45 -30.5 -75.5t-73.5 -30.5h-562v-389q49 49 129 84t179 35q86 0 165.5 -31t140 -86t96.5 -137.5t36 -186.5q0 -106 -39 -193t-107.5 -147.5t-166 -92.5t-211.5 -32q-70 0 -139.5 11.5t-131 32t-110.5 52t-80 72.5q-18 27 -19 58z" />
<glyph unicode="6" horiz-adv-x="1230" d="M84 680q0 150 39 278.5t114.5 224t189.5 149.5t261 54q51 0 104.5 -7t99.5 -23.5t86 -41t64 -57.5q16 -27 17 -55q0 -47 -36 -76.5t-75 -29.5q-33 0 -57 16q-41 29 -89 43t-114 14q-84 0 -150.5 -35.5t-112.5 -97t-70.5 -142.5t-24.5 -169v-19.5t2 -19.5q25 35 60.5 70 t83.5 61.5t104.5 43t115.5 16.5q92 0 175 -28t146.5 -84t100.5 -138t37 -191q0 -96 -37 -180t-102.5 -146.5t-158.5 -98.5t-208 -36q-152 0 -259 57.5t-175 154t-99.5 223.5t-31.5 270zM334 508q4 -53 23.5 -109.5t54 -102.5t90 -74.5t135.5 -28.5q66 0 116 20t83.5 54 t52 76t18.5 85q0 61 -23.5 106.5t-61.5 75t-88 43t-105 13.5q-88 0 -166 -42t-129 -116z" />
<glyph unicode="7" horiz-adv-x="1091" d="M43 1262q0 43 30.5 73.5t76.5 30.5h788q43 0 81 -34t38 -87q0 -27 -10 -47l-504 -1137q-14 -35 -45 -54t-70 -19q-55 0 -89 36.5t-34 84.5q0 20 10 47l447 995h-612q-45 0 -76 30.5t-31 80.5z" />
<glyph unicode="8" horiz-adv-x="1220" d="M86 350q0 66 23.5 121t65.5 100t97.5 79t118.5 55q-59 18 -110.5 46.5t-90 68.5t-60 91.5t-21.5 116.5q0 94 44 163t115.5 112t160.5 63t181 20q90 0 181.5 -20t163 -63t116.5 -112t45 -163q0 -66 -23.5 -117t-62.5 -91t-90 -68.5t-111 -46.5q63 -20 119 -54.5 t97.5 -79.5t66.5 -100t25 -121q0 -92 -42 -161.5t-116 -116.5t-169 -72t-200 -25q-104 0 -199.5 24t-168 72t-114.5 117.5t-42 161.5zM332 381q0 -43 21.5 -79t59.5 -61.5t89 -39t108 -13.5t108.5 13.5t88.5 39t59.5 61.5t22.5 79q0 53 -32 91t-76 63.5t-92 40t-79 18.5 q-31 -4 -78 -18.5t-92 -40t-76.5 -63.5t-31.5 -91zM354 991q0 -47 29 -80.5t69 -56.5t84 -35t74 -16q31 4 76 16t85 35t67.5 56.5t27.5 80.5q0 43 -19.5 77t-54 58.5t-80.5 36t-102 11.5q-55 0 -101 -11.5t-81 -36t-54.5 -58.5t-19.5 -77z" />
<glyph unicode="9" horiz-adv-x="1230" d="M76 928q0 96 35.5 179t102.5 146.5t160 99.5t208 36q152 0 258 -57.5t174.5 -154t100.5 -224.5t32 -269q0 -150 -39 -279t-114.5 -224t-189.5 -149.5t-261 -54.5q-51 0 -104.5 7.5t-99.5 24t-86 41t-65 56.5q-18 25 -18 56q0 23 10 42t26.5 33.5t36 22.5t40.5 8 q33 0 57 -16q41 -29 89 -43t114 -14q84 0 150.5 35.5t112.5 97t70.5 142.5t24.5 169v19.5t-2 19.5q-25 -35 -61.5 -70t-84.5 -61.5t-103.5 -43t-114.5 -16.5q-92 0 -175.5 28t-146.5 84t-100 138t-37 191zM324 936q0 -61 22.5 -106.5t60 -75t89 -43t106.5 -13.5q86 0 164 42 t131 116q-4 53 -23.5 109.5t-55.5 102.5t-91 74.5t-133 28.5q-68 0 -118 -20.5t-84 -54t-51 -75.5t-17 -85z" />
<glyph unicode=":" horiz-adv-x="497" d="M106 123q0 61 43.5 103t102.5 42t102 -42t43 -103q0 -59 -43 -102.5t-102 -43.5t-102.5 43t-43.5 103zM106 858q0 59 43.5 102.5t102.5 43.5t102 -43.5t43 -102.5t-43 -102t-102 -43t-102.5 43t-43.5 102z" />
<glyph unicode=";" horiz-adv-x="503" d="M106 127q0 59 41 101t99 42q33 0 62.5 -12t52 -36.5t36 -59.5t13.5 -80q0 -92 -43 -177t-115 -149q-18 -16 -43 -16q-23 0 -45.5 15.5t-22.5 43.5q0 25 19 41q39 35 68.5 78t35.5 84q-4 -2 -14 -4t-21 -2q-53 0 -88 37t-35 94zM106 858q0 59 43.5 102.5t102.5 43.5 t102 -43.5t43 -102.5q0 -29 -11 -55.5t-31.5 -47t-47 -31.5t-55.5 -11q-31 0 -56.5 11t-46 31.5t-32 47t-11.5 55.5z" />
<glyph unicode="&#x3c;" horiz-adv-x="1028" d="M47 688q0 31 17.5 57.5t46.5 40.5l763 359q12 4 29 4q29 0 52.5 -20.5t23.5 -55.5q0 -20 -11.5 -39.5t-31.5 -29.5l-711 -320l711 -317q20 -10 31.5 -28.5t11.5 -41.5q0 -35 -24.5 -55.5t-51.5 -20.5q-14 0 -29 6l-763 357q-29 14 -46.5 41.5t-17.5 62.5z" />
<glyph unicode="=" horiz-adv-x="1028" d="M47 492q0 29 19.5 48t48.5 19h798q29 0 48.5 -19t19.5 -48q0 -31 -19.5 -51.5t-48.5 -20.5h-798q-29 0 -48.5 20.5t-19.5 51.5zM47 881q0 29 20.5 49t49.5 20h794q29 0 49.5 -20t20.5 -49q0 -31 -20.5 -52.5t-49.5 -21.5h-794q-29 0 -49.5 21.5t-20.5 52.5z" />
<glyph unicode="&#x3e;" horiz-adv-x="1028" d="M47 297q0 23 11.5 41t31.5 29l713 317l-711 320q-23 10 -34 28.5t-11 40.5q-2 35 22.5 55.5t53.5 20.5q16 0 31 -4l764 -359q29 -14 46 -40.5t17 -57.5q0 -35 -17.5 -62.5t-45.5 -41.5l-766 -357q-14 -6 -29 -6q-27 0 -51.5 21.5t-24.5 54.5z" />
<glyph unicode="?" horiz-adv-x="937" d="M59 1169q0 31 15 56q29 39 74 69.5t99 51t112.5 30.5t113.5 10q96 0 173 -23.5t131 -66.5t83 -102t29 -129q0 -76 -26.5 -130t-67.5 -95t-87 -74t-87 -64.5t-68 -65.5t-27 -79q0 -23 7.5 -37t7.5 -33q0 -35 -26 -64.5t-71 -29.5q-31 0 -55 16.5t-41.5 42t-27 58.5 t-9.5 68q0 63 24.5 108t60.5 81t79 64.5t79 57.5t60.5 60.5t24.5 74.5q0 59 -46 102t-147 43q-63 0 -116.5 -21.5t-96.5 -57.5q-29 -23 -71 -23q-41 0 -72 28.5t-31 73.5zM315 123q0 61 43 103t103 42q59 0 102 -42t43 -103q0 -59 -43 -102.5t-102 -43.5t-102.5 43 t-43.5 103z" />
<glyph unicode="@" horiz-adv-x="1603" d="M72 500q0 164 67.5 310t179 257t259 175.5t307.5 64.5q147 0 266 -50.5t203 -137.5t130 -202.5t46 -244.5q0 -127 -35 -220.5t-91 -154.5t-125 -92t-134 -31q-90 0 -138.5 49t-56.5 115q-55 -72 -137 -118t-170 -46q-74 0 -132 25.5t-99 70.5t-63.5 107.5t-22.5 136.5 q0 104 40 196.5t105.5 161t150.5 108.5t175 40q94 0 160.5 -42t97.5 -104l10 54q6 33 33.5 53t60.5 20q43 0 69.5 -26.5t26.5 -63.5v-11t-2 -9l-88 -422q-2 -10 -4 -23.5t-2 -23.5q0 -49 24.5 -72.5t59.5 -23.5q31 0 67 18t66.5 59t51 106.5t20.5 162.5q0 123 -41 225 t-115.5 177t-180 116t-234.5 41q-145 0 -278.5 -59.5t-234 -160t-159 -232.5t-58.5 -275q0 -121 44.5 -226.5t121 -182.5t184 -121t232.5 -44q98 0 185 26t167 73q8 4 17 4q14 0 26.5 -9.5t12.5 -25.5q0 -18 -15 -27q-90 -55 -193.5 -84.5t-207.5 -29.5q-139 0 -258 49 t-206 136t-136 205t-49 253zM528 530q0 -88 49.5 -143t135.5 -55q47 0 85 13t70.5 35.5t58 50.5t44.5 54l53 256q-8 18 -23.5 40t-38 40.5t-53 29.5t-67.5 11q-68 0 -125.5 -28.5t-99.5 -74.5t-65.5 -106.5t-23.5 -122.5z" />
<glyph unicode="A" d="M55 119q0 27 11 45l426 1085q23 57 76 93t114 36h13q58 0 110 -32q57 -36 82 -97l428 -1085q8 -25 8 -45q0 -47 -36 -89t-95 -42q-39 0 -72 21.5t-47 58.5l-72 190h-622l-74 -190q-14 -37 -47 -58.5t-72 -21.5q-59 0 -95 40t-36 91zM446 475h486l-242 645z" />
<glyph unicode="B" horiz-adv-x="1331" d="M145 147v1072q0 61 43 104t105 43h528q94 0 167 -27.5t122 -74.5t74.5 -110.5t25.5 -135.5q0 -66 -18 -119t-52 -93t-76 -65.5t-91 -35.5q55 -8 103 -38t84 -75t56.5 -102.5t20.5 -120.5q0 -80 -25.5 -146.5t-77 -117t-124 -78t-170.5 -27.5h-547q-61 0 -104.5 43 t-43.5 104zM389 213h391q98 0 152.5 50t54.5 138q0 37 -13 72t-40 60.5t-65 41t-89 15.5h-391v-377zM389 803h381q90 0 140.5 49t50.5 125t-50.5 126t-140.5 50h-381v-350z" />
<glyph unicode="C" horiz-adv-x="1398" d="M84 682q0 158 55.5 288t151.5 223t227 144.5t283 51.5q168 0 285.5 -61.5t195.5 -151.5q27 -33 27 -72q0 -47 -34 -80t-83 -33q-23 0 -46.5 10.5t-41.5 28.5q-59 66 -139 103.5t-164 37.5q-100 0 -185.5 -36.5t-147.5 -102t-98 -155t-36 -195.5t36 -196.5t98 -155 t147 -101t186 -36.5q86 0 164.5 35.5t138.5 103.5q18 18 41.5 28.5t48.5 10.5q49 0 81 -33t32 -78q0 -20 -6.5 -37.5t-18.5 -34.5q-80 -90 -196.5 -151.5t-284.5 -61.5q-152 0 -283 51.5t-227 144.5t-151.5 223t-55.5 288z" />
<glyph unicode="D" horiz-adv-x="1456" d="M145 147v1072q0 61 43 104t105 43h362q160 0 292 -50t226.5 -140.5t146.5 -217t52 -276.5t-52 -275.5t-146.5 -216t-226.5 -140.5t-292 -50h-362q-61 0 -104.5 43t-43.5 104zM389 215h266q111 0 197 37t146.5 100.5t91 148.5t30.5 181q0 98 -29.5 184t-88 148.5 t-146.5 99.5t-201 37h-266v-936z" />
<glyph unicode="E" horiz-adv-x="1183" d="M145 147v1072q0 61 43 104t105 43h698q43 0 74 -31.5t31 -77.5q0 -45 -31 -75.5t-74 -30.5h-602v-348h588q43 0 73.5 -32t30.5 -77t-30.5 -75.5t-73.5 -30.5h-588v-373h602q43 0 74 -30.5t31 -73.5q0 -47 -31 -79t-74 -32h-698q-61 0 -104.5 43t-43.5 104z" />
<glyph unicode="F" horiz-adv-x="1153" d="M145 109v1110q0 61 43 104t105 43h698q43 0 74 -32t31 -77t-31 -75.5t-74 -30.5h-602v-348h588q43 0 73.5 -32t30.5 -77t-30.5 -75.5t-73.5 -30.5h-588v-479q0 -51 -36 -86t-89 -35q-49 0 -84 34.5t-35 86.5z" />
<glyph unicode="G" horiz-adv-x="1468" d="M84 682q0 162 56.5 292t153.5 222t228 142.5t279 50.5q162 0 279.5 -55.5t199.5 -139.5q14 -16 22.5 -36.5t8.5 -41.5q0 -45 -35 -77.5t-80 -32.5q-47 0 -82 34q-61 61 -143 96t-170 35q-100 0 -185.5 -36.5t-147.5 -102t-98 -155t-36 -195.5t36 -196.5t98 -155t147 -101 t186 -36.5q51 0 99 10t90 27.5t75 40t55 42.5v207h-309q-45 0 -74.5 31t-29.5 80q0 43 29.5 73.5t74.5 30.5h406q61 0 104 -43t43 -104v-248q0 -86 -51 -154.5t-132 -115.5t-181.5 -72t-198.5 -25q-147 0 -278.5 50.5t-228.5 143.5t-153.5 223t-56.5 292z" />
<glyph unicode="H" horiz-adv-x="1482" d="M145 109v1151q0 49 36 83.5t87 34.5t86 -34.5t35 -83.5v-451h705v451q0 49 35.5 83.5t89.5 34.5q51 0 85.5 -34.5t34.5 -83.5v-1151q0 -49 -35.5 -85t-89.5 -36q-49 0 -84.5 35.5t-35.5 85.5v485h-705v-485q0 -51 -36 -86t-89 -35q-49 0 -84 34.5t-35 86.5z" />
<glyph unicode="I" horiz-adv-x="534" d="M145 109v1151q0 49 36 83.5t87 34.5t86 -34.5t35 -83.5v-1151q0 -51 -36 -86t-89 -35q-49 0 -84 34.5t-35 86.5z" />
<glyph unicode="J" horiz-adv-x="987" d="M37 150q0 45 33.5 77.5t76.5 32.5q20 0 39 -10q37 -20 80 -38.5t94 -18.5q111 0 174.5 66.5t63.5 178.5v822q0 49 36 83.5t89 34.5q49 0 84 -34.5t35 -83.5v-826q0 -117 -35 -204t-96.5 -143t-146.5 -84t-185 -28q-41 0 -87 5.5t-90 19.5t-82 36.5t-63 55.5 q-20 25 -20 58z" />
<glyph unicode="K" horiz-adv-x="1275" d="M145 109v1151q0 49 36 83.5t87 34.5t86 -34.5t35 -83.5v-541l504 616q16 20 39.5 29.5t48.5 9.5q47 0 82 -31.5t35 -80.5q0 -41 -25 -70l-405 -471l452 -547q25 -33 25 -70q0 -43 -34 -79.5t-83 -36.5q-27 0 -51.5 10t-40.5 35l-428 540l-119 -139v-325q0 -51 -36 -86 t-89 -35q-49 0 -84 34.5t-35 86.5z" />
<glyph unicode="L" horiz-adv-x="1060" d="M145 147v1113q0 49 36 83.5t87 34.5t86 -34.5t35 -83.5v-1045h506q43 0 74.5 -30.5t31.5 -73.5q0 -47 -31.5 -79t-74.5 -32h-602q-61 0 -104.5 43t-43.5 104z" />
<glyph unicode="M" horiz-adv-x="1714" d="M145 109v1108q0 63 45.5 108t108.5 45q15 1 30 1q61 1 113 -19q64 -24 93 -97l321 -792l324 792q20 51 67 83t107 32q14 1 27 1q27 0 53 -5q39 -8 69.5 -26.5t49 -50.5t18.5 -72v-1108q0 -49 -36 -85t-89 -36q-49 0 -85 35.5t-36 85.5v913l-403 -991q-8 -18 -25.5 -30.5 t-42.5 -12.5q-20 0 -37.5 12t-25.5 31l-402 991v-913q0 -51 -36 -86t-89 -35q-49 0 -84 34.5t-35 86.5z" />
<glyph unicode="N" horiz-adv-x="1476" d="M145 109v1116q0 31 11.5 57.5t33 49t50 34.5t63.5 12q39 0 74 -17.5t59 -47.5l651 -885v832q0 49 36 83.5t89 34.5q49 0 84 -34.5t35 -83.5v-1127q0 -29 -10 -55.5t-30.5 -46t-48.5 -31.5t-60 -12q-35 0 -68 16t-55 45l-670 918v-858q0 -51 -36 -86t-89 -35 q-49 0 -84 34.5t-35 86.5z" />
<glyph unicode="O" horiz-adv-x="1566" d="M84 682q0 154 51 283t144.5 224t221.5 147.5t281 52.5q154 0 283 -52.5t222 -147.5t144.5 -224t51.5 -283t-51.5 -283t-144.5 -224t-222 -147.5t-283 -52.5t-281.5 52.5t-221 147.5t-144.5 224t-51 283zM334 682q0 -104 31.5 -194.5t90 -155t141.5 -102t185 -37.5 t185.5 37.5t141.5 102t90 155t32 194.5t-32 194.5t-90 156t-141 102t-186 36.5q-102 0 -185 -36.5t-141.5 -102t-90 -156t-31.5 -194.5z" />
<glyph unicode="P" horiz-adv-x="1249" d="M145 109v1110q0 61 43 104t105 43h457q106 0 190 -34t140.5 -93t86 -137t29.5 -166q0 -86 -29.5 -165t-87 -136t-140.5 -92t-189 -35h-361v-399q0 -51 -36 -86t-89 -35q-49 0 -84 34.5t-35 86.5zM389 723h328q100 0 164.5 58.5t64.5 154.5q0 98 -64.5 156.5t-164.5 58.5 h-328v-428z" />
<glyph unicode="Q" horiz-adv-x="1566" d="M84 682q0 154 51 283t144.5 224t221.5 147.5t281 52.5q154 0 283 -52.5t222 -147.5t144.5 -224t51.5 -283q0 -150 -47 -273.5t-136 -218.5l50 -53q25 -29 24 -69q0 -41 -31.5 -76t-80.5 -35t-82 39l-58 61q-74 -41 -158.5 -61.5t-181.5 -20.5q-154 0 -281.5 52.5 t-221 147.5t-144.5 224t-51 283zM334 682q0 -104 31.5 -194.5t90 -155t141.5 -102t185 -37.5q100 0 189 40l-105 117q-14 14 -20 31.5t-6 36.5q0 41 31.5 76.5t80.5 35.5t82 -36l107 -121q43 63 66.5 141t23.5 168q0 104 -32 194.5t-90 156t-141 102t-186 36.5 q-102 0 -185 -36.5t-141.5 -102t-90 -156t-31.5 -194.5z" />
<glyph unicode="R" horiz-adv-x="1290" d="M145 109v1110q0 61 43 104t105 43h457q100 0 183 -30.5t141.5 -89t90 -137.5t31.5 -173q0 -90 -26.5 -160.5t-72.5 -120t-103.5 -80t-116.5 -40.5l227 -369q16 -29 16 -60q0 -43 -32.5 -80.5t-88.5 -37.5q-31 0 -58.5 15t-43.5 44l-272 461h-236v-399q0 -51 -36 -86 t-89 -35q-49 0 -84 34.5t-35 86.5zM389 723h326q100 0 165.5 58.5t65.5 154.5q0 98 -65.5 156.5t-165.5 58.5h-326v-428z" />
<glyph unicode="S" horiz-adv-x="1218" d="M84 217q0 49 35 83t82 34q16 0 33.5 -5t31.5 -16q72 -53 162 -88t197 -35q72 0 123 16.5t83.5 42t48 59.5t15.5 67q0 51 -35 86t-90 58.5t-127 39.5t-146.5 37.5t-146 49.5t-127 72t-89.5 108.5t-34 158.5q0 86 36 159t100.5 127t156.5 84.5t205 30.5q61 0 128 -9 t129.5 -28.5t114.5 -47t87 -64.5q25 -29 24 -66q0 -49 -36.5 -80.5t-81.5 -31.5q-35 0 -66 20q-74 47 -156 69.5t-163 22.5q-104 0 -166 -46t-62 -121q0 -47 34 -77t90 -51.5t127 -39t145.5 -38t146.5 -50t127 -74.5t89 -112t34 -163q0 -86 -31 -162.5t-95.5 -135 t-164.5 -92.5t-238 -34q-76 0 -151.5 12.5t-143 35t-122 54.5t-88.5 73q-25 31 -25 67z" />
<glyph unicode="T" horiz-adv-x="1181" d="M45 1262q0 43 30.5 73.5t76.5 30.5h880q43 0 75 -32t32 -77t-32 -75.5t-75 -30.5h-317v-1042q0 -49 -36 -85t-89 -36q-49 0 -85 35.5t-36 85.5v1042h-317q-45 0 -76 30.5t-31 80.5z" />
<glyph unicode="U" horiz-adv-x="1474" d="M145 539v718q0 49 36 85t89 36q49 0 85 -35.5t36 -85.5v-710q0 -160 88 -257t258 -97q172 0 259 97t87 257v710q0 49 36 85t91 36q51 0 86 -35.5t35 -85.5v-716q0 -127 -37 -231.5t-110.5 -179.5t-185 -115t-261.5 -40q-147 0 -258.5 41t-186.5 115t-111 177.5t-36 230.5 z" />
<glyph unicode="V" d="M55 1251q0 45 36 86t93 41q39 0 73 -21.5t48 -62.5l385 -1028l383 1028q14 39 47 61.5t74 22.5q57 0 94 -39t37 -88q0 -25 -10 -47l-426 -1087q-23 -57 -76 -93t-113 -36h-20q-61 0 -113.5 35.5t-77.5 93.5l-426 1087q-8 18 -8 47z" />
<glyph unicode="W" horiz-adv-x="1853" d="M47 1260q0 49 36 87.5t93 38.5q45 0 81 -27.5t48 -72.5l244 -964l258 966q12 41 45 65.5t78 24.5q39 0 71.5 -24.5t42.5 -65.5l259 -966l241 964q10 43 47 70.5t84 27.5q57 0 93 -37.5t36 -86.5q0 -16 -4 -35l-319 -1116q-14 -53 -59.5 -87t-100.5 -34h-4q-57 0 -99 33.5 t-57 87.5l-235 892l-236 -892q-12 -53 -56 -87t-99 -34h-5q-55 0 -99 33.5t-58 84.5l-320 1121q-6 16 -6 33z" />
<glyph unicode="X" horiz-adv-x="1355" d="M111 104q0 18 4 36t16 32l385 528l-358 496q-20 29 -21 64q0 45 33 80.5t86 35.5q61 0 100 -51l322 -457l319 457q35 51 99 51q49 0 85 -33.5t36 -80.5q0 -39 -21 -66l-356 -494l385 -528q20 -31 20 -68q0 -23 -8 -43t-23.5 -37.5t-38 -27.5t-49.5 -10q-29 0 -53 12 t-43 37l-352 493l-356 -495q-16 -23 -41 -35t-54 -12q-47 0 -81.5 31.5t-34.5 84.5z" />
<glyph unicode="Y" horiz-adv-x="1306" d="M90 1264q0 41 33 76.5t86 35.5q27 0 54.5 -13t43.5 -40l346 -539l342 539q16 25 43 39t58 14q51 0 83.5 -33.5t32.5 -78.5q0 -33 -16 -62l-420 -637v-456q0 -51 -35.5 -86t-87.5 -35q-51 0 -86 34.5t-35 86.5v456l-423 639q-18 25 -19 60z" />
<glyph unicode="Z" horiz-adv-x="1206" d="M78 1262q0 43 31.5 73.5t74.5 30.5h803q49 0 87 -38t38 -97q0 -49 -29 -86l-673 -930h612q43 0 74.5 -30.5t31.5 -73.5q0 -47 -31.5 -79t-74.5 -32h-811q-51 0 -91 39t-40 98q0 45 24 82l678 932h-598q-43 0 -74.5 30.5t-31.5 80.5z" />
<glyph unicode="[" horiz-adv-x="544" d="M90 -242v1483q0 61 44 104.5t106 43.5h211q29 0 50 -23t21 -53q0 -31 -21.5 -52.5t-49.5 -21.5h-199v-1479h199q29 0 50 -21t21 -52t-21.5 -53.5t-49.5 -22.5h-211q-61 0 -105.5 43t-44.5 104z" />
<glyph unicode="\" horiz-adv-x="647" d="M25 1335v11q0 31 21.5 54t55.5 23q25 0 45.5 -14t28.5 -37l442 -1329q2 -6 3.5 -12.5t1.5 -12.5q0 -29 -21.5 -52t-56.5 -23q-25 0 -44.5 14t-29.5 37l-442 1329q-4 6 -4 12z" />
<glyph unicode="]" horiz-adv-x="544" d="M23 -313q0 31 22.5 52t50.5 21h197v1479h-197q-29 0 -51 21.5t-22 56.5q0 29 22.5 50.5t50.5 21.5h209q61 0 104.5 -43t43.5 -105v-1483q0 -61 -43 -104t-105 -43h-209q-29 0 -51 22.5t-22 53.5z" />
<glyph unicode="^" horiz-adv-x="897" d="M76 743q0 16 8 31l260 539q14 29 43 47t66 18q33 0 61.5 -18.5t40.5 -46.5l258 -539q6 -15 6 -31q0 -25 -20.5 -49t-55.5 -24q-20 0 -39.5 10t-27.5 31l-230 501l-225 -501q-8 -20 -27.5 -30.5t-39.5 -10.5q-33 0 -55.5 21.5t-22.5 51.5z" />
<glyph unicode="_" horiz-adv-x="1155" d="M-18 -156q0 29 22.5 51.5t50.5 22.5h1047q29 0 50.5 -22.5t21.5 -51.5q0 -33 -22 -54t-50 -21h-1047q-29 0 -51 21.5t-22 53.5z" />
<glyph unicode="`" horiz-adv-x="493" d="M98 1376q0 27 20.5 48.5t49.5 21.5t49 -21l197 -202q16 -16 16 -39t-16.5 -40.5t-40.5 -17.5q-18 0 -37 15l-217 188q-20 16 -21 47z" />
<glyph unicode="a" horiz-adv-x="1099" d="M78 303q0 84 31.5 145.5t81 100.5t110.5 57.5t123 18.5q98 0 181 -32t136 -95v151q0 86 -63.5 134t-165.5 48q-66 0 -124 -17t-112 -58q-23 -14 -45 -15q-31 0 -58.5 22.5t-27.5 63.5q0 27 17 47q29 37 76 64t100 43t108.5 24.5t100.5 8.5q82 0 156.5 -18.5t132 -60.5 t91.5 -110.5t34 -169.5v-559q0 -45 -31 -76.5t-78 -31.5q-33 0 -56.5 13t-39 45t-15.5 60q-55 -63 -137 -97t-180 -34q-61 0 -122.5 20.5t-111 61.5t-81 102.5t-31.5 143.5zM301 299q0 -80 59.5 -126t147.5 -46q72 0 134 24.5t99 75.5v148q-37 49 -99 73.5t-134 24.5 q-88 0 -147.5 -47t-59.5 -127z" />
<glyph unicode="b" horiz-adv-x="1191" d="M139 96v1176q0 43 32 74.5t81 31.5q43 0 74.5 -31.5t31.5 -74.5v-418q59 78 140.5 119t175.5 41t175 -36t139.5 -103.5t91 -163.5t32.5 -217q0 -123 -32.5 -219.5t-91 -163t-139.5 -101.5t-175 -35q-96 0 -177 42t-139 118v-39q0 -45 -32.5 -76.5t-77.5 -31.5t-77 31.5 t-32 76.5zM358 299q35 -55 106 -92t144 -37q66 0 117 23.5t87 66.5t55.5 102.5t19.5 131.5q0 70 -19.5 130t-55.5 104t-87 67.5t-117 23.5q-74 0 -144.5 -39t-105.5 -94v-387z" />
<glyph unicode="c" horiz-adv-x="1017" d="M78 496q0 113 38 207t105.5 163.5t161.5 108.5t207 39q57 0 108.5 -10.5t94.5 -28t76.5 -41t54.5 -53.5q14 -20 14 -45q0 -43 -33 -69t-69 -26q-35 0 -64 21q-39 29 -82 43t-90 14q-68 0 -122 -23.5t-93 -66.5t-60.5 -103.5t-21.5 -129.5q0 -72 21.5 -131.5t60.5 -103.5 t93 -67.5t122 -23.5q98 0 172 59q29 20 64 21q39 0 71.5 -26.5t32.5 -69.5q0 -18 -8 -36t-25 -32q-53 -49 -131 -80t-186 -31q-113 0 -207 39t-161.5 109t-105.5 165t-38 208z" />
<glyph unicode="d" horiz-adv-x="1191" d="M78 494q0 121 31.5 217t90 163.5t139.5 103.5t177 36q92 0 175 -41t143 -119v416q0 45 31.5 76.5t80.5 31.5q43 0 75 -31.5t32 -76.5v-1174q0 -45 -32 -76.5t-79 -31.5q-45 0 -76.5 31.5t-31.5 76.5v39q-59 -76 -140.5 -118t-177.5 -42q-94 0 -175 35t-139.5 101.5 t-91 163t-32.5 219.5zM303 494q0 -70 20.5 -130.5t56.5 -103.5t87 -66.5t113 -23.5q76 0 146.5 37t107.5 92v389q-37 55 -108 93t-146 38q-61 0 -112.5 -23.5t-87.5 -67.5t-56.5 -104.5t-20.5 -129.5z" />
<glyph unicode="e" horiz-adv-x="1140" d="M78 496q0 106 37 201.5t103.5 165t158.5 110.5t203 41q88 0 161.5 -25.5t132 -72t101.5 -111t65 -143.5q8 -31 16.5 -65t8.5 -67q0 -43 -30.5 -74.5t-76.5 -31.5h-651q6 -55 29.5 -105.5t62.5 -87t94.5 -58t124.5 -21.5q53 0 111.5 16t110.5 49q23 12 45 12 q33 0 62.5 -24.5t29.5 -65.5q0 -43 -37 -65q-74 -51 -161 -75t-183 -24q-111 0 -207 37t-164.5 105.5t-107.5 164t-39 214.5zM305 575h549q0 43 -16.5 89.5t-50 85t-85 63.5t-122.5 25q-70 0 -119 -25t-83 -62.5t-52.5 -83.5t-20.5 -92z" />
<glyph unicode="f" horiz-adv-x="634" d="M14 895q0 39 28 66.5t67 27.5h81v62q0 158 86 246.5t230 88.5q43 0 82 -7t69.5 -21.5t49 -34.5t18.5 -47q0 -41 -24.5 -62.5t-53.5 -21.5q-23 0 -45 10t-55 10q-63 0 -99 -41t-36 -120v-62h118q39 0 67 -28.5t28 -69.5q0 -39 -28 -66.5t-67 -27.5h-118v-701 q0 -45 -33 -76.5t-80 -31.5q-45 0 -77 31.5t-32 76.5v701h-81q-39 0 -67 28.5t-28 69.5z" />
<glyph unicode="g" horiz-adv-x="1189" d="M78 506q0 121 31.5 215t90 159.5t139.5 99.5t177 34q92 0 174 -41t141 -119v39q0 45 32 76.5t81 31.5q43 0 75 -31.5t32 -76.5v-840q0 -135 -45 -223t-119 -139t-164 -71.5t-182 -20.5q-49 0 -103.5 6t-105.5 20.5t-95 37t-75 56.5q-18 25 -19 56q0 39 28 65.5t67 26.5 q27 0 49 -14q55 -41 117.5 -57.5t136.5 -16.5q53 0 104 12t93 44t67.5 83t25.5 129v115q-57 -74 -138 -118t-177 -44q-94 0 -175 33t-139.5 97.5t-91 158.5t-32.5 217zM303 506q0 -70 20.5 -127t56.5 -99t87 -64.5t113 -22.5q37 0 74.5 10t70.5 28.5t60.5 42t45.5 52.5v362 q-18 27 -45.5 50.5t-60.5 42t-71 28.5t-74 10q-61 0 -112.5 -22.5t-87.5 -63.5t-56.5 -98t-20.5 -129z" />
<glyph unicode="h" horiz-adv-x="1165" d="M139 96v1176q0 43 32 74.5t81 31.5q43 0 74.5 -31.5t31.5 -74.5v-418q25 31 60 58.5t81 51t98 37t112 13.5q160 0 239.5 -81t79.5 -233v-604q0 -45 -32.5 -76.5t-77.5 -31.5t-77 31.5t-32 76.5v525q0 57 -15.5 95t-40 60.5t-62.5 32.5t-83 10q-39 0 -76.5 -11 t-69.5 -29.5t-58.5 -42t-45.5 -48.5v-592q0 -45 -32.5 -76.5t-77.5 -31.5t-77 31.5t-32 76.5z" />
<glyph unicode="i" horiz-adv-x="495" d="M113 1245q0 55 40 94t95 39t95 -39t40 -94q0 -57 -40 -96t-95 -39t-95 39t-40 96zM139 96v799q0 43 32 74.5t81 31.5q43 0 74.5 -31.5t31.5 -74.5v-799q0 -45 -32.5 -76.5t-77.5 -31.5t-77 31.5t-32 76.5z" />
<glyph unicode="j" horiz-adv-x="495" d="M-197 -289q0 37 27 62.5t61 25.5q23 0 44.5 -10t58.5 -10q63 0 104 40t41 128v948q0 43 32 74.5t81 31.5q43 0 74.5 -31.5t31.5 -74.5v-948q0 -160 -82.5 -254t-246.5 -94q-47 0 -89 6t-72 19.5t-47.5 35t-17.5 51.5zM113 1245q0 55 40 94t95 39t95 -39t40 -94 q0 -57 -40 -96t-95 -39t-95 39t-40 96z" />
<glyph unicode="k" horiz-adv-x="1079" d="M139 96v1176q0 43 32 74.5t81 31.5q43 0 74.5 -31.5t31.5 -74.5v-756l412 455q29 33 72 33q41 0 72.5 -32t31.5 -73q0 -37 -24 -65l-271 -293l295 -381q21 -29 21 -62q0 -41 -30 -75.5t-79 -34.5q-25 0 -49.5 10t-40.5 35l-274 373l-136 -142v-168q0 -45 -32.5 -76.5 t-77.5 -31.5t-77 31.5t-32 76.5z" />
<glyph unicode="l" horiz-adv-x="495" d="M139 96v1176q0 43 32 74.5t81 31.5q43 0 74.5 -31.5t31.5 -74.5v-1176q0 -45 -32.5 -76.5t-77.5 -31.5t-77 31.5t-32 76.5z" />
<glyph unicode="m" horiz-adv-x="1710" d="M139 96v799q0 43 32 74.5t81 31.5q43 0 74.5 -31.5t31.5 -74.5v-41q14 25 46 51.5t75 51t93.5 41t107.5 16.5q113 0 178.5 -49.5t91.5 -133.5q20 33 55 67t79 59.5t96.5 41t107.5 15.5q135 0 210 -74t75 -225v-619q0 -45 -32 -76.5t-81 -31.5q-43 0 -75.5 31.5 t-32.5 76.5v547q0 78 -37 127t-123 49q-74 0 -134.5 -41t-92.5 -88v-594q0 -45 -32 -76.5t-79 -31.5q-45 0 -77 31.5t-32 76.5v547q0 78 -37.5 127t-123.5 49q-72 0 -132.5 -42t-93.5 -89v-592q0 -45 -32.5 -76.5t-77.5 -31.5t-77 31.5t-32 76.5z" />
<glyph unicode="n" horiz-adv-x="1163" d="M139 96v799q0 43 32 74.5t81 31.5q43 0 74.5 -31.5t31.5 -74.5v-41q25 31 60 58.5t80 51t97 37t112 13.5q160 0 239.5 -83t79.5 -235v-600q0 -45 -32.5 -76.5t-78.5 -31.5q-45 0 -76.5 31.5t-31.5 76.5v520q0 115 -54.5 159t-144.5 44q-41 0 -77.5 -11t-69.5 -29.5 t-59.5 -42t-43.5 -48.5v-592q0 -45 -32.5 -76.5t-77.5 -31.5t-77 31.5t-32 76.5z" />
<glyph unicode="o" horiz-adv-x="1173" d="M78 496q0 104 34.5 199.5t100.5 165t161 111.5t214 42t213 -42t160.5 -111.5t101.5 -165t35 -199.5q0 -106 -35 -200.5t-101.5 -165.5t-160.5 -113t-213 -42t-214 42t-161 113t-100.5 165t-34.5 201zM305 496q0 -66 18.5 -125.5t54.5 -103.5t88 -70.5t122 -26.5 q68 0 120 26.5t87.5 70.5t54 103.5t18.5 125.5q0 63 -18.5 122.5t-54 103.5t-88 70.5t-119.5 26.5q-70 0 -122 -26.5t-88 -70.5t-54.5 -103.5t-18.5 -122.5z" />
<glyph unicode="p" horiz-adv-x="1185" d="M139 -283v1178q0 43 32 74.5t81 31.5q43 0 74.5 -31.5t31.5 -74.5v-39q55 74 137.5 116t178.5 42t177 -35t139.5 -101.5t90 -162.5t31.5 -219t-31.5 -219.5t-90 -164t-139.5 -102.5t-177 -35q-94 0 -175 40t-141 120v-418q0 -43 -32.5 -74.5t-77.5 -31.5t-77 31.5 t-32 74.5zM358 301q35 -53 106 -92t144 -39q63 0 114.5 23.5t87.5 67.5t55.5 103.5t19.5 131.5q0 70 -19.5 130t-55.5 103t-87 66.5t-115 23.5q-74 0 -144.5 -38t-105.5 -93v-387z" />
<glyph unicode="q" horiz-adv-x="1185" d="M72 496q0 123 32.5 219t91 162.5t138.5 101.5t178 35q96 0 178 -42t137 -116v37q0 45 32 76.5t81 31.5q43 0 75 -31.5t32 -76.5v-1174q0 -45 -32 -76.5t-79 -31.5q-45 0 -77 31.5t-32 76.5v416q-59 -80 -141 -120t-174 -40q-98 0 -178 35t-138.5 102.5t-91 164 t-32.5 219.5zM301 496q0 -72 19.5 -131.5t55.5 -103.5t87 -67.5t112 -23.5q37 0 75 11.5t72 28.5t60.5 40.5t44.5 50.5v387q-18 29 -44.5 52.5t-60.5 41t-72 27.5t-75 10q-61 0 -112 -23.5t-87 -66.5t-55.5 -103.5t-19.5 -129.5z" />
<glyph unicode="r" horiz-adv-x="712" d="M139 96v799q0 43 32 74.5t81 31.5q43 0 74.5 -31.5t31.5 -74.5v-51q18 27 43 54.5t54.5 50t64.5 37.5t74 15q45 0 70.5 -27.5t25.5 -66.5q0 -49 -30.5 -78.5t-75.5 -35.5q-66 -6 -126.5 -35t-99.5 -86v-576q0 -45 -31.5 -76.5t-76.5 -31.5h-4q-45 0 -76 31.5t-31 76.5z " />
<glyph unicode="s" horiz-adv-x="966" d="M72 158q0 39 28.5 65.5t65.5 26.5q29 0 49 -14q57 -39 129 -64t143 -25q98 0 145.5 37t47.5 95q0 47 -44 71.5t-110.5 41t-144.5 32.5t-143.5 49t-110.5 88t-45 152q0 59 26.5 114.5t77 96.5t122 65.5t167.5 24.5q49 0 101.5 -7.5t99.5 -22.5t86 -37.5t63 -51.5 q18 -20 19 -49q0 -35 -26.5 -59.5t-61.5 -24.5q-27 0 -45 12q-47 33 -108.5 51.5t-127.5 18.5q-84 0 -132 -35t-48 -86q0 -43 44 -65.5t110.5 -38t143.5 -33t143.5 -51t110.5 -92t44 -156.5q0 -66 -26.5 -123.5t-79 -98t-130 -65.5t-176.5 -25q-51 0 -106.5 8.5t-108.5 24 t-98 40t-74 56.5q-20 23 -20 54z" />
<glyph unicode="t" horiz-adv-x="657" d="M6 895q0 39 26.5 66.5t67.5 27.5h82v174q0 45 32 77t81 32q43 0 74.5 -32t31.5 -77v-174h121q39 0 65.5 -28.5t26.5 -69.5q0 -39 -26.5 -66.5t-65.5 -27.5h-121v-510q0 -57 28 -87t67 -30q10 0 23 3t22 3q45 0 70.5 -27.5t25.5 -66.5q0 -25 -11.5 -44.5t-36 -33.5 t-62.5 -21.5t-89 -7.5q-127 0 -191.5 65.5t-64.5 190.5v566h-82q-41 0 -67.5 28.5t-26.5 69.5z" />
<glyph unicode="u" horiz-adv-x="1163" d="M139 289v606q0 43 32 74.5t81 31.5q43 0 74.5 -31.5t31.5 -74.5v-526q0 -55 13.5 -93t40 -62t62.5 -34t81 -10q82 0 147.5 39t104.5 88v598q0 43 31.5 74.5t81.5 31.5q43 0 74.5 -31.5t31.5 -74.5v-799q0 -45 -32.5 -76.5t-78.5 -31.5q-45 0 -76.5 31.5t-31.5 76.5v35 q-55 -61 -143.5 -108.5t-206.5 -47.5q-162 0 -240 81t-78 233z" />
<glyph unicode="v" horiz-adv-x="1032" d="M41 893q0 41 30.5 73.5t80.5 32.5q33 0 60.5 -17t39.5 -48l264 -680l262 678q12 33 40 50t61 17q51 0 81.5 -32.5t30.5 -75.5q0 -20 -8 -37l-311 -764q-20 -45 -61.5 -73.5t-92.5 -28.5h-4q-49 0 -91 28.5t-63 73.5l-311 764q-8 20 -8 39z" />
<glyph unicode="w" horiz-adv-x="1548" d="M43 897q0 39 29.5 71.5t79.5 32.5q35 0 64.5 -21.5t39.5 -53.5l188 -650l209 639q14 39 46 62.5t77 23.5q39 0 72 -23.5t47 -62.5l209 -639l188 650q8 33 38 54t67 21q47 0 77.5 -31.5t30.5 -72.5q0 -14 -6 -31l-239 -774q-14 -45 -53.5 -74.5t-88.5 -29.5h-4 q-49 0 -88 28.5t-53 75.5l-199 629l-199 -629q-14 -45 -54 -74.5t-89 -29.5h-4q-49 0 -87 29.5t-52 74.5l-242 774q-4 16 -4 31z" />
<glyph unicode="x" horiz-adv-x="1017" d="M92 88q0 31 19 55l260 365l-240 336q-18 27 -18 55q0 37 28.5 68.5t73.5 31.5q53 0 84 -43l211 -299l205 297q14 23 36.5 34t49.5 11q43 0 72.5 -29.5t29.5 -68.5q0 -33 -18 -57l-240 -336l262 -365q17 -24 17 -55q0 -37 -27 -68.5t-74 -31.5q-25 0 -46 10t-36 31 l-231 331l-236 -331q-31 -41 -79 -41q-41 0 -72 29.5t-31 70.5z" />
<glyph unicode="y" horiz-adv-x="1032" d="M41 893q0 41 29.5 74.5t81.5 33.5q33 0 60.5 -18t41.5 -53l262 -676l262 676q12 33 41 52t64 19q49 0 78.5 -32.5t29.5 -73.5q0 -25 -8 -41l-422 -1030q-51 -121 -134 -173t-187 -52q-29 0 -54.5 6t-46 17t-33 30.5t-12.5 44.5q0 41 29 69.5t74 28.5q10 0 20 -1t21 1 q37 2 66.5 21.5t47.5 60.5l49 111l-354 868q-6 16 -6 37z" />
<glyph unicode="z" horiz-adv-x="974" d="M82 113q0 18 6 35.5t18 33.5l472 615h-402q-41 0 -67.5 28.5t-26.5 69.5q0 39 26.5 66.5t67.5 27.5h604q39 0 71 -29.5t32 -76.5q0 -41 -23 -70l-477 -623h418q37 0 64.5 -26.5t27.5 -65.5q0 -41 -27.5 -69.5t-64.5 -28.5h-613q-43 0 -74.5 31.5t-31.5 81.5z" />
<glyph unicode="{" horiz-adv-x="567" d="M-4 500q0 31 15.5 46t45.5 32q31 14 44.5 47.5t13.5 79.5v376q0 70 24.5 127.5t65.5 97.5t94 61.5t109 21.5h55q41 0 61.5 -23t20.5 -53q0 -31 -20.5 -52.5t-61.5 -21.5h-55q-53 0 -91 -43t-38 -115v-399q0 -66 -21.5 -113t-73.5 -69q51 -23 73 -70t22 -113v-399 q0 -70 37.5 -114t91.5 -44h55q41 0 61.5 -21t20.5 -52t-20.5 -53.5t-61.5 -22.5h-55q-55 0 -108.5 21.5t-94.5 61.5t-65.5 96t-24.5 126v379q0 45 -13.5 79t-44.5 48q-31 16 -46 32.5t-15 45.5z" />
<glyph unicode="|" horiz-adv-x="438" d="M145 20v1328q0 29 21.5 50t56.5 21q31 0 51.5 -21.5t20.5 -49.5v-1328q0 -29 -21.5 -51t-54.5 -22q-31 0 -52.5 22.5t-21.5 50.5z" />
<glyph unicode="}" horiz-adv-x="567" d="M23 -313q0 31 20 52t63 21h54q53 0 92 44t39 114v399q0 66 21.5 113t72.5 70q-51 23 -72.5 69.5t-21.5 112.5v399q0 72 -39 115t-92 43h-54q-43 0 -63 21.5t-20 54.5q0 31 20 52.5t63 21.5h54q57 0 109.5 -21.5t93 -61.5t65.5 -97.5t25 -127.5v-376q0 -45 13 -79t44 -48 q31 -16 46 -31.5t15 -46.5t-15 -46.5t-46 -31.5q-31 -14 -44 -48t-13 -79v-379q0 -70 -25 -126t-65.5 -96t-93 -61.5t-109.5 -21.5h-54q-43 0 -63 22.5t-20 53.5z" />
<glyph unicode="~" horiz-adv-x="1038" d="M61 946q10 82 30 158t52.5 133t82.5 92t124 35q66 0 107 -27.5t67.5 -69.5t43 -89.5t31.5 -90.5t34.5 -69.5t54.5 -26.5q29 0 51.5 22.5t39 63.5t27.5 96.5t17 118.5q4 29 25.5 46.5t52.5 17.5q37 0 56.5 -24.5t19.5 -57.5q-10 -82 -28.5 -159t-51.5 -134t-84 -93 t-125 -36q-66 0 -106.5 27.5t-67.5 68.5t-42 90t-31.5 90t-36 69t-54.5 28q-29 0 -50 -23.5t-37.5 -63.5t-29 -94.5t-18.5 -115.5q-4 -31 -24.5 -49.5t-51.5 -18.5q-41 0 -59.5 25.5t-18.5 60.5z" />
<glyph unicode="&#xa1;" horiz-adv-x="503" d="M104 866q0 29 12.5 55.5t32 46t46 32t55.5 12.5t56.5 -12.5t46 -32t30.5 -46t12 -55.5q-2 -59 -43 -102t-102 -43q-59 0 -102.5 43t-43.5 102zM123 -260q0 6 2 54l5 120t6 158t6 166.5t6.5 148.5t3.5 102q2 39 30.5 66t69.5 27t67.5 -27t28.5 -66q2 -35 5 -102.5t6 -148 t7.5 -166.5t7.5 -158l5 -120t2 -54q0 -53 -38 -90t-91 -37q-55 0 -92 37t-37 90z" />
<glyph unicode="&#xa2;" horiz-adv-x="1017" d="M78 496q0 100 29.5 187t87 153.5t134.5 111.5t173 58v77q0 33 23.5 55.5t60.5 22.5q33 0 56.5 -22.5t23.5 -55.5v-73q86 -10 155.5 -45t104.5 -86q12 -23 12 -43q0 -43 -33 -69t-69 -26q-12 0 -21.5 3.5t-19.5 7.5q-33 20 -64 35.5t-65 23.5v-633q35 8 65.5 24.5 t63.5 35.5q16 12 41 12q39 0 71.5 -26.5t32.5 -69.5q0 -23 -12 -45q-37 -51 -107.5 -85t-154.5 -44v-111q0 -33 -24 -55.5t-56 -22.5q-37 0 -60.5 22.5t-23.5 55.5v115q-96 12 -173 56t-134.5 111.5t-87 154.5t-29.5 190zM303 496q0 -115 53.5 -197t145.5 -113v617 q-92 -31 -145.5 -112t-53.5 -195z" />
<glyph unicode="&#xa3;" horiz-adv-x="1101" d="M31 625q0 29 20.5 49t50.5 20h111q-23 29 -44.5 59.5t-37.5 64.5t-26.5 72t-10.5 81q0 92 41 169t108.5 131t153.5 84.5t181 30.5q66 0 128 -12t115 -34.5t94 -55.5t64 -72q4 -10 7 -21t3 -24q0 -47 -31.5 -74.5t-76.5 -27.5q-35 0 -60 18q-29 16 -53.5 35t-49 33 t-52 24.5t-62.5 10.5q-49 0 -93 -15.5t-79 -44t-53.5 -69.5t-18.5 -90q0 -45 11.5 -82t30 -70t41 -61.5t42.5 -59.5h242q29 0 49.5 -21.5t20.5 -51.5q0 -29 -20.5 -49.5t-49.5 -20.5h-180q2 -14 4 -28.5t2 -30.5q0 -80 -41 -142.5t-98 -101.5q23 8 50.5 12t51.5 4 q47 0 81 -11t65.5 -25.5t63.5 -26t71 -11.5q23 0 42 5.5t37.5 10.5t36 10t33.5 5q41 0 77 -29.5t36 -78.5q0 -37 -23.5 -62.5t-61.5 -43t-87 -26t-101 -8.5q-68 0 -114.5 14.5t-85.5 32t-78 32t-90 14.5q-37 0 -83 -13.5t-93 -36.5q-10 -6 -21.5 -7t-21.5 -1q-41 0 -68 26.5 t-27 65.5q0 27 12.5 49.5t39.5 38.5q86 51 133 115t47 131q0 31 -7 59.5t-20 57.5h-207q-31 0 -51 21.5t-20 52.5z" />
<glyph unicode="&#xa4;" horiz-adv-x="1255" d="M82 1135q0 35 26.5 63.5t65.5 28.5t68 -27l98 -98q59 37 130 57.5t157 20.5t156.5 -20.5t129.5 -57.5l101 98q27 27 63 27q35 0 64.5 -26.5t29.5 -65.5t-26 -66l-94 -94q43 -61 65.5 -136t22.5 -157t-23.5 -156.5t-66.5 -138.5l96 -92q26 -27 26 -62t-26.5 -64.5 t-67.5 -29.5q-37 0 -63 27l-99 94q-59 -39 -130.5 -58.5t-157.5 -19.5t-159 20.5t-132 59.5l-92 -94q-14 -14 -31.5 -20.5t-34.5 -6.5q-35 0 -64.5 26t-29.5 64q0 39 27 66l94 94q-43 61 -64.5 135t-21.5 156t21.5 155.5t64.5 135.5l-96 98q-27 27 -27 64zM340 682 q0 -61 18.5 -115.5t55.5 -96.5t91 -66.5t122 -24.5q70 0 124 24.5t91 66.5t55 96.5t18 115.5q0 59 -18 114.5t-55 96.5t-91.5 65.5t-123.5 24.5q-68 0 -122 -24.5t-91 -65.5t-55.5 -96.5t-18.5 -114.5z" />
<glyph unicode="&#xa5;" horiz-adv-x="1306" d="M35 313q0 29 20.5 48.5t48.5 19.5h428v184h-428q-31 0 -50 20.5t-19 53.5q0 29 19.5 48.5t49.5 19.5h334l-329 497q-18 25 -19 60q0 41 32 76.5t85 35.5q29 0 56.5 -14t43.5 -39l346 -539l342 539q16 25 43 39t58 14q51 0 83.5 -33.5t32.5 -78.5q0 -33 -16 -62l-328 -495 h338q29 0 48.5 -20.5t19.5 -51.5t-19.5 -50.5t-48.5 -19.5h-430v-184h430q29 0 48.5 -20.5t19.5 -51.5q0 -29 -19.5 -48t-48.5 -19h-430v-133q0 -51 -35.5 -86t-87.5 -35q-49 0 -85 34.5t-36 86.5v133h-428q-29 0 -49 20.5t-20 50.5z" />
<glyph unicode="&#xa6;" horiz-adv-x="438" d="M145 27v514q0 31 21.5 52t56.5 21q31 0 51.5 -21.5t20.5 -51.5v-514q0 -31 -21.5 -53.5t-54.5 -22.5q-31 0 -52.5 22.5t-21.5 53.5zM145 827v514q0 31 21.5 52.5t56.5 21.5q31 0 51.5 -21.5t20.5 -52.5v-514q0 -31 -21.5 -53t-54.5 -22q-31 0 -52.5 22.5t-21.5 52.5z" />
<glyph unicode="&#xa7;" horiz-adv-x="978" d="M76 16q0 35 24.5 60.5t57.5 25.5q27 0 47 -14q53 -41 123.5 -70.5t150.5 -29.5q90 0 145.5 35.5t55.5 105.5q0 55 -44 84t-110.5 47.5t-144.5 36.5t-143.5 50t-110.5 87t-45 148q0 53 19.5 96t49 74.5t68.5 54t78 35.5q-102 35 -158.5 97t-56.5 157q0 61 28.5 114.5 t79 92t123 61t162.5 22.5q68 0 133.5 -12t117.5 -33.5t84 -51t32 -64.5t-22.5 -58.5t-55.5 -23.5q-25 0 -43 14q-53 37 -115.5 55.5t-124.5 18.5q-84 0 -135 -35t-51 -96q0 -49 44 -74t110.5 -42t143.5 -33.5t143.5 -49.5t110.5 -89t44 -153q0 -86 -44 -153.5t-132 -108.5 q78 -33 127 -91.5t49 -158.5q0 -76 -31 -134t-85 -97t-131 -60.5t-165 -21.5q-61 0 -118.5 9.5t-106.5 26.5t-90 42t-68 53q-20 20 -20 51zM295 612q0 -39 21.5 -64.5t55.5 -44t77 -30.5t88 -22q68 29 103.5 70t35.5 100q0 37 -16.5 64.5t-44 46t-62.5 30.5t-72 22 q-109 -27 -147.5 -70.5t-38.5 -101.5z" />
<glyph unicode="&#xa8;" horiz-adv-x="585" d="M-43 1245q0 51 35 86t88 35q49 0 84 -35t35 -86t-35 -87t-84 -36q-53 0 -88 36t-35 87zM385 1245q0 51 36 86t87 35q49 0 86 -35t37 -86t-37 -87t-86 -36q-51 0 -87 36t-36 87z" />
<glyph unicode="&#xa9;" horiz-adv-x="1593" d="M90 684q0 147 55.5 275t151.5 224.5t225 152t275 55.5q147 0 275 -55.5t224.5 -152t151.5 -224.5t55 -275q0 -145 -55 -274t-151.5 -225.5t-224.5 -152t-275 -55.5q-145 0 -274.5 55.5t-225.5 152t-151.5 225.5t-55.5 274zM160 684q0 -131 50 -246.5t137 -203t203 -137.5 t247 -50t246.5 50t202.5 137.5t137.5 203t50.5 246.5t-50.5 247t-137.5 203t-202.5 137t-246.5 50t-247 -50t-203 -137t-137 -203t-50 -247zM379 686q0 94 33.5 173t91 137.5t135.5 90t166 31.5q84 0 154.5 -28.5t123.5 -81.5q10 -10 11 -27q0 -14 -11.5 -27.5t-29.5 -13.5 q-16 0 -29 12q-41 43 -99.5 66.5t-119.5 23.5q-70 0 -131.5 -26.5t-107.5 -72.5t-73.5 -111.5t-27.5 -145.5q0 -78 27.5 -143.5t73.5 -113.5t107.5 -74.5t131.5 -26.5q63 0 121.5 23.5t99.5 68.5q10 10 29 10q14 0 27.5 -11.5t13.5 -29.5q0 -16 -11 -27 q-55 -53 -125.5 -82.5t-154.5 -29.5q-88 0 -166 33.5t-135.5 92t-91 137.5t-33.5 173z" />
<glyph unicode="&#xaa;" horiz-adv-x="782" d="M72 864q0 53 19.5 92t52 65t72.5 39t83 13q76 0 128 -23.5t85 -58.5v94q0 55 -43 87t-107 32q-39 0 -79.5 -14t-75.5 -39q-16 -12 -33 -12q-20 0 -40.5 17.5t-20.5 43.5q0 18 10 33q20 25 53 43t70 29.5t73.5 16.5t67.5 5q55 0 107.5 -12t91.5 -40t62.5 -76t23.5 -118 v-348q0 -33 -22.5 -55.5t-57.5 -22.5q-31 -4 -55.5 16.5t-24.5 53.5v10q-33 -35 -85 -59.5t-128 -24.5q-43 0 -83 13.5t-72.5 40t-52 66.5t-19.5 93zM231 864q0 -53 39 -81.5t92 -28.5q45 0 85 17t65 48v90q-25 31 -64.5 47.5t-85.5 16.5q-53 0 -92 -29t-39 -80z" />
<glyph unicode="&#xab;" horiz-adv-x="1009" d="M119 496q0 63 43 110l217 242q20 23 53 22q29 0 53.5 -20.5t24.5 -52.5q0 -31 -18 -52l-224 -247l224 -252q18 -20 18 -51q0 -29 -20.5 -53.5t-55.5 -24.5t-55 24l-219 246q-41 45 -41 109zM471 496q0 31 11.5 59.5t31.5 52.5l217 240q20 23 53 22q31 0 54.5 -21.5 t23.5 -53.5q0 -29 -16 -50l-225 -247l225 -252q18 -20 18 -51q0 -29 -21.5 -53.5t-56.5 -24.5t-55 24l-219 246q-20 25 -30.5 52.5t-10.5 56.5z" />
<glyph unicode="&#xac;" horiz-adv-x="1046" d="M47 881q0 29 20.5 49t49.5 20h704q61 0 104.5 -44t43.5 -105v-322q0 -31 -21.5 -51t-52.5 -20t-51.5 20.5t-20.5 50.5v328h-706q-29 0 -49.5 21.5t-20.5 52.5z" />
<glyph unicode="&#xad;" horiz-adv-x="614" d="M53 496q0 39 26.5 66.5t65.5 27.5h324q39 0 65.5 -26.5t26.5 -65.5q0 -41 -26.5 -69t-65.5 -28h-324q-39 0 -65.5 28t-26.5 67z" />
<glyph unicode="&#xae;" horiz-adv-x="1011" d="M72 952q0 90 33.5 170t93 138.5t138.5 92t169 33.5t170 -33.5t138 -92t92 -138.5t34 -170t-34 -168.5t-92 -138t-138 -93.5t-170 -34t-169 34t-138.5 93.5t-93 138t-33.5 168.5zM133 952q0 -76 30 -144.5t80 -118.5t117.5 -79.5t145.5 -29.5q76 0 144.5 29.5t118.5 79.5 t79 118.5t29 144.5t-29 144.5t-79 119t-118.5 79t-144.5 28.5q-78 0 -145.5 -28.5t-117.5 -79t-80 -119t-30 -144.5zM340 723v416q0 27 18.5 44t44.5 17h140q63 0 111 -40.5t48 -110.5q0 -41 -15 -70t-36.5 -46.5t-43 -24.5t-32.5 -7l105 -151q6 -10 6 -23q0 -14 -10 -24.5 t-27 -10.5q-18 0 -31 19l-122 188h-88v-176q0 -14 -9.5 -23.5t-25.5 -9.5q-14 0 -23.5 9.5t-9.5 23.5zM408 961h135q33 0 61.5 24.5t28.5 63.5q0 41 -29 66.5t-61 25.5h-135v-180z" />
<glyph unicode="&#xaf;" horiz-adv-x="743" d="M0 1225q0 27 18.5 45t42.5 18h621q25 0 43 -18t18 -45q0 -29 -18 -47.5t-43 -18.5h-621q-25 0 -43 18.5t-18 47.5z" />
<glyph unicode="&#xb0;" horiz-adv-x="620" d="M43 1118q0 55 20.5 104.5t57.5 86.5t85 57t103 20t103.5 -20t85.5 -57t57 -86.5t20 -104.5t-20 -103t-57 -84t-85 -56.5t-104 -20.5q-55 0 -103 20.5t-85 56.5t-57.5 84t-20.5 103zM170 1118q0 -57 40 -98t99 -41q57 0 99.5 41t42.5 98q0 59 -42 101.5t-100 42.5 q-59 0 -99 -42t-40 -102z" />
<glyph unicode="&#xb1;" horiz-adv-x="1028" d="M47 72q0 29 19.5 48t48.5 19h798q29 0 48.5 -19t19.5 -48q0 -31 -19.5 -51.5t-48.5 -20.5h-798q-29 0 -48.5 20.5t-19.5 51.5zM47 737q0 29 19.5 48.5t48.5 19.5h323v350q0 31 21.5 52.5t58.5 21.5q31 0 52.5 -21.5t21.5 -52.5v-350h321q29 0 48.5 -19.5t19.5 -48.5 q0 -31 -19.5 -51t-48.5 -20h-321v-361q0 -33 -21.5 -55.5t-56.5 -22.5q-33 0 -54.5 22.5t-21.5 55.5v361h-323q-29 0 -48.5 20.5t-19.5 50.5z" />
<glyph unicode="&#xb2;" horiz-adv-x="806" d="M86 932q0 23 9 40t28 32q119 82 201 144t132 113.5t72.5 91.5t22.5 79q0 33 -13.5 56t-34 38.5t-48 24t-58.5 8.5q-51 0 -99 -18.5t-87 -47.5q-20 -14 -43 -14q-27 0 -47.5 18.5t-20.5 48.5q0 25 15 43q20 27 55 46.5t75 32.5t81 19.5t75 6.5q63 0 122 -15.5t102 -47.5 t67.5 -79t24.5 -108q0 -55 -24.5 -107.5t-73 -106.5t-119 -110.5t-158.5 -122.5h328q27 0 46 -19t19 -44q0 -31 -19.5 -51.5t-45.5 -20.5h-520q-27 0 -45.5 19.5t-18.5 50.5z" />
<glyph unicode="&#xb3;" horiz-adv-x="806" d="M86 991q0 31 21.5 51.5t50.5 20.5q20 0 39 -12q45 -33 97 -50.5t99 -17.5q80 0 123 32t43 83q0 68 -55 92t-137 24h-31q-25 0 -45.5 14.5t-20.5 51.5q0 33 20.5 49.5t45.5 16.5h29q84 0 132 23.5t48 82.5q0 53 -46 80t-116 27q-47 0 -94 -14.5t-86 -47.5q-16 -14 -41 -14 t-44.5 18.5t-19.5 46.5q0 20 15 39q39 47 114.5 77t171.5 30q147 0 230.5 -60.5t83.5 -160.5q0 -41 -15.5 -73t-41 -56.5t-58.5 -39t-68 -20.5q31 -2 66 -15.5t64.5 -38t48 -60.5t18.5 -83q0 -106 -89 -172.5t-239 -66.5q-51 0 -106 10t-101.5 29.5t-76 46.5t-29.5 57z" />
<glyph unicode="&#xb4;" horiz-adv-x="493" d="M66 1184q0 23 14 39l199 202q16 20 47 21q27 0 49 -19.5t22 -50.5t-22 -47l-215 -188q-18 -14 -37 -15q-20 0 -38.5 16.5t-18.5 41.5z" />
<glyph unicode="&#xb5;" horiz-adv-x="1191" d="M139 -283v1178q0 43 32 74.5t81 31.5q43 0 74.5 -31.5t31.5 -74.5v-526q0 -109 53.5 -155t145.5 -46q39 0 76 11t69.5 28.5t58 41t46.5 48.5v598q0 43 31.5 74.5t81.5 31.5q43 0 74.5 -31.5t31.5 -74.5v-623q0 -51 21.5 -70.5t47 -32.5t47 -30.5t21.5 -62.5 q0 -41 -24.5 -71t-77.5 -30q-39 0 -76 7.5t-69.5 28t-59.5 54t-41 87.5q-45 -74 -121 -125.5t-168 -51.5q-70 0 -109.5 21.5t-58.5 52.5v-332q0 -43 -32.5 -74.5t-77.5 -31.5t-77 31.5t-32 74.5z" />
<glyph unicode="&#xb6;" horiz-adv-x="919" d="M55 1014q0 74 28 137t76 111.5t111.5 76t137.5 27.5h286q47 0 79 -33t32 -78v-1417q0 -23 -16.5 -39t-40.5 -16q-25 0 -41.5 16.5t-16.5 38.5v1415h-168v-1415q0 -23 -16.5 -39t-40.5 -16q-25 0 -41 16.5t-16 38.5v824q-74 0 -137.5 27.5t-111.5 75.5t-76 111.5 t-28 137.5z" />
<glyph unicode="&#xb7;" horiz-adv-x="503" d="M106 500q0 59 43.5 102t102.5 43t102 -43t43 -102q0 -29 -11 -54.5t-31.5 -46t-47 -32t-55.5 -11.5q-31 0 -56.5 11.5t-46 32t-32 46t-11.5 54.5z" />
<glyph unicode="&#xb8;" horiz-adv-x="440" d="M4 -307q0 20 16.5 35.5t36.5 15.5q10 0 21 -6q33 -18 67.5 -27.5t65.5 -9.5q45 0 80 18.5t35 57.5q0 27 -16.5 43t-49.5 16q-27 0 -45 -13t-43 -13q-27 0 -42 17t-15 38v10t2 10l43 111q8 25 27.5 39t41.5 14q18 0 30.5 -11t12.5 -28q0 -12 -6 -24l-37 -95q33 23 74 23 q59 0 98 -37.5t39 -103.5q0 -80 -65.5 -125t-155.5 -45q-35 0 -72.5 6t-69.5 16t-52.5 26.5t-20.5 41.5z" />
<glyph unicode="&#xb9;" horiz-adv-x="544" d="M39 1415q0 29 20 49l195 195q16 16 35.5 24.5t42.5 8.5q39 0 64.5 -25t25.5 -59v-674q0 -35 -23.5 -59.5t-62.5 -24.5q-35 0 -58.5 24.5t-23.5 59.5v530l-98 -100q-20 -20 -47 -21q-27 0 -48.5 20.5t-21.5 51.5z" />
<glyph unicode="&#xba;" horiz-adv-x="829" d="M70 989q0 68 23.5 129.5t68.5 107.5t108.5 73.5t143.5 27.5t144.5 -27.5t109.5 -73.5t68.5 -107.5t23.5 -129.5t-23.5 -129t-68.5 -107t-109.5 -74t-144.5 -28t-143.5 28t-108.5 74t-68.5 107.5t-23.5 128.5zM236 989q0 -92 46 -149.5t132 -57.5t133 57.5t47 149.5 t-47 147.5t-133 55.5t-132 -55.5t-46 -147.5z" />
<glyph unicode="&#xbb;" horiz-adv-x="1009" d="M145 195q0 31 19 51l225 252l-225 247q-16 23 -17 50q0 29 20.5 52t55.5 23q33 0 56 -22l217 -240q20 -25 31.5 -53t11.5 -59q0 -61 -41 -109l-219 -246q-23 -25 -56 -24q-31 0 -54.5 22.5t-23.5 55.5zM498 195q0 31 20 51l223 252l-223 247q-18 20 -18 50q0 29 20.5 52 t54.5 23q33 0 56 -22l219 -242q41 -47 41 -110q0 -61 -41 -109l-219 -246q-20 -25 -56 -24q-29 0 -53 22.5t-24 55.5z" />
<glyph unicode="&#xbc;" horiz-adv-x="1656" d="M39 1100q0 29 20 49l195 194q16 16 35.5 24.5t42.5 8.5q39 0 64.5 -24.5t25.5 -59.5v-674q0 -35 -23.5 -59t-62.5 -24q-35 0 -58.5 24.5t-23.5 58.5v531l-98 -100q-20 -20 -47 -21q-27 0 -48.5 20.5t-21.5 51.5zM297 43q0 16 10 31l817 1282q18 27 50 26q25 0 42 -18 t17 -41q0 -16 -8 -31l-819 -1282q-18 -25 -48 -24q-27 0 -44 16t-17 41zM903 260q0 14 6 28.5t15 28.5l288 443q23 35 57 53t77 18q29 0 53 -10t43.5 -27.5t30 -42t10.5 -51.5v-381h61q25 0 44.5 -19t19.5 -44q0 -29 -19.5 -49.5t-44.5 -20.5h-61v-116q0 -35 -24.5 -58.5 t-59.5 -23.5t-58.5 23.5t-23.5 58.5v116h-348q-27 0 -46.5 20.5t-19.5 53.5zM1083 319h234v357z" />
<glyph unicode="&#xbd;" horiz-adv-x="1728" d="M39 1100q0 29 20 49l195 194q16 16 35.5 24.5t42.5 8.5q39 0 64.5 -24.5t25.5 -59.5v-674q0 -35 -23.5 -59t-62.5 -24q-35 0 -58.5 24.5t-23.5 58.5v531l-98 -100q-20 -20 -47 -21q-27 0 -48.5 20.5t-21.5 51.5zM297 43q0 16 10 31l817 1282q18 27 50 26q25 0 42 -18 t17 -41q0 -16 -8 -31l-819 -1282q-18 -25 -48 -24q-27 0 -44 16t-17 41zM1006 70q0 23 10 40t28 31q117 82 199 144.5t132 114t72.5 91t22.5 78.5q0 33 -12 56.5t-33.5 39t-49 23.5t-58.5 8q-51 0 -99.5 -18.5t-84.5 -46.5q-20 -14 -46 -15q-27 0 -47 18.5t-20 49.5 q0 25 14 43q23 27 57.5 46.5t73.5 32.5t81 19t75 6q66 0 123 -15t100 -47t67.5 -79t24.5 -108q0 -55 -24.5 -107.5t-72.5 -107t-117.5 -110.5t-159.5 -122h327q27 0 46.5 -19t19.5 -44q0 -31 -19.5 -51.5t-46.5 -20.5h-518q-29 0 -47 19.5t-18 50.5z" />
<glyph unicode="&#xbe;" horiz-adv-x="1851" d="M86 676q0 31 21.5 51.5t50.5 20.5q20 0 39 -13q45 -33 97 -50t99 -17q80 0 123 31.5t43 82.5q0 68 -55 92.5t-137 24.5h-31q-25 0 -45.5 14.5t-20.5 51.5q0 33 20.5 49t45.5 16h29q84 0 132 23.5t48 83.5q0 53 -46 79.5t-116 26.5q-47 0 -94 -14.5t-86 -46.5 q-16 -14 -41 -15q-25 0 -44.5 18.5t-19.5 47.5q0 20 15 39q39 47 114.5 76.5t171.5 29.5q147 0 230.5 -60.5t83.5 -160.5q0 -41 -15.5 -72.5t-41 -56t-58.5 -39t-68 -20.5q31 -2 66 -15.5t64.5 -38t48 -60.5t18.5 -83q0 -106 -89 -173t-239 -67q-51 0 -106 10.5t-101.5 30 t-76 46t-29.5 57.5zM492 43q0 16 10 31l817 1282q18 27 49 26q25 0 42 -18t17 -41q0 -16 -8 -31l-819 -1282q-18 -25 -47 -24q-27 0 -44 16t-17 41zM1100 260q0 14 6 28.5t14 28.5l289 443q23 35 56.5 53t76.5 18q29 0 53.5 -10t44 -27.5t29.5 -42t10 -51.5v-381h62 q25 0 44 -19t19 -44q0 -29 -19.5 -49.5t-43.5 -20.5h-62v-116q0 -35 -23.5 -58.5t-60.5 -23.5q-35 0 -58.5 23.5t-23.5 58.5v116h-348q-27 0 -46 20.5t-19 53.5zM1280 319h233v357z" />
<glyph unicode="&#xbf;" horiz-adv-x="811" d="M49 -78q0 76 27.5 130t67.5 95t87.5 74t87 63.5t67.5 65.5t28 82q0 20 -8.5 34.5t-8.5 33.5q0 35 24.5 64.5t74.5 29.5q29 0 53 -16.5t40.5 -42t27 -58.5t10.5 -67q0 -63 -24.5 -108.5t-60.5 -80.5t-78 -63.5t-79 -57t-60.5 -61.5t-23.5 -76q0 -59 45 -102t146 -43 q66 0 118 21.5t95 58.5q31 23 71 22q41 0 72 -27.5t31 -74.5q0 -29 -15 -54q-29 -41 -74 -71.5t-99 -50t-112.5 -30.5t-111.5 -11q-98 0 -175 24.5t-131.5 67.5t-83 101.5t-28.5 127.5zM332 864q0 59 43 103.5t102 44.5t102.5 -44.5t43.5 -103.5t-43 -101t-103 -42 q-59 0 -102 42t-43 101z" />
<glyph unicode="&#xc0;" d="M55 119q0 27 11 45l426 1085q23 57 76 93t114 36q66 4 123 -31.5t82 -97.5l428 -1085q8 -25 8 -45q0 -47 -36 -89t-95 -42q-39 0 -72 21.5t-47 58.5l-72 190h-622l-74 -190q-14 -37 -47 -58.5t-72 -21.5q-59 0 -95 40t-36 91zM420 1718q0 27 20.5 48.5t49.5 21.5t49 -21 l197 -202q16 -16 16 -39t-16.5 -40.5t-40.5 -17.5q-18 0 -37 15l-217 188q-20 16 -21 47zM446 475h486l-242 645z" />
<glyph unicode="&#xc1;" d="M55 119q0 27 11 45l426 1085q23 57 76 93t114 36q66 4 123 -31.5t82 -97.5l428 -1085q8 -25 8 -45q0 -47 -36 -89t-95 -42q-39 0 -72 21.5t-47 58.5l-72 190h-622l-74 -190q-14 -37 -47 -58.5t-72 -21.5q-59 0 -95 40t-36 91zM446 475h486l-242 645zM631 1526q0 23 14 39 l199 202q16 20 47 21q27 0 49 -19.5t22 -50.5t-22 -47l-215 -188q-18 -14 -37 -15q-20 0 -38.5 16.5t-18.5 41.5z" />
<glyph unicode="&#xc2;" d="M55 119q0 27 11 45l426 1085q23 57 76 93t114 36q66 4 123 -31.5t82 -97.5l428 -1085q8 -25 8 -45q0 -47 -36 -89t-95 -42q-39 0 -72 21.5t-47 58.5l-72 190h-622l-74 -190q-14 -37 -47 -58.5t-72 -21.5q-59 0 -95 40t-36 91zM438 1524q0 16 10 32l101 156 q23 35 60.5 55.5t82.5 20.5q41 0 78 -20.5t61 -55.5l105 -156q8 -12 8 -30t-15.5 -39t-44.5 -21t-45 23l-149 188l-148 -188q-18 -20 -43 -21q-25 0 -43 15.5t-18 40.5zM446 475h486l-242 645z" />
<glyph unicode="&#xc3;" d="M55 119q0 27 11 45l426 1085q23 57 76 93t114 36q66 4 123 -31.5t82 -97.5l428 -1085q8 -25 8 -45q0 -47 -36 -89t-95 -42q-39 0 -72 21.5t-47 58.5l-72 190h-622l-74 -190q-14 -37 -47 -58.5t-72 -21.5q-59 0 -95 40t-36 91zM366 1536q0 35 11.5 76t37 73.5t64.5 55 t96 22.5q53 0 85 -24.5t56.5 -54t47 -54t53.5 -24.5q29 0 49 22.5t31 73.5q4 25 23.5 41t43.5 16q27 0 40 -17t13 -40q-2 -35 -13 -75t-35.5 -72.5t-63.5 -55t-97 -22.5q-53 0 -85.5 24.5t-57 54t-46 54t-54.5 24.5q-29 0 -49.5 -22.5t-28.5 -73.5q-4 -25 -24.5 -41 t-45.5 -16t-38 16t-13 39zM446 475h486l-242 645z" />
<glyph unicode="&#xc4;" d="M55 119q0 27 11 45l426 1085q23 57 76 93t114 36q66 4 123 -31.5t82 -97.5l428 -1085q8 -25 8 -45q0 -47 -36 -89t-95 -42q-39 0 -72 21.5t-47 58.5l-72 190h-622l-74 -190q-14 -37 -47 -58.5t-72 -21.5q-59 0 -95 40t-36 91zM356 1587q0 51 35 86t88 35q49 0 84 -35 t35 -86t-35 -87t-84 -36q-53 0 -88 36t-35 87zM446 475h486l-242 645zM784 1587q0 51 36 86t87 35q49 0 86 -35t37 -86t-37 -87t-86 -36q-51 0 -87 36t-36 87z" />
<glyph unicode="&#xc5;" d="M55 119q0 27 11 45l426 1085q23 57 76 93t114 36q66 4 123 -31.5t82 -97.5l428 -1085q8 -25 8 -45q0 -47 -36 -89t-95 -42q-39 0 -72 21.5t-47 58.5l-72 190h-622l-74 -190q-14 -37 -47 -58.5t-72 -21.5q-59 0 -95 40t-36 91zM446 475h486l-242 645zM481 1620 q0 43 16.5 80.5t45 67.5t67.5 46.5t80 16.5q45 0 83 -16.5t65.5 -46.5t44 -67.5t16.5 -80.5t-16.5 -82t-44 -68t-65.5 -44t-83 -15q-41 0 -80 15t-67.5 44t-45 68t-16.5 82zM585 1620q0 -43 31 -75t74 -32q45 0 74.5 32t29.5 75q0 45 -29.5 75.5t-74.5 30.5q-43 0 -74 -30.5 t-31 -75.5z" />
<glyph unicode="&#xc6;" horiz-adv-x="1966" d="M82 109q0 35 18 63l656 1069q37 57 98 91t127 34h797q43 0 73.5 -31.5t30.5 -77.5q0 -45 -30.5 -75.5t-73.5 -30.5h-600v-348h585q43 0 74 -32t31 -77t-31 -75.5t-74 -30.5h-585v-373h600q43 0 73.5 -30.5t30.5 -73.5q0 -47 -30.5 -79t-73.5 -32h-699q-61 0 -104 43 t-43 104v111h-504l-129 -215q-14 -27 -41 -40t-55 -13q-51 0 -86 35.5t-35 83.5zM547 475h385v645z" />
<glyph unicode="&#xc7;" horiz-adv-x="1398" d="M84 682q0 158 55.5 288t151.5 223t227 144.5t283 51.5q168 0 285.5 -61.5t195.5 -151.5q27 -33 27 -72q0 -47 -34 -80t-83 -33q-23 0 -46.5 10.5t-41.5 28.5q-59 66 -139 103.5t-164 37.5q-100 0 -185.5 -36.5t-147.5 -102t-98 -155t-36 -195.5t36 -196.5t98 -155 t147 -101t186 -36.5q86 0 164.5 35.5t138.5 103.5q18 18 41.5 28.5t48.5 10.5q49 0 81 -33t32 -78q0 -20 -6.5 -37.5t-18.5 -34.5q-76 -86 -185.5 -145t-267.5 -66l-30 -81q33 20 73 20q57 0 97.5 -38t40.5 -101q0 -80 -65.5 -126t-158.5 -46q-35 0 -71.5 6t-68.5 17.5 t-52.5 27.5t-20.5 41q0 20 15.5 34.5t36.5 14.5q12 0 22 -4q33 -18 68 -27.5t65 -9.5q45 0 80 18.5t35 55.5q0 29 -17.5 45t-50.5 16q-25 0 -43 -14t-43 -14q-27 0 -43 17t-16 40q0 4 1 8t3 10l33 95q-135 12 -252 68t-202 147.5t-133 215.5t-48 269z" />
<glyph unicode="&#xc8;" horiz-adv-x="1183" d="M145 147v1072q0 61 43 104t105 43h698q43 0 74 -31.5t31 -77.5q0 -45 -31 -75.5t-74 -30.5h-602v-348h588q43 0 73.5 -32t30.5 -77t-30.5 -75.5t-73.5 -30.5h-588v-373h602q43 0 74 -30.5t31 -73.5q0 -47 -31 -79t-74 -32h-698q-61 0 -104.5 43t-43.5 104zM340 1718 q0 27 20.5 48.5t49.5 21.5t49 -21l197 -202q16 -16 16 -39t-16.5 -40.5t-40.5 -17.5q-18 0 -37 15l-217 188q-20 16 -21 47z" />
<glyph unicode="&#xc9;" horiz-adv-x="1183" d="M145 147v1072q0 61 43 104t105 43h698q43 0 74 -31.5t31 -77.5q0 -45 -31 -75.5t-74 -30.5h-602v-348h588q43 0 73.5 -32t30.5 -77t-30.5 -75.5t-73.5 -30.5h-588v-373h602q43 0 74 -30.5t31 -73.5q0 -47 -31 -79t-74 -32h-698q-61 0 -104.5 43t-43.5 104zM553 1526 q0 23 14 39l199 202q16 20 47 21q27 0 49 -19.5t22 -50.5t-22 -47l-215 -188q-18 -14 -37 -15q-20 0 -38.5 16.5t-18.5 41.5z" />
<glyph unicode="&#xca;" horiz-adv-x="1183" d="M145 147v1072q0 61 43 104t105 43h698q43 0 74 -31.5t31 -77.5q0 -45 -31 -75.5t-74 -30.5h-602v-348h588q43 0 73.5 -32t30.5 -77t-30.5 -75.5t-73.5 -30.5h-588v-373h602q43 0 74 -30.5t31 -73.5q0 -47 -31 -79t-74 -32h-698q-61 0 -104.5 43t-43.5 104zM358 1524 q0 16 10 32l101 156q23 35 60.5 55.5t82.5 20.5q41 0 78 -20.5t61 -55.5l105 -156q8 -12 8 -30t-15.5 -39t-44.5 -21t-45 23l-149 188l-148 -188q-18 -20 -43 -21q-25 0 -43 15.5t-18 40.5z" />
<glyph unicode="&#xcb;" horiz-adv-x="1183" d="M145 147v1072q0 61 43 104t105 43h698q43 0 74 -31.5t31 -77.5q0 -45 -31 -75.5t-74 -30.5h-602v-348h588q43 0 73.5 -32t30.5 -77t-30.5 -75.5t-73.5 -30.5h-588v-373h602q43 0 74 -30.5t31 -73.5q0 -47 -31 -79t-74 -32h-698q-61 0 -104.5 43t-43.5 104zM279 1587 q0 51 35 86t88 35q49 0 84 -35t35 -86t-35 -87t-84 -36q-53 0 -88 36t-35 87zM707 1587q0 51 36 86t87 35q49 0 86 -35t37 -86t-37 -87t-86 -36q-51 0 -87 36t-36 87z" />
<glyph unicode="&#xcc;" horiz-adv-x="534" d="M0 1718q0 27 20.5 48.5t49.5 21.5t49 -21l197 -202q16 -16 16 -39t-16.5 -40.5t-40.5 -17.5q-18 0 -37 15l-217 188q-20 16 -21 47zM145 109v1151q0 49 36 83.5t87 34.5t86 -34.5t35 -83.5v-1151q0 -51 -36 -86t-89 -35q-49 0 -84 34.5t-35 86.5z" />
<glyph unicode="&#xcd;" horiz-adv-x="534" d="M145 109v1151q0 49 36 83.5t87 34.5t86 -34.5t35 -83.5v-1151q0 -51 -36 -86t-89 -35q-49 0 -84 34.5t-35 86.5zM209 1526q0 23 14 39l199 202q16 20 47 21q27 0 49 -19.5t22 -50.5t-22 -47l-215 -188q-18 -14 -37 -15q-20 0 -38.5 16.5t-18.5 41.5z" />
<glyph unicode="&#xce;" horiz-adv-x="534" d="M16 1524q0 16 10 32l101 156q23 35 60.5 55.5t82.5 20.5q41 0 78 -20.5t61 -55.5l105 -156q8 -12 8 -30t-15.5 -39t-44.5 -21t-45 23l-149 188l-148 -188q-18 -20 -43 -21q-25 0 -43 15.5t-18 40.5zM145 109v1151q0 49 36 83.5t87 34.5t86 -34.5t35 -83.5v-1151 q0 -51 -36 -86t-89 -35q-49 0 -84 34.5t-35 86.5z" />
<glyph unicode="&#xcf;" horiz-adv-x="534" d="M-63 1587q0 51 35 86t88 35q49 0 84 -35t35 -86t-35 -87t-84 -36q-53 0 -88 36t-35 87zM145 109v1151q0 49 36 83.5t87 34.5t86 -34.5t35 -83.5v-1151q0 -51 -36 -86t-89 -35q-49 0 -84 34.5t-35 86.5zM365 1587q0 51 36 86t87 35q49 0 86 -35t37 -86t-37 -87t-86 -36 q-51 0 -87 36t-36 87z" />
<glyph unicode="&#xd0;" horiz-adv-x="1509" d="M6 678q0 37 25.5 62.5t62.5 25.5h105v453q0 61 43 104t104 43h363q160 0 292 -50t226 -140.5t146 -217t52 -276.5t-52 -275.5t-146 -216t-226.5 -140.5t-291.5 -50h-363q-61 0 -104 43t-43 104v437h-105q-37 0 -62.5 26.5t-25.5 67.5zM442 215h267q111 0 196.5 37 t146 100.5t91.5 148.5t31 181q0 98 -30 184t-88.5 148.5t-145.5 99.5t-201 37h-267v-385h246q37 0 62.5 -25.5t25.5 -66.5q0 -39 -25.5 -64.5t-62.5 -25.5h-246v-369z" />
<glyph unicode="&#xd1;" horiz-adv-x="1476" d="M145 109v1116q0 31 11.5 57.5t33 49t50 34.5t63.5 12q39 0 74 -17.5t59 -47.5l651 -885v832q0 49 36 83.5t89 34.5q49 0 84 -34.5t35 -83.5v-1127q0 -29 -10 -55.5t-30.5 -46t-48.5 -31.5t-60 -12q-35 0 -68 16t-55 45l-670 918v-858q0 -51 -36 -86t-89 -35 q-49 0 -84 34.5t-35 86.5zM410 1536q0 35 11.5 76t37 73.5t64.5 55t96 22.5q53 0 85 -24.5t56.5 -54t47 -54t53.5 -24.5q29 0 49 22.5t31 73.5q4 25 23.5 41t43.5 16q27 0 40 -17t13 -40q-2 -35 -13 -75t-35.5 -72.5t-63.5 -55t-97 -22.5q-53 0 -85.5 24.5t-57 54t-46 54 t-54.5 24.5q-29 0 -49.5 -22.5t-28.5 -73.5q-4 -25 -24.5 -41t-45.5 -16t-38 16t-13 39z" />
<glyph unicode="&#xd2;" horiz-adv-x="1566" d="M84 682q0 154 51 283t144.5 224t221.5 147.5t281 52.5q154 0 283 -52.5t222 -147.5t144.5 -224t51.5 -283t-51.5 -283t-144.5 -224t-222 -147.5t-283 -52.5t-281.5 52.5t-221 147.5t-144.5 224t-51 283zM334 682q0 -104 31.5 -194.5t90 -155t141.5 -102t185 -37.5 t185.5 37.5t141.5 102t90 155t32 194.5t-32 194.5t-90 156t-141 102t-186 36.5q-102 0 -185 -36.5t-141.5 -102t-90 -156t-31.5 -194.5zM514 1718q0 27 20.5 48.5t49.5 21.5t49 -21l197 -202q16 -16 16 -39t-16.5 -40.5t-40.5 -17.5q-18 0 -37 15l-217 188q-20 16 -21 47z " />
<glyph unicode="&#xd3;" horiz-adv-x="1566" d="M84 682q0 154 51 283t144.5 224t221.5 147.5t281 52.5q154 0 283 -52.5t222 -147.5t144.5 -224t51.5 -283t-51.5 -283t-144.5 -224t-222 -147.5t-283 -52.5t-281.5 52.5t-221 147.5t-144.5 224t-51 283zM334 682q0 -104 31.5 -194.5t90 -155t141.5 -102t185 -37.5 t185.5 37.5t141.5 102t90 155t32 194.5t-32 194.5t-90 156t-141 102t-186 36.5q-102 0 -185 -36.5t-141.5 -102t-90 -156t-31.5 -194.5zM725 1526q0 23 14 39l199 202q16 20 47 21q27 0 49 -19.5t22 -50.5t-22 -47l-215 -188q-18 -14 -37 -15q-20 0 -38.5 16.5t-18.5 41.5z " />
<glyph unicode="&#xd4;" horiz-adv-x="1566" d="M84 682q0 154 51 283t144.5 224t221.5 147.5t281 52.5q154 0 283 -52.5t222 -147.5t144.5 -224t51.5 -283t-51.5 -283t-144.5 -224t-222 -147.5t-283 -52.5t-281.5 52.5t-221 147.5t-144.5 224t-51 283zM334 682q0 -104 31.5 -194.5t90 -155t141.5 -102t185 -37.5 t185.5 37.5t141.5 102t90 155t32 194.5t-32 194.5t-90 156t-141 102t-186 36.5q-102 0 -185 -36.5t-141.5 -102t-90 -156t-31.5 -194.5zM535 1524q0 16 10 32l101 156q23 35 60.5 55.5t82.5 20.5q41 0 78 -20.5t61 -55.5l105 -156q8 -12 8 -30t-15.5 -39t-44.5 -21t-45 23 l-149 188l-148 -188q-18 -20 -43 -21q-25 0 -43 15.5t-18 40.5z" />
<glyph unicode="&#xd5;" horiz-adv-x="1566" d="M84 682q0 154 51 283t144.5 224t221.5 147.5t281 52.5q154 0 283 -52.5t222 -147.5t144.5 -224t51.5 -283t-51.5 -283t-144.5 -224t-222 -147.5t-283 -52.5t-281.5 52.5t-221 147.5t-144.5 224t-51 283zM334 682q0 -104 31.5 -194.5t90 -155t141.5 -102t185 -37.5 t185.5 37.5t141.5 102t90 155t32 194.5t-32 194.5t-90 156t-141 102t-186 36.5q-102 0 -185 -36.5t-141.5 -102t-90 -156t-31.5 -194.5zM459 1536q0 35 11.5 76t37 73.5t64.5 55t96 22.5q53 0 85 -24.5t56.5 -54t47 -54t53.5 -24.5q29 0 49 22.5t31 73.5q4 25 23.5 41 t43.5 16q27 0 40 -17t13 -40q-2 -35 -13 -75t-35.5 -72.5t-63.5 -55t-97 -22.5q-53 0 -85.5 24.5t-57 54t-46 54t-54.5 24.5q-29 0 -49.5 -22.5t-28.5 -73.5q-4 -25 -24.5 -41t-45.5 -16t-38 16t-13 39z" />
<glyph unicode="&#xd6;" horiz-adv-x="1566" d="M84 682q0 154 51 283t144.5 224t221.5 147.5t281 52.5q154 0 283 -52.5t222 -147.5t144.5 -224t51.5 -283t-51.5 -283t-144.5 -224t-222 -147.5t-283 -52.5t-281.5 52.5t-221 147.5t-144.5 224t-51 283zM334 682q0 -104 31.5 -194.5t90 -155t141.5 -102t185 -37.5 t185.5 37.5t141.5 102t90 155t32 194.5t-32 194.5t-90 156t-141 102t-186 36.5q-102 0 -185 -36.5t-141.5 -102t-90 -156t-31.5 -194.5zM449 1587q0 51 35 86t88 35q49 0 84 -35t35 -86t-35 -87t-84 -36q-53 0 -88 36t-35 87zM877 1587q0 51 36 86t87 35q49 0 86 -35t37 -86 t-37 -87t-86 -36q-51 0 -87 36t-36 87z" />
<glyph unicode="&#xd7;" horiz-adv-x="1028" d="M141 383q0 27 21 47l252 254l-250 252q-23 20 -23 47t19.5 50.5t50.5 23.5t51 -21l252 -254l252 254q20 20 47 21q27 0 50.5 -21.5t23.5 -50.5t-21 -49l-252 -252l252 -254q21 -22 21 -49q0 -31 -23.5 -50.5t-48.5 -19.5q-29 0 -49 21l-252 252l-252 -252 q-20 -20 -47 -21q-29 0 -51.5 20.5t-22.5 51.5z" />
<glyph unicode="&#xd8;" horiz-adv-x="1566" d="M84 682q0 154 51 283t144.5 224t221.5 147.5t281 52.5q98 0 185.5 -21.5t165.5 -62.5l32 45q23 29 58 28q29 0 52 -20.5t23 -48.5q0 -23 -12 -41l-35 -47q111 -96 171.5 -233.5t60.5 -305.5q0 -154 -51.5 -283t-144.5 -224t-222 -147.5t-283 -52.5q-104 0 -197 25 t-171 70l-41 -58q-23 -27 -56 -26q-31 0 -53 20.5t-22 48.5q0 20 14 43l41 60q-100 94 -156.5 228t-56.5 296zM334 682q0 -98 27.5 -183t80.5 -149l553 770q-45 25 -99 38t-114 13q-102 0 -185 -36.5t-141.5 -102t-90 -156t-31.5 -194.5zM549 254q49 -29 107.5 -45 t125.5 -16q102 0 185.5 37.5t141.5 102t90 155t32 194.5t-32 193.5t-89 152.5z" />
<glyph unicode="&#xd9;" horiz-adv-x="1474" d="M145 539v718q0 49 36 85t89 36q49 0 85 -35.5t36 -85.5v-710q0 -160 88 -257t258 -97q172 0 259 97t87 257v710q0 49 36 85t91 36q51 0 86 -35.5t35 -85.5v-716q0 -127 -37 -231.5t-110.5 -179.5t-185 -115t-261.5 -40q-147 0 -258.5 41t-186.5 115t-111 177.5t-36 230.5 zM467 1718q0 27 20.5 48.5t49.5 21.5t49 -21l197 -202q16 -16 16 -39t-16.5 -40.5t-40.5 -17.5q-18 0 -37 15l-217 188q-20 16 -21 47z" />
<glyph unicode="&#xda;" horiz-adv-x="1474" d="M145 539v718q0 49 36 85t89 36q49 0 85 -35.5t36 -85.5v-710q0 -160 88 -257t258 -97q172 0 259 97t87 257v710q0 49 36 85t91 36q51 0 86 -35.5t35 -85.5v-716q0 -127 -37 -231.5t-110.5 -179.5t-185 -115t-261.5 -40q-147 0 -258.5 41t-186.5 115t-111 177.5t-36 230.5 zM680 1526q0 23 14 39l199 202q16 20 47 21q27 0 49 -19.5t22 -50.5t-22 -47l-215 -188q-18 -14 -37 -15q-20 0 -38.5 16.5t-18.5 41.5z" />
<glyph unicode="&#xdb;" horiz-adv-x="1474" d="M145 539v718q0 49 36 85t89 36q49 0 85 -35.5t36 -85.5v-710q0 -160 88 -257t258 -97q172 0 259 97t87 257v710q0 49 36 85t91 36q51 0 86 -35.5t35 -85.5v-716q0 -127 -37 -231.5t-110.5 -179.5t-185 -115t-261.5 -40q-147 0 -258.5 41t-186.5 115t-111 177.5t-36 230.5 zM492 1524q0 16 10 32l101 156q23 35 60.5 55.5t82.5 20.5q41 0 78 -20.5t61 -55.5l105 -156q8 -12 8 -30t-15.5 -39t-44.5 -21t-45 23l-149 188l-148 -188q-18 -20 -43 -21q-25 0 -43 15.5t-18 40.5z" />
<glyph unicode="&#xdc;" horiz-adv-x="1474" d="M145 539v718q0 49 36 85t89 36q49 0 85 -35.5t36 -85.5v-710q0 -160 88 -257t258 -97q172 0 259 97t87 257v710q0 49 36 85t91 36q51 0 86 -35.5t35 -85.5v-716q0 -127 -37 -231.5t-110.5 -179.5t-185 -115t-261.5 -40q-147 0 -258.5 41t-186.5 115t-111 177.5t-36 230.5 zM406 1587q0 51 35 86t88 35q49 0 84 -35t35 -86t-35 -87t-84 -36q-53 0 -88 36t-35 87zM834 1587q0 51 36 86t87 35q49 0 86 -35t37 -86t-37 -87t-86 -36q-51 0 -87 36t-36 87z" />
<glyph unicode="&#xdd;" horiz-adv-x="1306" d="M90 1264q0 41 33 76.5t86 35.5q27 0 54.5 -13t43.5 -40l346 -539l342 539q16 25 43 39t58 14q51 0 83.5 -33.5t32.5 -78.5q0 -33 -16 -62l-420 -637v-456q0 -51 -35.5 -86t-87.5 -35q-51 0 -86 34.5t-35 86.5v456l-423 639q-18 25 -19 60zM594 1526q0 23 14 39l199 202 q16 20 47 21q27 0 49 -19.5t22 -50.5t-22 -47l-215 -188q-18 -14 -37 -15q-20 0 -38.5 16.5t-18.5 41.5z" />
<glyph unicode="&#xde;" horiz-adv-x="1249" d="M145 113v1140q0 51 36 86t87 35t86 -34.5t35 -86.5v-116h361q106 0 190 -35t140.5 -94.5t86 -137t29.5 -165.5t-29.5 -165t-87 -135.5t-140.5 -92t-189 -33.5h-361v-166q0 -49 -36 -85t-89 -36q-49 0 -84 35.5t-35 85.5zM389 496h326q100 0 165.5 56.5t65.5 154.5 t-65.5 155.5t-165.5 57.5h-326v-424z" />
<glyph unicode="&#xdf;" horiz-adv-x="1280" d="M139 96v895q0 82 30 154t86 126t138 84.5t185 30.5q78 0 149.5 -19t125.5 -56t88 -89.5t34 -117.5q0 -57 -21.5 -98t-53.5 -72t-67.5 -54.5t-67.5 -48t-53.5 -51t-21.5 -61.5q0 -43 42 -63.5t103.5 -36t133 -32t133 -50t102.5 -92t41 -156.5q0 -68 -26.5 -124t-79 -99 t-126 -67t-167.5 -24q-57 0 -111.5 9.5t-100.5 26t-83 40t-62 53.5q-18 25 -18 56q0 37 23.5 62.5t58.5 25.5q25 0 51 -17q47 -37 109.5 -60.5t132.5 -23.5q94 0 141 41t47 93q0 47 -42 71.5t-102.5 43t-133 36t-133 50t-102.5 86t-42 147.5q0 53 20.5 93t50.5 71.5 t64.5 56.5t64.5 47.5t50.5 44t20.5 47.5q0 29 -15.5 50.5t-40 37t-56.5 22.5t-65 7q-45 0 -83.5 -13.5t-68.5 -40t-46.5 -63.5t-16.5 -84v-895q0 -45 -32.5 -76.5t-77.5 -31.5t-77 31.5t-32 76.5z" />
<glyph unicode="&#xe0;" horiz-adv-x="1099" d="M78 303q0 84 31.5 145.5t81 100.5t110.5 57.5t123 18.5q98 0 181 -32t136 -95v151q0 86 -63.5 134t-165.5 48q-66 0 -124 -17t-112 -58q-23 -14 -45 -15q-31 0 -58.5 22.5t-27.5 63.5q0 27 17 47q29 37 76 64t100 43t108.5 24.5t100.5 8.5q82 0 156.5 -18.5t132 -60.5 t91.5 -110.5t34 -169.5v-559q0 -45 -31 -76.5t-78 -31.5q-33 0 -56.5 13t-39 45t-15.5 60q-55 -63 -137 -97t-180 -34q-61 0 -122.5 20.5t-111 61.5t-81 102.5t-31.5 143.5zM276 1376q0 27 20.5 48.5t49.5 21.5t49 -21l197 -202q16 -16 16 -39t-16.5 -40.5t-40.5 -17.5 q-18 0 -37 15l-217 188q-20 16 -21 47zM301 299q0 -80 59.5 -126t147.5 -46q72 0 134 24.5t99 75.5v148q-37 49 -99 73.5t-134 24.5q-88 0 -147.5 -47t-59.5 -127z" />
<glyph unicode="&#xe1;" horiz-adv-x="1099" d="M78 303q0 84 31.5 145.5t81 100.5t110.5 57.5t123 18.5q98 0 181 -32t136 -95v151q0 86 -63.5 134t-165.5 48q-66 0 -124 -17t-112 -58q-23 -14 -45 -15q-31 0 -58.5 22.5t-27.5 63.5q0 27 17 47q29 37 76 64t100 43t108.5 24.5t100.5 8.5q82 0 156.5 -18.5t132 -60.5 t91.5 -110.5t34 -169.5v-559q0 -45 -31 -76.5t-78 -31.5q-33 0 -56.5 13t-39 45t-15.5 60q-55 -63 -137 -97t-180 -34q-61 0 -122.5 20.5t-111 61.5t-81 102.5t-31.5 143.5zM301 299q0 -80 59.5 -126t147.5 -46q72 0 134 24.5t99 75.5v148q-37 49 -99 73.5t-134 24.5 q-88 0 -147.5 -47t-59.5 -127zM488 1184q0 23 14 39l199 202q16 20 47 21q27 0 49 -19.5t22 -50.5t-22 -47l-215 -188q-18 -14 -37 -15q-20 0 -38.5 16.5t-18.5 41.5z" />
<glyph unicode="&#xe2;" horiz-adv-x="1099" d="M78 303q0 84 31.5 145.5t81 100.5t110.5 57.5t123 18.5q98 0 181 -32t136 -95v151q0 86 -63.5 134t-165.5 48q-66 0 -124 -17t-112 -58q-23 -14 -45 -15q-31 0 -58.5 22.5t-27.5 63.5q0 27 17 47q29 37 76 64t100 43t108.5 24.5t100.5 8.5q82 0 156.5 -18.5t132 -60.5 t91.5 -110.5t34 -169.5v-559q0 -45 -31 -76.5t-78 -31.5q-33 0 -56.5 13t-39 45t-15.5 60q-55 -63 -137 -97t-180 -34q-61 0 -122.5 20.5t-111 61.5t-81 102.5t-31.5 143.5zM297 1182q0 16 10 32l101 156q23 35 60.5 55.5t82.5 20.5q41 0 78 -20.5t61 -55.5l105 -156 q8 -12 8 -30t-15.5 -39t-44.5 -21t-45 23l-149 188l-148 -188q-18 -20 -43 -21q-25 0 -43 15.5t-18 40.5zM301 299q0 -80 59.5 -126t147.5 -46q72 0 134 24.5t99 75.5v148q-37 49 -99 73.5t-134 24.5q-88 0 -147.5 -47t-59.5 -127z" />
<glyph unicode="&#xe3;" horiz-adv-x="1099" d="M78 303q0 84 31.5 145.5t81 100.5t110.5 57.5t123 18.5q98 0 181 -32t136 -95v151q0 86 -63.5 134t-165.5 48q-66 0 -124 -17t-112 -58q-23 -14 -45 -15q-31 0 -58.5 22.5t-27.5 63.5q0 27 17 47q29 37 76 64t100 43t108.5 24.5t100.5 8.5q82 0 156.5 -18.5t132 -60.5 t91.5 -110.5t34 -169.5v-559q0 -45 -31 -76.5t-78 -31.5q-33 0 -56.5 13t-39 45t-15.5 60q-55 -63 -137 -97t-180 -34q-61 0 -122.5 20.5t-111 61.5t-81 102.5t-31.5 143.5zM223 1194q0 35 11.5 76t37 73.5t64.5 55t96 22.5q53 0 85 -24.5t56.5 -54t47 -54t53.5 -24.5 q29 0 49 22.5t31 73.5q4 25 23.5 41t43.5 16q27 0 40 -17t13 -40q-2 -35 -13 -75t-35.5 -72.5t-63.5 -55t-97 -22.5q-53 0 -85.5 24.5t-57 54t-46 54t-54.5 24.5q-29 0 -49.5 -22.5t-28.5 -73.5q-4 -25 -24.5 -41t-45.5 -16t-38 16t-13 39zM301 299q0 -80 59.5 -126 t147.5 -46q72 0 134 24.5t99 75.5v148q-37 49 -99 73.5t-134 24.5q-88 0 -147.5 -47t-59.5 -127z" />
<glyph unicode="&#xe4;" horiz-adv-x="1099" d="M78 303q0 84 31.5 145.5t81 100.5t110.5 57.5t123 18.5q98 0 181 -32t136 -95v151q0 86 -63.5 134t-165.5 48q-66 0 -124 -17t-112 -58q-23 -14 -45 -15q-31 0 -58.5 22.5t-27.5 63.5q0 27 17 47q29 37 76 64t100 43t108.5 24.5t100.5 8.5q82 0 156.5 -18.5t132 -60.5 t91.5 -110.5t34 -169.5v-559q0 -45 -31 -76.5t-78 -31.5q-33 0 -56.5 13t-39 45t-15.5 60q-55 -63 -137 -97t-180 -34q-61 0 -122.5 20.5t-111 61.5t-81 102.5t-31.5 143.5zM213 1245q0 51 35 86t88 35q49 0 84 -35t35 -86t-35 -87t-84 -36q-53 0 -88 36t-35 87zM301 299 q0 -80 59.5 -126t147.5 -46q72 0 134 24.5t99 75.5v148q-37 49 -99 73.5t-134 24.5q-88 0 -147.5 -47t-59.5 -127zM641 1245q0 51 36 86t87 35q49 0 86 -35t37 -86t-37 -87t-86 -36q-51 0 -87 36t-36 87z" />
<glyph unicode="&#xe5;" horiz-adv-x="1099" d="M78 303q0 84 31.5 145.5t81 100.5t110.5 57.5t123 18.5q98 0 181 -32t136 -95v151q0 86 -63.5 134t-165.5 48q-66 0 -124 -17t-112 -58q-23 -14 -45 -15q-31 0 -58.5 22.5t-27.5 63.5q0 27 17 47q29 37 76 64t100 43t108.5 24.5t100.5 8.5q82 0 156.5 -18.5t132 -60.5 t91.5 -110.5t34 -169.5v-559q0 -45 -31 -76.5t-78 -31.5q-33 0 -56.5 13t-39 45t-15.5 60q-55 -63 -137 -97t-180 -34q-61 0 -122.5 20.5t-111 61.5t-81 102.5t-31.5 143.5zM301 299q0 -80 59.5 -126t147.5 -46q72 0 134 24.5t99 75.5v148q-37 49 -99 73.5t-134 24.5 q-88 0 -147.5 -47t-59.5 -127zM340 1307q0 43 16.5 80.5t45 67.5t67.5 46.5t80 16.5q45 0 83 -16.5t65.5 -46.5t44 -67.5t16.5 -80.5t-16.5 -82t-44 -68t-65.5 -44t-83 -15q-41 0 -80 15t-67.5 44t-45 68t-16.5 82zM444 1307q0 -43 31 -75t74 -32q45 0 74.5 32t29.5 75 q0 45 -29.5 75.5t-74.5 30.5q-43 0 -74 -30.5t-31 -75.5z" />
<glyph unicode="&#xe6;" horiz-adv-x="1796" d="M78 301q0 80 29.5 140.5t79 101.5t115 61.5t136.5 20.5q106 0 196.5 -31t149.5 -92v149q0 84 -68.5 132t-180.5 48q-70 0 -133.5 -18t-122.5 -59q-23 -14 -48 -15q-29 0 -56.5 23.5t-27.5 62.5q0 29 17 49q29 37 77 64t103 43t112.5 24.5t104.5 8.5q63 0 118.5 -11.5 t99.5 -35t78 -58.5t52 -82q25 37 58.5 72t78 59.5t100.5 40t124 15.5q164 0 275.5 -94.5t154.5 -257.5q8 -27 14 -60t6 -70q0 -45 -31.5 -76.5t-76.5 -31.5h-606q6 -53 27.5 -102.5t58 -86t88 -57t116.5 -20.5q49 0 100.5 13t96.5 44q23 12 51 12q35 0 63.5 -22.5 t28.5 -61.5q0 -25 -16 -49q-27 -31 -69 -53.5t-89 -37.5t-95 -21.5t-85 -6.5q-125 0 -223 47.5t-164 155.5q-57 -90 -165.5 -146.5t-244.5 -56.5q-82 0 -154.5 19.5t-130 60.5t-90 102.5t-32.5 143.5zM301 313q0 -78 63.5 -119.5t159.5 -41.5q55 0 102.5 18t83 47t55 64.5 t19.5 72.5v19q-43 47 -111.5 73.5t-144.5 26.5q-100 0 -163.5 -42t-63.5 -118zM1004 575h507q-2 43 -16 89.5t-45 85t-79 63.5t-116 25q-61 0 -107 -25t-78 -62.5t-48 -83.5t-18 -92z" />
<glyph unicode="&#xe7;" horiz-adv-x="1017" d="M78 496q0 113 38 207t105.5 163.5t161.5 108.5t207 39q57 0 108.5 -10.5t94.5 -28t76.5 -41t54.5 -53.5q14 -20 14 -45q0 -43 -33 -69t-69 -26q-35 0 -64 21q-39 29 -82 43t-90 14q-68 0 -122 -23.5t-93 -66.5t-60.5 -103.5t-21.5 -129.5q0 -72 21.5 -131.5t60.5 -103.5 t93 -67.5t122 -23.5q98 0 172 59q29 20 64 21q39 0 71.5 -26.5t32.5 -69.5q0 -27 -14 -45q-18 -29 -48 -51.5t-68 -39t-82 -26.5t-91 -15l-33 -83q35 23 74 22q59 0 98 -39t39 -102q0 -80 -65.5 -125t-155.5 -45q-35 0 -72 5t-69.5 16.5t-53 27.5t-20.5 41q0 20 16.5 35.5 t36.5 15.5q10 0 21 -6q33 -18 67.5 -27.5t65.5 -9.5q45 0 79.5 18.5t34.5 55.5q0 29 -16 45t-49 16q-27 0 -45.5 -14t-42.5 -14q-25 0 -41.5 18t-16.5 39v9t3 9l34 95q-100 10 -183 52t-141.5 109.5t-91 157.5t-32.5 197z" />
<glyph unicode="&#xe8;" horiz-adv-x="1140" d="M78 496q0 106 37 201.5t103.5 165t158.5 110.5t203 41q88 0 161.5 -25.5t132 -72t101.5 -111t65 -143.5q8 -31 16.5 -65t8.5 -67q0 -43 -30.5 -74.5t-76.5 -31.5h-651q6 -55 29.5 -105.5t62.5 -87t94.5 -58t124.5 -21.5q53 0 111.5 16t110.5 49q23 12 45 12 q33 0 62.5 -24.5t29.5 -65.5q0 -43 -37 -65q-74 -51 -161 -75t-183 -24q-111 0 -207 37t-164.5 105.5t-107.5 164t-39 214.5zM305 575h549q0 43 -16.5 89.5t-50 85t-85 63.5t-122.5 25q-70 0 -119 -25t-83 -62.5t-52.5 -83.5t-20.5 -92zM309 1376q0 27 20.5 48.5t49.5 21.5 t49 -21l197 -202q16 -16 16 -39t-16.5 -40.5t-40.5 -17.5q-18 0 -37 15l-217 188q-20 16 -21 47z" />
<glyph unicode="&#xe9;" horiz-adv-x="1140" d="M78 496q0 106 37 201.5t103.5 165t158.5 110.5t203 41q88 0 161.5 -25.5t132 -72t101.5 -111t65 -143.5q8 -31 16.5 -65t8.5 -67q0 -43 -30.5 -74.5t-76.5 -31.5h-651q6 -55 29.5 -105.5t62.5 -87t94.5 -58t124.5 -21.5q53 0 111.5 16t110.5 49q23 12 45 12 q33 0 62.5 -24.5t29.5 -65.5q0 -43 -37 -65q-74 -51 -161 -75t-183 -24q-111 0 -207 37t-164.5 105.5t-107.5 164t-39 214.5zM305 575h549q0 43 -16.5 89.5t-50 85t-85 63.5t-122.5 25q-70 0 -119 -25t-83 -62.5t-52.5 -83.5t-20.5 -92zM521 1184q0 23 14 39l199 202 q16 20 47 21q27 0 49 -19.5t22 -50.5t-22 -47l-215 -188q-18 -14 -37 -15q-20 0 -38.5 16.5t-18.5 41.5z" />
<glyph unicode="&#xea;" horiz-adv-x="1140" d="M78 496q0 106 37 201.5t103.5 165t158.5 110.5t203 41q88 0 161.5 -25.5t132 -72t101.5 -111t65 -143.5q8 -31 16.5 -65t8.5 -67q0 -43 -30.5 -74.5t-76.5 -31.5h-651q6 -55 29.5 -105.5t62.5 -87t94.5 -58t124.5 -21.5q53 0 111.5 16t110.5 49q23 12 45 12 q33 0 62.5 -24.5t29.5 -65.5q0 -43 -37 -65q-74 -51 -161 -75t-183 -24q-111 0 -207 37t-164.5 105.5t-107.5 164t-39 214.5zM305 575h549q0 43 -16.5 89.5t-50 85t-85 63.5t-122.5 25q-70 0 -119 -25t-83 -62.5t-52.5 -83.5t-20.5 -92zM328 1182q0 16 10 32l101 156 q23 35 60.5 55.5t82.5 20.5q41 0 78 -20.5t61 -55.5l105 -156q8 -12 8 -30t-15.5 -39t-44.5 -21t-45 23l-149 188l-148 -188q-18 -20 -43 -21q-25 0 -43 15.5t-18 40.5z" />
<glyph unicode="&#xeb;" horiz-adv-x="1140" d="M78 496q0 106 37 201.5t103.5 165t158.5 110.5t203 41q88 0 161.5 -25.5t132 -72t101.5 -111t65 -143.5q8 -31 16.5 -65t8.5 -67q0 -43 -30.5 -74.5t-76.5 -31.5h-651q6 -55 29.5 -105.5t62.5 -87t94.5 -58t124.5 -21.5q53 0 111.5 16t110.5 49q23 12 45 12 q33 0 62.5 -24.5t29.5 -65.5q0 -43 -37 -65q-74 -51 -161 -75t-183 -24q-111 0 -207 37t-164.5 105.5t-107.5 164t-39 214.5zM246 1245q0 51 35 86t88 35q49 0 84 -35t35 -86t-35 -87t-84 -36q-53 0 -88 36t-35 87zM305 575h549q0 43 -16.5 89.5t-50 85t-85 63.5t-122.5 25 q-70 0 -119 -25t-83 -62.5t-52.5 -83.5t-20.5 -92zM674 1245q0 51 36 86t87 35q49 0 86 -35t37 -86t-37 -87t-86 -36q-51 0 -87 36t-36 87z" />
<glyph unicode="&#xec;" horiz-adv-x="495" d="M-19 1376q0 27 20.5 48.5t49.5 21.5t49 -21l197 -202q16 -16 16 -39t-16.5 -40.5t-40.5 -17.5q-18 0 -37 15l-217 188q-20 16 -21 47zM139 96v799q0 43 32 74.5t81 31.5q43 0 74.5 -31.5t31.5 -74.5v-799q0 -45 -32.5 -76.5t-77.5 -31.5t-77 31.5t-32 76.5z" />
<glyph unicode="&#xed;" horiz-adv-x="495" d="M139 96v799q0 43 32 74.5t81 31.5q43 0 74.5 -31.5t31.5 -74.5v-799q0 -45 -32.5 -76.5t-77.5 -31.5t-77 31.5t-32 76.5zM189 1184q0 23 14 39l199 202q16 20 47 21q27 0 49 -19.5t22 -50.5t-22 -47l-215 -188q-18 -14 -37 -15q-20 0 -38.5 16.5t-18.5 41.5z" />
<glyph unicode="&#xee;" horiz-adv-x="495" d="M-2 1182q0 16 10 32l101 156q23 35 60.5 55.5t82.5 20.5q41 0 78 -20.5t61 -55.5l105 -156q8 -12 8 -30t-15.5 -39t-44.5 -21t-45 23l-149 188l-148 -188q-18 -20 -43 -21q-25 0 -43 15.5t-18 40.5zM139 96v799q0 43 32 74.5t81 31.5q43 0 74.5 -31.5t31.5 -74.5v-799 q0 -45 -32.5 -76.5t-77.5 -31.5t-77 31.5t-32 76.5z" />
<glyph unicode="&#xef;" horiz-adv-x="495" d="M-84 1245q0 51 35 86t88 35q49 0 84 -35t35 -86t-35 -87t-84 -36q-53 0 -88 36t-35 87zM139 96v799q0 43 32 74.5t81 31.5q43 0 74.5 -31.5t31.5 -74.5v-799q0 -45 -32.5 -76.5t-77.5 -31.5t-77 31.5t-32 76.5zM344 1245q0 51 36 86t87 35q49 0 86 -35t37 -86t-37 -87 t-86 -36q-51 0 -87 36t-36 87z" />
<glyph unicode="&#xf0;" horiz-adv-x="1173" d="M78 467q0 106 32.5 195.5t92 156t141.5 102t176 35.5q102 0 183 -45t143 -141q-47 96 -132 181t-192 161l-252 -111q-12 -4 -22 -4q-20 0 -39 16.5t-19 43.5q0 39 35 53l183 82q-16 10 -35 22.5t-33 26.5t-23.5 31.5t-9.5 40.5q2 47 35 76.5t74 29.5q23 0 50.5 -13 t58 -33.5t59 -42t51.5 -40.5l172 76q10 4 20 4q20 0 39 -15.5t19 -41.5q0 -37 -33 -51l-117 -54q82 -72 149.5 -150.5t115 -164.5t73 -181.5t25.5 -199.5q0 -119 -35 -217t-101.5 -169t-160.5 -111t-213 -40q-117 0 -211 37t-160.5 102.5t-102.5 155.5t-36 197zM305 467 q0 -59 18.5 -113.5t54.5 -94.5t88 -64.5t122 -24.5q68 0 120 24.5t87.5 64.5t54 94.5t18.5 113.5t-18.5 112.5t-54 94.5t-88 64.5t-119.5 23.5q-70 0 -122 -23.5t-88 -64.5t-54.5 -94.5t-18.5 -112.5z" />
<glyph unicode="&#xf1;" horiz-adv-x="1163" d="M139 96v799q0 43 32 74.5t81 31.5q43 0 74.5 -31.5t31.5 -74.5v-41q25 31 60 58.5t80 51t97 37t112 13.5q160 0 239.5 -83t79.5 -235v-600q0 -45 -32.5 -76.5t-78.5 -31.5q-45 0 -76.5 31.5t-31.5 76.5v520q0 115 -54.5 159t-144.5 44q-41 0 -77.5 -11t-69.5 -29.5 t-59.5 -42t-43.5 -48.5v-592q0 -45 -32.5 -76.5t-77.5 -31.5t-77 31.5t-32 76.5zM258 1194q0 35 11.5 76t37 73.5t64.5 55t96 22.5q53 0 85 -24.5t56.5 -54t47 -54t53.5 -24.5q29 0 49 22.5t31 73.5q4 25 23.5 41t43.5 16q27 0 40 -17t13 -40q-2 -35 -13 -75t-35.5 -72.5 t-63.5 -55t-97 -22.5q-53 0 -85.5 24.5t-57 54t-46 54t-54.5 24.5q-29 0 -49.5 -22.5t-28.5 -73.5q-4 -25 -24.5 -41t-45.5 -16t-38 16t-13 39z" />
<glyph unicode="&#xf2;" horiz-adv-x="1173" d="M78 496q0 104 34.5 199.5t100.5 165t161 111.5t214 42t213 -42t160.5 -111.5t101.5 -165t35 -199.5q0 -106 -35 -200.5t-101.5 -165.5t-160.5 -113t-213 -42t-214 42t-161 113t-100.5 165t-34.5 201zM305 496q0 -66 18.5 -125.5t54.5 -103.5t88 -70.5t122 -26.5 q68 0 120 26.5t87.5 70.5t54 103.5t18.5 125.5q0 63 -18.5 122.5t-54 103.5t-88 70.5t-119.5 26.5q-70 0 -122 -26.5t-88 -70.5t-54.5 -103.5t-18.5 -122.5zM317 1376q0 27 20.5 48.5t49.5 21.5t49 -21l197 -202q16 -16 16 -39t-16.5 -40.5t-40.5 -17.5q-18 0 -37 15 l-217 188q-20 16 -21 47z" />
<glyph unicode="&#xf3;" horiz-adv-x="1173" d="M78 496q0 104 34.5 199.5t100.5 165t161 111.5t214 42t213 -42t160.5 -111.5t101.5 -165t35 -199.5q0 -106 -35 -200.5t-101.5 -165.5t-160.5 -113t-213 -42t-214 42t-161 113t-100.5 165t-34.5 201zM305 496q0 -66 18.5 -125.5t54.5 -103.5t88 -70.5t122 -26.5 q68 0 120 26.5t87.5 70.5t54 103.5t18.5 125.5q0 63 -18.5 122.5t-54 103.5t-88 70.5t-119.5 26.5q-70 0 -122 -26.5t-88 -70.5t-54.5 -103.5t-18.5 -122.5zM529 1184q0 23 14 39l199 202q16 20 47 21q27 0 49 -19.5t22 -50.5t-22 -47l-215 -188q-18 -14 -37 -15 q-20 0 -38.5 16.5t-18.5 41.5z" />
<glyph unicode="&#xf4;" horiz-adv-x="1173" d="M78 496q0 104 34.5 199.5t100.5 165t161 111.5t214 42t213 -42t160.5 -111.5t101.5 -165t35 -199.5q0 -106 -35 -200.5t-101.5 -165.5t-160.5 -113t-213 -42t-214 42t-161 113t-100.5 165t-34.5 201zM305 496q0 -66 18.5 -125.5t54.5 -103.5t88 -70.5t122 -26.5 q68 0 120 26.5t87.5 70.5t54 103.5t18.5 125.5q0 63 -18.5 122.5t-54 103.5t-88 70.5t-119.5 26.5q-70 0 -122 -26.5t-88 -70.5t-54.5 -103.5t-18.5 -122.5zM334 1182q0 16 10 32l101 156q23 35 60.5 55.5t82.5 20.5q41 0 78 -20.5t61 -55.5l105 -156q8 -12 8 -30t-15.5 -39 t-44.5 -21t-45 23l-149 188l-148 -188q-18 -20 -43 -21q-25 0 -43 15.5t-18 40.5z" />
<glyph unicode="&#xf5;" horiz-adv-x="1173" d="M78 496q0 104 34.5 199.5t100.5 165t161 111.5t214 42t213 -42t160.5 -111.5t101.5 -165t35 -199.5q0 -106 -35 -200.5t-101.5 -165.5t-160.5 -113t-213 -42t-214 42t-161 113t-100.5 165t-34.5 201zM262 1194q0 35 11.5 76t37 73.5t64.5 55t96 22.5q53 0 85 -24.5 t56.5 -54t47 -54t53.5 -24.5q29 0 49 22.5t31 73.5q4 25 23.5 41t43.5 16q27 0 40 -17t13 -40q-2 -35 -13 -75t-35.5 -72.5t-63.5 -55t-97 -22.5q-53 0 -85.5 24.5t-57 54t-46 54t-54.5 24.5q-29 0 -49.5 -22.5t-28.5 -73.5q-4 -25 -24.5 -41t-45.5 -16t-38 16t-13 39z M305 496q0 -66 18.5 -125.5t54.5 -103.5t88 -70.5t122 -26.5q68 0 120 26.5t87.5 70.5t54 103.5t18.5 125.5q0 63 -18.5 122.5t-54 103.5t-88 70.5t-119.5 26.5q-70 0 -122 -26.5t-88 -70.5t-54.5 -103.5t-18.5 -122.5z" />
<glyph unicode="&#xf6;" horiz-adv-x="1173" d="M78 496q0 104 34.5 199.5t100.5 165t161 111.5t214 42t213 -42t160.5 -111.5t101.5 -165t35 -199.5q0 -106 -35 -200.5t-101.5 -165.5t-160.5 -113t-213 -42t-214 42t-161 113t-100.5 165t-34.5 201zM252 1245q0 51 35 86t88 35q49 0 84 -35t35 -86t-35 -87t-84 -36 q-53 0 -88 36t-35 87zM305 496q0 -66 18.5 -125.5t54.5 -103.5t88 -70.5t122 -26.5q68 0 120 26.5t87.5 70.5t54 103.5t18.5 125.5q0 63 -18.5 122.5t-54 103.5t-88 70.5t-119.5 26.5q-70 0 -122 -26.5t-88 -70.5t-54.5 -103.5t-18.5 -122.5zM680 1245q0 51 36 86t87 35 q49 0 86 -35t37 -86t-37 -87t-86 -36q-51 0 -87 36t-36 87z" />
<glyph unicode="&#xf7;" horiz-adv-x="1046" d="M51 694q0 29 19.5 48.5t50.5 19.5h807q29 0 48 -19.5t19 -48.5q0 -33 -19.5 -53t-47.5 -20h-807q-31 0 -50.5 20.5t-19.5 52.5zM410 311q0 47 32.5 80t79.5 33q49 0 82 -33t33 -80t-33 -79.5t-82 -32.5q-47 0 -79.5 32.5t-32.5 79.5zM410 1065q0 47 32.5 79t79.5 32 q49 0 82 -32t33 -79t-33 -81t-82 -34q-47 0 -79.5 34t-32.5 81z" />
<glyph unicode="&#xf8;" horiz-adv-x="1173" d="M78 496q0 104 34.5 199.5t100.5 165t161 111.5t214 42q84 0 154.5 -20.5t129.5 -59.5l46 53q10 18 36 19q23 0 41.5 -15.5t18.5 -38.5q0 -18 -13 -34l-45 -54q70 -72 106 -166t36 -202q0 -106 -35 -200.5t-101.5 -165.5t-160.5 -113t-213 -42q-174 0 -295 86l-51 -61 q-16 -18 -39 -18q-20 0 -38 16t-18 39q0 20 13 33l51 63q-66 72 -99.5 164t-33.5 199zM305 496q0 -109 49 -191l385 469q-65 45 -151 45q-70 0 -122 -26.5t-88 -70.5t-54.5 -103.5t-18.5 -122.5zM426 221q33 -25 73 -38t89 -13q68 0 120 26.5t87.5 70.5t54 103.5t18.5 125.5 q0 113 -53 198z" />
<glyph unicode="&#xf9;" horiz-adv-x="1163" d="M139 289v606q0 43 32 74.5t81 31.5q43 0 74.5 -31.5t31.5 -74.5v-526q0 -55 13.5 -93t40 -62t62.5 -34t81 -10q82 0 147.5 39t104.5 88v598q0 43 31.5 74.5t81.5 31.5q43 0 74.5 -31.5t31.5 -74.5v-799q0 -45 -32.5 -76.5t-78.5 -31.5q-45 0 -76.5 31.5t-31.5 76.5v35 q-55 -61 -143.5 -108.5t-206.5 -47.5q-162 0 -240 81t-78 233zM311 1376q0 27 20.5 48.5t49.5 21.5t49 -21l197 -202q16 -16 16 -39t-16.5 -40.5t-40.5 -17.5q-18 0 -37 15l-217 188q-20 16 -21 47z" />
<glyph unicode="&#xfa;" horiz-adv-x="1163" d="M139 289v606q0 43 32 74.5t81 31.5q43 0 74.5 -31.5t31.5 -74.5v-526q0 -55 13.5 -93t40 -62t62.5 -34t81 -10q82 0 147.5 39t104.5 88v598q0 43 31.5 74.5t81.5 31.5q43 0 74.5 -31.5t31.5 -74.5v-799q0 -45 -32.5 -76.5t-78.5 -31.5q-45 0 -76.5 31.5t-31.5 76.5v35 q-55 -61 -143.5 -108.5t-206.5 -47.5q-162 0 -240 81t-78 233zM521 1184q0 23 14 39l199 202q16 20 47 21q27 0 49 -19.5t22 -50.5t-22 -47l-215 -188q-18 -14 -37 -15q-20 0 -38.5 16.5t-18.5 41.5z" />
<glyph unicode="&#xfb;" horiz-adv-x="1163" d="M139 289v606q0 43 32 74.5t81 31.5q43 0 74.5 -31.5t31.5 -74.5v-526q0 -55 13.5 -93t40 -62t62.5 -34t81 -10q82 0 147.5 39t104.5 88v598q0 43 31.5 74.5t81.5 31.5q43 0 74.5 -31.5t31.5 -74.5v-799q0 -45 -32.5 -76.5t-78.5 -31.5q-45 0 -76.5 31.5t-31.5 76.5v35 q-55 -61 -143.5 -108.5t-206.5 -47.5q-162 0 -240 81t-78 233zM328 1182q0 16 10 32l101 156q23 35 60.5 55.5t82.5 20.5q41 0 78 -20.5t61 -55.5l105 -156q8 -12 8 -30t-15.5 -39t-44.5 -21t-45 23l-149 188l-148 -188q-18 -20 -43 -21q-25 0 -43 15.5t-18 40.5z" />
<glyph unicode="&#xfc;" horiz-adv-x="1163" d="M139 289v606q0 43 32 74.5t81 31.5q43 0 74.5 -31.5t31.5 -74.5v-526q0 -55 13.5 -93t40 -62t62.5 -34t81 -10q82 0 147.5 39t104.5 88v598q0 43 31.5 74.5t81.5 31.5q43 0 74.5 -31.5t31.5 -74.5v-799q0 -45 -32.5 -76.5t-78.5 -31.5q-45 0 -76.5 31.5t-31.5 76.5v35 q-55 -61 -143.5 -108.5t-206.5 -47.5q-162 0 -240 81t-78 233zM248 1245q0 51 35 86t88 35q49 0 84 -35t35 -86t-35 -87t-84 -36q-53 0 -88 36t-35 87zM676 1245q0 51 36 86t87 35q49 0 86 -35t37 -86t-37 -87t-86 -36q-51 0 -87 36t-36 87z" />
<glyph unicode="&#xfd;" horiz-adv-x="1032" d="M41 893q0 41 29.5 74.5t81.5 33.5q33 0 60.5 -18t41.5 -53l262 -676l262 676q12 33 41 52t64 19q49 0 78.5 -32.5t29.5 -73.5q0 -25 -8 -41l-422 -1030q-51 -121 -134 -173t-187 -52q-29 0 -54.5 6t-46 17t-33 30.5t-12.5 44.5q0 41 29 69.5t74 28.5q10 0 20 -1t21 1 q37 2 66.5 21.5t47.5 60.5l49 111l-354 868q-6 16 -6 37zM455 1184q0 23 14 39l199 202q16 20 47 21q27 0 49 -19.5t22 -50.5t-22 -47l-215 -188q-18 -14 -37 -15q-20 0 -38.5 16.5t-18.5 41.5z" />
<glyph unicode="&#xfe;" horiz-adv-x="1185" d="M139 -279v1547q0 43 32 74.5t81 31.5q43 0 74.5 -31.5t31.5 -74.5v-412q55 74 137.5 116t178.5 42t177 -35t139.5 -101.5t90 -162.5t31.5 -219t-31.5 -219.5t-90 -164t-139.5 -102.5t-177 -35q-94 0 -175 40t-141 120v-414q0 -43 -32.5 -74.5t-77.5 -31.5t-77 31.5 t-32 74.5zM358 301q35 -53 106 -92t144 -39q63 0 114.5 23.5t87.5 67.5t55.5 103.5t19.5 131.5q0 70 -19.5 130t-55.5 103t-87 66.5t-115 23.5q-74 0 -144.5 -38t-105.5 -93v-387z" />
<glyph unicode="&#xff;" horiz-adv-x="1032" d="M41 893q0 41 29.5 74.5t81.5 33.5q33 0 60.5 -18t41.5 -53l262 -676l262 676q12 33 41 52t64 19q49 0 78.5 -32.5t29.5 -73.5q0 -25 -8 -41l-422 -1030q-51 -121 -134 -173t-187 -52q-29 0 -54.5 6t-46 17t-33 30.5t-12.5 44.5q0 41 29 69.5t74 28.5q10 0 20 -1t21 1 q37 2 66.5 21.5t47.5 60.5l49 111l-354 868q-6 16 -6 37zM180 1245q0 51 35 86t88 35q49 0 84 -35t35 -86t-35 -87t-84 -36q-53 0 -88 36t-35 87zM608 1245q0 51 36 86t87 35q49 0 86 -35t37 -86t-37 -87t-86 -36q-51 0 -87 36t-36 87z" />
<glyph unicode="&#x152;" horiz-adv-x="2236" d="M84 682q0 154 49 283t139 223t214 146t274 52q61 0 124.5 -13t122 -39.5t108.5 -66.5t85 -96q-2 41 6 76t26.5 61.5t47.5 42t66 15.5h700q45 0 75.5 -31.5t30.5 -77.5q0 -45 -30.5 -75.5t-75.5 -30.5h-600v-348h586q45 0 75.5 -32t30.5 -77t-30.5 -75.5t-75.5 -30.5h-586 v-373h600q45 0 75.5 -30.5t30.5 -73.5q0 -47 -30.5 -79t-75.5 -32h-703q-37 0 -64.5 15.5t-46 41t-26.5 61.5t-6 75q-35 -55 -85 -95.5t-108.5 -68t-122 -41t-124.5 -13.5q-150 0 -274 52.5t-214 146.5t-139 224t-49 284zM334 682q0 -106 31.5 -195.5t92 -154t144.5 -102 t189 -37.5q139 0 247.5 69.5t161.5 202.5v434q-53 135 -161.5 202.5t-247.5 67.5q-104 0 -188.5 -36.5t-145 -101t-92 -155t-31.5 -194.5z" />
<glyph unicode="&#x153;" horiz-adv-x="1931" d="M78 496q0 104 34.5 199.5t100.5 165t161 111.5t214 42q82 0 146.5 -24.5t112.5 -61.5t81 -80t55 -80q20 39 53 82t80 79t111.5 60.5t144.5 24.5q174 0 293 -95.5t166 -256.5q8 -27 15 -60t7 -70q0 -45 -30.5 -76.5t-75.5 -31.5h-647q6 -53 29.5 -103.5t62.5 -88t94 -59 t125 -21.5q55 0 112.5 16t108.5 47q20 12 45 12q33 0 61.5 -23.5t28.5 -64.5q0 -29 -18 -51q-29 -29 -72 -50.5t-92 -35.5t-100 -20.5t-96 -6.5q-86 0 -153 24t-116 59.5t-82.5 78.5t-56.5 82q-23 -37 -55.5 -80t-80.5 -79.5t-111.5 -60.5t-145.5 -24q-119 0 -214 42 t-161 113t-100.5 165t-34.5 201zM305 496q0 -70 20.5 -129.5t56.5 -103.5t88 -69.5t118 -25.5q63 0 115.5 25.5t89 69.5t56 103.5t19.5 129.5t-19.5 128t-56 101t-89 68.5t-115.5 25.5q-66 0 -118 -25.5t-88 -68.5t-56.5 -101.5t-20.5 -127.5zM1096 575h551 q-2 43 -18.5 89.5t-50.5 85t-85 63.5t-123 25q-68 0 -118 -25t-83.5 -62.5t-51 -83.5t-21.5 -92z" />
<glyph unicode="&#x178;" horiz-adv-x="1306" d="M90 1264q0 41 33 76.5t86 35.5q27 0 54.5 -13t43.5 -40l346 -539l342 539q16 25 43 39t58 14q51 0 83.5 -33.5t32.5 -78.5q0 -33 -16 -62l-420 -637v-456q0 -51 -35.5 -86t-87.5 -35q-51 0 -86 34.5t-35 86.5v456l-423 639q-18 25 -19 60zM319 1587q0 51 35 86t88 35 q49 0 84 -35t35 -86t-35 -87t-84 -36q-53 0 -88 36t-35 87zM747 1587q0 51 36 86t87 35q49 0 86 -35t37 -86t-37 -87t-86 -36q-51 0 -87 36t-36 87z" />
<glyph unicode="&#x2c6;" horiz-adv-x="587" d="M39 1182q0 16 10 32l101 156q23 35 60.5 55.5t82.5 20.5q41 0 78 -20.5t61 -55.5l105 -156q8 -12 8 -30t-15.5 -39t-44.5 -21t-45 23l-149 188l-148 -188q-18 -20 -43 -21q-25 0 -43 15.5t-18 40.5z" />
<glyph unicode="&#x2dc;" horiz-adv-x="659" d="M4 1194q0 35 11.5 76t37 73.5t64.5 55t96 22.5q53 0 85 -24.5t56.5 -54t47 -54t53.5 -24.5q29 0 49 22.5t31 73.5q4 25 23.5 41t43.5 16q27 0 40 -17t13 -40q-2 -35 -13 -75t-35.5 -72.5t-63.5 -55t-97 -22.5q-53 0 -85.5 24.5t-57 54t-46 54t-54.5 24.5 q-29 0 -49.5 -22.5t-28.5 -73.5q-4 -25 -24.5 -41t-45.5 -16t-38 16t-13 39z" />
<glyph unicode="&#x2000;" horiz-adv-x="915" />
<glyph unicode="&#x2001;" horiz-adv-x="1831" />
<glyph unicode="&#x2002;" horiz-adv-x="915" />
<glyph unicode="&#x2003;" horiz-adv-x="1831" />
<glyph unicode="&#x2004;" horiz-adv-x="610" />
<glyph unicode="&#x2005;" horiz-adv-x="457" />
<glyph unicode="&#x2006;" horiz-adv-x="305" />
<glyph unicode="&#x2007;" horiz-adv-x="305" />
<glyph unicode="&#x2008;" horiz-adv-x="228" />
<glyph unicode="&#x2009;" horiz-adv-x="366" />
<glyph unicode="&#x200a;" horiz-adv-x="101" />
<glyph unicode="&#x2010;" horiz-adv-x="614" d="M49 498q0 39 26.5 65.5t65.5 26.5h332q39 0 65.5 -26.5t26.5 -65.5q0 -41 -26.5 -69t-65.5 -28h-332q-39 0 -65.5 28t-26.5 69z" />
<glyph unicode="&#x2011;" horiz-adv-x="614" d="M49 498q0 39 26.5 65.5t65.5 26.5h332q39 0 65.5 -26.5t26.5 -65.5q0 -41 -26.5 -69t-65.5 -28h-332q-39 0 -65.5 28t-26.5 69z" />
<glyph unicode="&#x2012;" horiz-adv-x="614" d="M49 498q0 39 26.5 65.5t65.5 26.5h332q39 0 65.5 -26.5t26.5 -65.5q0 -41 -26.5 -69t-65.5 -28h-332q-39 0 -65.5 28t-26.5 69z" />
<glyph unicode="&#x2013;" horiz-adv-x="1214" d="M49 498q0 39 26.5 65.5t65.5 26.5h932q39 0 65.5 -26.5t26.5 -65.5q0 -41 -26.5 -69t-65.5 -28h-932q-39 0 -65.5 28t-26.5 69z" />
<glyph unicode="&#x2014;" horiz-adv-x="1705" d="M49 498q0 39 26.5 65.5t65.5 26.5h1424q39 0 65.5 -26.5t26.5 -65.5q0 -41 -26.5 -69t-65.5 -28h-1424q-39 0 -65.5 28t-26.5 69z" />
<glyph unicode="&#x2018;" horiz-adv-x="501" d="M86 1034q0 92 43 178t115 148q18 18 45 18q29 0 47 -19.5t18 -41.5q0 -25 -18 -41q-39 -33 -67.5 -76t-37.5 -84q4 2 14.5 3t20.5 1q53 0 88 -36t35 -95q0 -57 -41 -100t-98 -43q-33 0 -62.5 13t-52 38t-36 59.5t-13.5 77.5z" />
<glyph unicode="&#x2019;" horiz-adv-x="501" d="M106 1243q0 59 41 101t99 42q33 0 62.5 -12t52 -36.5t36 -59.5t13.5 -80q0 -92 -43 -177t-115 -149q-18 -16 -45 -16t-46.5 18.5t-19.5 40.5q0 25 19 41q39 35 68.5 78t35.5 84q-4 -2 -14 -4t-21 -2q-53 0 -88 36t-35 95z" />
<glyph unicode="&#x201a;" horiz-adv-x="503" d="M106 125q0 59 41 101t99 42q33 0 62.5 -12t52 -36.5t36 -59.5t13.5 -80q0 -92 -43 -177t-115 -149q-18 -16 -45 -16t-46.5 18.5t-19.5 40.5q0 25 19 43q39 33 68.5 76t35.5 84q-4 -2 -14 -4t-21 -2q-53 0 -88 37t-35 94z" />
<glyph unicode="&#x201c;" horiz-adv-x="884" d="M90 1034q0 92 43 178t117 148q16 18 43 18q29 0 47 -19.5t18 -41.5q0 -25 -18 -41q-39 -33 -67.5 -76t-36.5 -84q4 2 14 3t20 1q53 0 88 -36t35 -95q0 -57 -40 -100t-99 -43q-33 0 -61.5 13t-52 38t-37 59.5t-13.5 77.5zM473 1034q0 92 43 178t115 148q18 18 45 18 t45 -20.5t18 -40.5q0 -25 -16 -41q-39 -33 -68.5 -76t-38.5 -84q4 2 15.5 3t21.5 1q51 0 87 -36t36 -95q0 -57 -41 -100t-100 -43q-31 0 -60.5 13t-52 38t-36 59.5t-13.5 77.5z" />
<glyph unicode="&#x201d;" horiz-adv-x="884" d="M109 1243q0 59 39.5 101t99.5 42q33 0 61.5 -12t52 -36.5t37 -59.5t13.5 -80q0 -92 -43 -177t-117 -149q-18 -16 -43 -16q-29 0 -47.5 18.5t-18.5 40.5q0 25 19 41q39 35 67.5 78t36.5 84q-4 -2 -14 -4t-21 -2q-53 0 -87.5 36t-34.5 95zM489 1243q0 59 41 101t99 42 q33 0 62.5 -12t52 -36.5t36 -59.5t13.5 -80q0 -92 -43 -177t-115 -149q-20 -16 -45 -16q-29 0 -46.5 18.5t-17.5 40.5q0 25 17 41q39 35 68.5 78t35.5 84q-4 -2 -14 -4t-21 -2q-53 0 -88 36t-35 95z" />
<glyph unicode="&#x201e;" horiz-adv-x="884" d="M106 125q0 59 41 101t99 42q33 0 62.5 -12t52 -36.5t36 -59.5t13.5 -80q0 -92 -43 -177t-115 -149q-20 -16 -45 -16q-29 0 -47.5 18.5t-18.5 40.5q0 25 19 43q39 33 68.5 76t35.5 84q-4 -2 -14 -4t-21 -2q-53 0 -88 37t-35 94zM489 125q0 59 41 101t99 42q33 0 62.5 -12 t52 -36.5t36 -59.5t13.5 -80q0 -92 -43 -177t-115 -149q-20 -16 -45 -16q-29 0 -46.5 18.5t-17.5 40.5q0 25 17 43q39 33 68.5 76t35.5 84q-4 -2 -14 -4t-21 -2q-53 0 -88 37t-35 94z" />
<glyph unicode="&#x2022;" horiz-adv-x="733" d="M133 496q0 49 18.5 91t51.5 74.5t74.5 51t91.5 18.5q49 0 91 -18.5t74.5 -51t51 -74.5t18.5 -91q0 -47 -18.5 -90.5t-51 -75t-74.5 -50t-91 -18.5t-91 18.5t-75 50t-51.5 75t-18.5 90.5z" />
<glyph unicode="&#x2026;" horiz-adv-x="1511" d="M106 123q0 61 42 103t102 42q59 0 102 -42t43 -103q0 -29 -11 -54.5t-31.5 -46t-47 -31.5t-55.5 -11q-31 0 -56.5 11t-45 31.5t-31 46t-11.5 54.5zM610 123q0 61 42 103t102 42q59 0 102 -42t43 -103q0 -29 -11 -54.5t-30.5 -46t-47.5 -31.5t-56 -11q-31 0 -56.5 11 t-45 31.5t-31 46t-11.5 54.5zM1114 123q0 61 42 103t101 42q61 0 103.5 -42t42.5 -103q0 -29 -11.5 -54.5t-31 -46t-47 -31.5t-56.5 -11t-55 11t-45.5 31.5t-31 46t-11.5 54.5z" />
<glyph unicode="&#x202f;" horiz-adv-x="366" />
<glyph unicode="&#x2039;" horiz-adv-x="657" d="M119 496q0 63 43 110l217 242q20 23 53 22q29 0 53.5 -20.5t24.5 -52.5q0 -31 -18 -52l-224 -247l224 -252q18 -20 18 -51q0 -29 -20.5 -53.5t-55.5 -24.5t-55 24l-219 246q-41 45 -41 109z" />
<glyph unicode="&#x203a;" horiz-adv-x="657" d="M145 195q0 31 19 51l225 252l-225 247q-16 20 -17 50q0 29 20.5 52t55.5 23q33 0 56 -22l217 -242q43 -47 43 -110q0 -61 -41 -109l-219 -246q-23 -25 -56 -24q-31 0 -54.5 22.5t-23.5 55.5z" />
<glyph unicode="&#x205f;" horiz-adv-x="457" />
<glyph unicode="&#x20ac;" horiz-adv-x="1441" d="M39 543q0 27 19.5 46t45.5 19h27q-2 18 -2 37v37v38.5t2 41.5h-27q-27 0 -46 19.5t-19 49.5q0 27 19.5 46.5t45.5 19.5h54q33 113 98.5 203t154.5 154.5t200.5 99.5t234.5 35q168 0 285.5 -61.5t195.5 -151.5q27 -33 27 -72q0 -47 -34 -80t-83 -33q-23 0 -46.5 10.5 t-39.5 28.5q-59 66 -139 103.5t-166 37.5q-72 0 -137.5 -19t-119.5 -55t-96 -87.5t-69 -112.5h494q27 0 46 -20.5t19 -49.5q0 -27 -19.5 -46t-45.5 -19h-533q-4 -20 -4 -40v-40q0 -18 1 -36.5t3 -37.5h533q27 0 46 -19.5t19 -49.5q0 -29 -19.5 -48.5t-45.5 -19.5h-496 q27 -63 68.5 -114.5t97 -88.5t121 -56t137.5 -19q86 0 165 35.5t140 103.5q16 18 39.5 28.5t50.5 10.5q47 0 80 -33t33 -78q0 -20 -6.5 -37.5t-20.5 -34.5q-80 -90 -196.5 -151.5t-284.5 -61.5q-123 0 -234.5 35t-202 100.5t-156 156.5t-95.5 204h-54q-27 0 -46 20.5 t-19 51.5z" />
<glyph unicode="&#x2122;" horiz-adv-x="929" d="M23 1339q0 10 7 18.5t17 8.5h287q10 0 17 -8.5t7 -18.5t-7 -18t-17 -8h-115v-383q0 -27 -29 -27t-28 27v383h-115q-10 0 -17 8t-7 18zM420 930v399q0 18 13 32.5t36 14.5q33 0 45 -28l125 -310l123 310q12 29 45 28q23 0 37 -13t14 -34v-399q0 -27 -29 -27t-28 27v358 l-142 -344q-6 -14 -20 -14t-21 14l-141 344v-358q0 -27 -28 -27q-29 0 -29 27z" />
<glyph unicode="&#xe000;" horiz-adv-x="1003" d="M0 0v1004h1004v-1004h-1004z" />
</font>
</defs>
</svg>
