<?xml version="1.0" standalone="no"?>
<!DOCTYPE svg PUBLIC "-//W3C//DTD SVG 1.1//EN" "http://www.w3.org/Graphics/SVG/1.1/DTD/svg11.dtd" >
<svg xmlns="http://www.w3.org/2000/svg">
<metadata>
This is a custom SVG webfont generated by Font Squirrel.
Copyright   : Copyright c Mark Simonson 2005 All rights reserved
Designer    : Mark Simonson
Foundry URL : httpwwwmarksimonsoncom
</metadata>
<defs>
<font id="ProximaNovaCondensedLight" horiz-adv-x="962" >
<font-face units-per-em="2048" ascent="1618" descent="-430" />
<missing-glyph horiz-adv-x="444" />
<glyph unicode=" "  horiz-adv-x="444" />
<glyph unicode="&#x09;" horiz-adv-x="444" />
<glyph unicode="&#xa0;" horiz-adv-x="444" />
<glyph unicode="!" horiz-adv-x="446" d="M135 70q0 35 26.5 60.5t61.5 25.5q37 0 62.5 -26t25.5 -60q0 -37 -25.5 -62.5t-62.5 -25.5q-35 0 -61.5 25.5t-26.5 62.5zM156 1366h135l-27 -1012h-82z" />
<glyph unicode="&#x22;" horiz-adv-x="645" d="M119 1315q0 29 21.5 50t49.5 21q31 0 51.5 -21.5t20.5 -49.5l-41 -436h-59q-43 409 -43 436zM383 1315q0 29 20.5 50t51 21t51 -21.5t20.5 -49.5l-43 -436h-59q-41 409 -41 436z" />
<glyph unicode="#" horiz-adv-x="1011" d="M43 381l20 84h191l123 436h-189l19 82h194l107 383h94l-106 -383h194l107 383h94l-109 -383h187l-19 -82h-190l-125 -436h194l-22 -84h-195l-108 -381h-94l110 381h-196l-109 -381h-94l108 381h-186zM346 465h195l125 436h-195z" />
<glyph unicode="$" horiz-adv-x="929" d="M74 145l69 88q49 -63 126 -106t167 -47v582q-63 31 -97 50t-84 56t-75.5 71.5t-46 89t-20.5 118.5q0 139 91 232t232 107v187h92v-187q180 -14 295 -139l-65 -86q-90 104 -230 121v-530q74 -39 119 -69t98.5 -79t79 -114.5t25.5 -149.5q0 -137 -81 -238.5t-241 -121.5 v-185h-92v180q-227 8 -362 170zM231 1051q0 -84 53.5 -141.5t151.5 -108.5v479q-90 -12 -147.5 -74.5t-57.5 -154.5zM528 86q102 18 153.5 87t51.5 161q0 98 -53 161.5t-152 118.5v-528z" />
<glyph unicode="%" horiz-adv-x="1312" d="M68 1049q0 145 77.5 241t202.5 96t203 -96t78 -241q0 -143 -78 -237.5t-203 -94.5t-202.5 94.5t-77.5 237.5zM158 1049q0 -106 53 -180t137 -74q86 0 137.5 72.5t51.5 181.5q0 111 -51.5 185.5t-137.5 74.5q-84 0 -137 -74.5t-53 -185.5zM262 0l713 1366h86l-717 -1366 h-82zM686 309q0 145 78 240.5t201 95.5q125 0 202.5 -95t77.5 -240.5t-77.5 -240t-202.5 -94.5q-123 0 -201 95.5t-78 238.5zM776 309q0 -109 51.5 -182.5t137.5 -73.5t138 74t52 182q0 111 -52 184.5t-138 73.5t-137.5 -73.5t-51.5 -184.5z" />
<glyph unicode="&#x26;" horiz-adv-x="1044" d="M86 336q0 143 64.5 238.5t179.5 181.5q-92 184 -92 309q0 141 72.5 231t187.5 90q102 0 167.5 -69.5t65.5 -186.5q0 -57 -18.5 -109t-37 -85t-66.5 -77t-69.5 -61.5t-82.5 -62.5q57 -104 131 -211q74 -115 137 -194q72 145 113 323l94 -39q-68 -238 -141 -368 q51 -66 204 -246h-139l-125 154q-133 -178 -317 -179q-143 0 -235.5 96.5t-92.5 264.5zM199 340q0 -129 64.5 -200.5t158.5 -71.5q133 0 248 165q-113 143 -160 220q-102 158 -135 219q-176 -144 -176 -332zM346 1065q0 -104 70 -250q106 78 160.5 145.5t54.5 167.5 q0 82 -37 126t-94 44q-70 0 -112 -61t-42 -172z" />
<glyph unicode="'" horiz-adv-x="382" d="M119 1315q0 29 21.5 50t49.5 21q31 0 51.5 -21.5t20.5 -49.5l-41 -436h-59q-43 409 -43 436z" />
<glyph unicode="(" horiz-adv-x="425" d="M94 497.5q0 487.5 230 905.5l65 -37q-88 -221 -133 -419.5t-45 -448.5q0 -248 45 -448t133 -419l-65 -39q-230 418 -230 905.5z" />
<glyph unicode=")" horiz-adv-x="425" d="M35 -369l65 -39q229 418 229.5 905.5t-229.5 905.5l-65 -37q90 -217 134 -417.5t44 -450.5t-45 -451t-133 -416z" />
<glyph unicode="*" horiz-adv-x="645" d="M57 993l213 109l-213 110l39 66l201 -131l-12 239h75l-12 -239l203 131l37 -66l-213 -110l213 -109l-37 -65l-203 131l12 -240h-75l12 240l-201 -131z" />
<glyph unicode="+" horiz-adv-x="892" d="M59 649v82h342v373h91v-373h342v-82h-342v-385h-91v385h-342z" />
<glyph unicode="," horiz-adv-x="446" d="M117 -201q49 33 82.5 87.5t38.5 101.5h-9q-8 -2 -12 -2q-37 0 -59.5 23.5t-22.5 60.5q0 35 24.5 60.5t61.5 25.5q41 0 71 -35t30 -94q0 -82 -41 -158t-105 -119z" />
<glyph unicode="-" horiz-adv-x="544" d="M61 449v94h422v-94h-422z" />
<glyph unicode="." horiz-adv-x="446" d="M135 70q0 35 26.5 60.5t61.5 25.5q37 0 62.5 -26t25.5 -60q0 -37 -25.5 -62.5t-62.5 -25.5q-35 0 -61.5 25.5t-26.5 62.5z" />
<glyph unicode="/" horiz-adv-x="481" d="M0 -41l393 1448h88l-393 -1448h-88z" />
<glyph unicode="0" horiz-adv-x="1028" d="M109 682q0 129 20.5 247t65.5 224.5t128 169.5t193.5 63t192.5 -63t126 -169.5t64.5 -224.5t20.5 -247t-20.5 -246t-64.5 -224.5t-126 -172t-192.5 -64.5t-193.5 64.5t-128 171t-65.5 224.5t-20.5 247zM227 682q0 -113 12.5 -210t43 -190.5t90 -147.5t143.5 -54 q82 0 140.5 54t88 147.5t43 190.5t13.5 210t-12.5 210t-42 190.5t-89 146.5t-141.5 53q-84 0 -143.5 -53t-89 -146.5t-43 -190.5t-13.5 -210z" />
<glyph unicode="1" horiz-adv-x="589" d="M37 1057l295 309h102v-1366h-112v1212l-213 -231z" />
<glyph unicode="2" horiz-adv-x="976" d="M109 1169q129 217 372 217q147 0 250 -94t103 -260q0 -154 -100.5 -314.5t-385.5 -518.5l-76 -97h566v-102h-723v96l120 147l106 131l89 110l81 104l63 87q38 52 55 82l38 71q22 42 30 72t14 63.5t6 66.5q0 119 -69.5 185.5t-168.5 66.5q-193 0 -286 -178z" />
<glyph unicode="3" horiz-adv-x="935" d="M66 205l86 63q100 -188 290 -188q129 0 198 78t69 215q0 147 -80 212.5t-201 65.5q-82 0 -98 -2v109q18 -2 98 -2q115 0 189.5 66.5t74.5 191.5q0 131 -68.5 199.5t-181.5 68.5q-164 0 -278 -172l-82 64q59 98 154.5 155t209.5 57q158 0 259.5 -93t101.5 -267 q0 -123 -70.5 -210t-167.5 -109q96 -16 176 -108.5t80 -231.5q0 -174 -99 -283t-280 -109q-131 0 -229 65t-151 165z" />
<glyph unicode="4" horiz-adv-x="901" d="M49 375v104l500 887h147v-889h156v-102h-156v-375h-112v375h-535zM158 477h426v756z" />
<glyph unicode="5" horiz-adv-x="976" d="M119 203l84 65q98 -188 291 -188q115 0 188.5 97t73.5 235q0 162 -69 249t-185 87q-145 0 -256 -134l-88 37v715h645v-102h-533v-535q98 121 256 121q152 0 249 -114.5t97 -321.5q0 -188 -107.5 -313.5t-268.5 -125.5q-139 0 -227.5 58.5t-149.5 169.5z" />
<glyph unicode="6" horiz-adv-x="978" d="M109 682q0 137 22.5 258t69.5 224.5t133 162.5t201 59q203 0 305 -180l-72 -76q-84 152 -233 152q-84 0 -147.5 -54t-97.5 -145.5t-49.5 -193t-15.5 -211.5v-49q41 86 124 150.5t183 64.5q154 0 251.5 -111.5t97.5 -322.5q0 -176 -97.5 -305.5t-271.5 -129.5 q-113 0 -193.5 58.5t-124.5 162t-64.5 223.5t-20.5 263zM229 506q4 -72 18.5 -138.5t44.5 -135t86 -110.5t130 -42q125 0 190.5 98t65.5 230q0 172 -69.5 252.5t-184.5 80.5q-88 0 -162 -67.5t-119 -167.5z" />
<glyph unicode="7" horiz-adv-x="827" d="M57 1264v102h713v-78l-442 -1288h-123l436 1264h-584z" />
<glyph unicode="8" horiz-adv-x="964" d="M104 332q0 129 83 229.5t194 143.5q-104 39 -181 127t-77 210q0 164 105.5 254t254.5 90q147 0 253 -90t106 -254q0 -123 -77 -211t-179 -126q109 -43 191.5 -142.5t82.5 -228.5q0 -164 -104.5 -261.5t-272.5 -97.5q-172 0 -275.5 97.5t-103.5 259.5zM221 342 q0 -121 75 -191.5t187 -70.5q109 0 184.5 70.5t75.5 191.5q0 72 -31.5 134.5t-77.5 98t-86 57t-65 25.5q-72 -10 -167 -96t-95 -219zM240 1032q0 -66 29.5 -121t73.5 -86.5t79 -49t61 -23.5q27 6 62 23.5t78 49t72.5 87t29.5 120.5q0 115 -66.5 182.5t-175.5 67.5 q-111 0 -177 -67.5t-66 -182.5z" />
<glyph unicode="9" horiz-adv-x="978" d="M98 954q0 176 98.5 305.5t272.5 129.5q111 0 192.5 -58.5t124.5 -162t63.5 -224.5t20.5 -262q0 -139 -22.5 -259t-69.5 -223.5t-133 -163t-201 -59.5q-201 0 -305 181l72 75q84 -152 233 -151q86 0 149.5 54t96.5 145.5t48.5 191.5t15.5 213v49q-39 -84 -122 -149.5 t-186 -65.5q-154 0 -251 112.5t-97 321.5zM215 956q0 -172 69.5 -252.5t184.5 -80.5q88 0 163 67.5t118 167.5q-4 72 -18.5 138.5t-44.5 135t-85 110.5t-129 42q-127 0 -192.5 -98.5t-65.5 -229.5z" />
<glyph unicode=":" horiz-adv-x="444" d="M135 70q0 35 26.5 60.5t61.5 25.5q37 0 62.5 -26t25.5 -60q0 -37 -25.5 -62.5t-62.5 -25.5q-35 0 -61.5 25.5t-26.5 62.5zM135 915.5q0 34.5 26.5 61.5t61.5 27q37 0 62.5 -27t25.5 -61.5t-25.5 -61.5t-62.5 -27q-35 0 -61.5 27t-26.5 61.5z" />
<glyph unicode=";" horiz-adv-x="446" d="M117 -199q49 33 82.5 87.5t38.5 101.5l-9 -2h-12q-37 0 -59.5 23.5t-22.5 60.5q0 35 24.5 60.5t61.5 25.5q41 0 71 -35t30 -96q0 -82 -41 -157t-105 -118zM135 915.5q0 34.5 26.5 61.5t61.5 27q37 0 62.5 -27t25.5 -61.5t-25.5 -61.5t-62.5 -27q-35 0 -61.5 27 t-26.5 61.5z" />
<glyph unicode="&#x3c;" horiz-adv-x="892" d="M59 647v76l775 389v-98l-668 -330l668 -326v-98z" />
<glyph unicode="=" horiz-adv-x="892" d="M59 442v82h775v-82h-775zM59 844v82h775v-82h-775z" />
<glyph unicode="&#x3e;" horiz-adv-x="892" d="M59 260v98l670 326l-670 330v98l775 -389v-76z" />
<glyph unicode="?" horiz-adv-x="790" d="M66 1233q125 154 329 153q147 0 238.5 -87t91.5 -214q0 -82 -34 -150.5t-82 -115.5l-96 -90q-48 -43 -82 -96t-34 -113q0 -68 52 -108l-84 -52q-72 72 -72 166q0 72 32.5 131.5t78.5 102.5l93 86q46 43 78.5 100.5t32.5 126.5q0 86 -60.5 148.5t-162.5 62.5 q-154 0 -254 -127zM301 70q0 35 26.5 60.5t61.5 25.5q37 0 62.5 -26t25.5 -60q0 -37 -25.5 -62.5t-62.5 -25.5q-35 0 -61.5 25.5t-26.5 62.5z" />
<glyph unicode="@" horiz-adv-x="1400" d="M72 471q0 332 222 584t515 252q231 0 375.5 -162t144.5 -420q0 -242 -94 -396.5t-215 -154.5q-72 0 -116 46t-46 114l-2 12q-49 -74 -120.5 -123t-155.5 -49q-109 0 -178.5 75t-69.5 214q0 217 128 389t302 172q78 0 130 -46t75 -116l26 125h97l-123 -584q-4 -20 -4 -43 q0 -104 81 -104q29 0 65 28.5t72 82t59.5 148.5t23.5 212q0 233 -127 373.5t-332 140.5q-174 0 -330 -110.5t-246 -287.5t-90 -370q0 -246 139.5 -399.5t356.5 -153.5q170 0 328 117l32 -51q-174 -129 -368 -129q-244 0 -399.5 172t-155.5 442zM436 469q0 -98 43 -155.5 t123 -57.5q145 0 275 195l69 327q-16 66 -60 114t-114 48q-141 0 -238.5 -150.5t-97.5 -320.5z" />
<glyph unicode="A" horiz-adv-x="1009" d="M25 0l411 1366h137l412 -1366h-125l-98 338h-514l-98 -338h-125zM272 440h465l-231 793z" />
<glyph unicode="B" horiz-adv-x="1019" d="M154 0v1366h405q152 0 240 -93t88 -255q0 -125 -57.5 -206t-147.5 -107q96 -14 161.5 -113.5t65.5 -222.5q0 -172 -88 -270.5t-252 -98.5h-415zM268 102h283q117 0 178.5 73t61.5 202q0 115 -61.5 193.5t-178.5 78.5h-283v-547zM268 752h275q113 0 169 70.5t56 185.5 q0 113 -56.5 184.5t-168.5 71.5h-275v-512z" />
<glyph unicode="C" horiz-adv-x="1071" d="M109 682q0 311 139 509t370 198q240 0 379 -240l-96 -49q-100 184 -283 184q-174 0 -281.5 -169t-107.5 -433q0 -262 107.5 -432t281.5 -170q186 0 285 205l96 -49q-137 -260 -381 -261q-231 0 -370 198t-139 509z" />
<glyph unicode="D" horiz-adv-x="1126" d="M154 0v1366h331q252 0 392.5 -192.5t140.5 -491.5q0 -301 -140.5 -491.5t-392.5 -190.5h-331zM268 102h217q199 0 305.5 162t106.5 418t-106.5 419t-305.5 163h-217v-1162z" />
<glyph unicode="E" horiz-adv-x="927" d="M154 0v1366h667v-102h-553v-512h539v-103h-539v-547h553v-102h-667z" />
<glyph unicode="F" horiz-adv-x="903" d="M154 0v1366h667v-102h-553v-512h539v-103h-539v-649h-114z" />
<glyph unicode="G" horiz-adv-x="1132" d="M109 682q0 317 140 512t369 195q244 0 388 -236l-93 -49q-104 180 -295 180q-176 0 -282.5 -168t-106.5 -434t107.5 -435t281.5 -169q178 0 281 131v364h-358v105h467v-512q-141 -190 -390 -191q-229 0 -369 196t-140 511z" />
<glyph unicode="H" horiz-adv-x="1146" d="M154 0v1366h114v-612h611v612h114v-1366h-114v651h-611v-651h-114z" />
<glyph unicode="I" horiz-adv-x="421" d="M154 0v1366h114v-1366h-114z" />
<glyph unicode="J" horiz-adv-x="798" d="M20 111l64 88q82 -119 213 -119q111 0 172 66.5t61 187.5v1032h115v-1034q0 -176 -94 -266.5t-248 -90.5q-177 1 -283 136z" />
<glyph unicode="K" horiz-adv-x="1005" d="M154 0v1366h114v-745l518 745h140l-467 -651l508 -715h-140l-436 633l-123 -174v-459h-114z" />
<glyph unicode="L" horiz-adv-x="823" d="M139 0v1366h115v-1264h510v-102h-625z" />
<glyph unicode="M" horiz-adv-x="1355" d="M154 0v1366h165l359 -1094l358 1094h166v-1366h-115v1188l-387 -1188h-45l-387 1188v-1188h-114z" />
<glyph unicode="N" horiz-adv-x="1142" d="M154 0v1366h114l606 -1112v1112h115v-1366h-110l-611 1128v-1128h-114z" />
<glyph unicode="O" horiz-adv-x="1208" d="M109 682q0 305 131 506t364.5 201t365.5 -201t132 -506t-132 -506t-365.5 -201t-364.5 201t-131 506zM229 682q0 -260 99.5 -431t275.5 -171t276.5 171t100.5 431q0 262 -100.5 432t-276.5 170t-275.5 -170t-99.5 -432z" />
<glyph unicode="P" horiz-adv-x="958" d="M154 0v1366h376q170 0 264.5 -114.5t94.5 -284.5q0 -168 -94.5 -283t-264.5 -115h-262v-569h-114zM268 672h254q115 0 181.5 82t66.5 215q0 131 -66.5 213t-181.5 82h-254v-592z" />
<glyph unicode="Q" horiz-adv-x="1208" d="M109 682q0 305 131 506t364.5 201t365.5 -201t132 -506q0 -365 -176 -563l84 -127l-84 -55l-78 114q-104 -76 -244 -76q-233 0 -364 201t-131 506zM229 682q0 -260 99.5 -431t275.5 -171q102 0 184 63l-174 265l86 53l160 -242q121 172 121 463q0 262 -100.5 432 t-276.5 170t-275.5 -170t-99.5 -432z" />
<glyph unicode="R" horiz-adv-x="1005" d="M154 0v1366h378q158 0 258.5 -106.5t100.5 -290.5q0 -172 -84 -271.5t-205 -113.5l303 -584h-133l-285 569h-219v-569h-114zM268 672h254q115 0 181.5 82t66.5 215q0 131 -66.5 213t-181.5 82h-254v-592z" />
<glyph unicode="S" horiz-adv-x="940" d="M72 145l69 88q121 -154 314 -153q137 0 206.5 73.5t69.5 180.5q0 86 -46 151.5t-115 102.5l-149 81q-81 44 -149.5 85t-114.5 116.5t-46 176.5q0 152 105.5 247t262.5 95q213 0 342 -142l-65 -86q-102 123 -279 123q-104 0 -176 -64.5t-72 -168.5q0 -74 46.5 -132.5 t114.5 -93.5l149 -79q80 -44 148.5 -90t114.5 -128t46 -188q0 -152 -99.5 -258.5t-293.5 -106.5q-240 0 -383 170z" />
<glyph unicode="T" horiz-adv-x="890" d="M55 1264v102h783v-102h-336v-1264h-115v1264h-332z" />
<glyph unicode="U" horiz-adv-x="1130" d="M154 430v936h114v-936q0 -174 77 -263t220.5 -89t220 89t76.5 263v936h115v-936q0 -219 -107.5 -337t-304 -118t-304 118t-107.5 337z" />
<glyph unicode="V" horiz-adv-x="1009" d="M25 1366h125l356 -1225l354 1225h125l-412 -1366h-137z" />
<glyph unicode="W" horiz-adv-x="1421" d="M41 1366h123l246 -1182l249 1182h103l250 -1182l245 1182h123l-301 -1366h-127l-241 1149l-244 -1149h-125z" />
<glyph unicode="X" horiz-adv-x="1009" d="M25 0l411 696l-389 670h137l320 -569l321 569h136l-390 -668l412 -698h-133l-346 600l-344 -600h-135z" />
<glyph unicode="Y" horiz-adv-x="989" d="M16 1366h131l349 -666l348 666h129l-420 -780v-586h-115v586z" />
<glyph unicode="Z" horiz-adv-x="927" d="M86 0v100l608 1164h-608v102h741v-98l-610 -1166h625v-102h-756z" />
<glyph unicode="[" horiz-adv-x="409" d="M74 -389v1778h301v-86h-213v-1606h213v-86h-301z" />
<glyph unicode="\" horiz-adv-x="481" d="M0 1407h90l393 -1448h-90z" />
<glyph unicode="]" horiz-adv-x="409" d="M35 -303h213v1606h-213v86h301v-1778h-301v86z" />
<glyph unicode="^" horiz-adv-x="772" d="M39 682l307 684h82l305 -684h-92l-254 596l-254 -596h-94z" />
<glyph unicode="_" horiz-adv-x="864" d="M-6 -82h876v-86h-876v86z" />
<glyph unicode="`" horiz-adv-x="356" d="M0 1434h119l237 -295h-80z" />
<glyph unicode="&#x2cb;" horiz-adv-x="356" d="M0 1434h119l237 -295h-80z" />
<glyph unicode="a" horiz-adv-x="901" d="M94 305q0 150 86 239t211 89q166 0 262 -133v194q0 111 -55 170.5t-156 59.5q-143 0 -252 -129l-53 73q131 145 316 146q145 0 225 -78t80 -231v-705h-105v113q-96 -137 -262 -138q-125 0 -211 91.5t-86 238.5zM203 303.5q0 -104.5 58 -175.5t159 -71q158 0 233 136v221 q-76 137 -233 137q-100 0 -158.5 -71.5t-58.5 -176z" />
<glyph unicode="b" d="M145 0v1366h103v-528q45 84 115.5 130t150.5 46q164 0 257 -143.5t93 -376.5q0 -236 -93 -377.5t-257 -141.5q-80 0 -150.5 47.5t-115.5 124.5v-147h-103zM248 250q33 -76 101.5 -129t146.5 -53q125 0 191.5 120.5t66.5 305t-66.5 306.5t-191.5 122q-76 0 -145.5 -54.5 t-102.5 -130.5v-487z" />
<glyph unicode="c" horiz-adv-x="819" d="M98 495.5q0 223.5 105.5 371t285.5 147.5q160 0 269 -129l-62 -72q-80 109 -198 109q-137 0 -213 -123t-76 -303q0 -182 75.5 -305t213.5 -123q119 0 198 108l62 -72q-102 -129 -269 -129q-180 0 -285.5 148.5t-105.5 372z" />
<glyph unicode="d" d="M98 494q0 233 93.5 376.5t257.5 143.5q172 0 264 -176v528h104v-1366h-104v147q-43 -76 -115 -124t-149 -48q-164 0 -257.5 141.5t-93.5 377.5zM209 493.5q0 -186.5 65.5 -306t192.5 -119.5q76 0 144.5 53t101.5 129v487q-33 74 -101.5 129.5t-144.5 55.5 q-127 0 -192.5 -121t-65.5 -307.5z" />
<glyph unicode="e" horiz-adv-x="950" d="M98 496q0 221 104.5 369.5t278.5 148.5q184 0 280.5 -147.5t96.5 -372.5v-33h-649q4 -174 85 -286t218 -112q147 0 246 136l61 -62q-125 -162 -311 -162q-190 0 -300 145t-110 376zM209 543h543q0 147 -69 265t-204 118q-90 0 -153.5 -63.5t-89 -146.5t-27.5 -173z" />
<glyph unicode="f" horiz-adv-x="489" d="M45 897v92h131v139q0 121 60.5 189.5t166.5 68.5q96 0 158 -61l-47 -80q-43 49 -100 49q-133 0 -133 -166v-139h170v-92h-170v-897h-105v897h-131z" />
<glyph unicode="g" d="M98 495.5q0 233.5 93.5 376t257.5 142.5q172 0 264 -176v151h104v-1016q0 -195 -99.5 -284.5t-262.5 -89.5q-195 0 -318 125l56 86q98 -119 260 -119q117 0 188.5 70.5t71.5 211.5v183q-43 -78 -115 -127t-149 -49q-164 0 -257.5 141t-93.5 374.5zM209 496 q0 -184 65.5 -303t192.5 -119q76 0 144.5 54t101.5 128v481q-33 74 -101.5 129.5t-144.5 55.5q-127 0 -192.5 -120t-65.5 -306z" />
<glyph unicode="h" horiz-adv-x="921" d="M145 0v1366h103v-522q47 72 126 121t161 49q123 0 183 -63.5t60 -200.5v-750h-104v729q0 193 -170 193q-74 0 -145.5 -51.5t-110.5 -122.5v-748h-103z" />
<glyph unicode="i" horiz-adv-x="393" d="M117 1224.5q0 32.5 23.5 56.5t56 24t56 -24t23.5 -56.5t-23.5 -56t-56 -23.5t-56 23.5t-23.5 56zM145 0v989h103v-989h-103z" />
<glyph unicode="j" horiz-adv-x="393" d="M-129 -328l51 76q43 -57 103 -57q121 0 120 162v1136h103v-1136q0 -254 -217 -254q-99 -1 -160 73zM117 1224.5q0 32.5 23.5 56.5t56 24t56 -24t23.5 -56.5t-23.5 -56t-56 -23.5t-56 23.5t-23.5 56z" />
<glyph unicode="k" horiz-adv-x="870" d="M145 0v1366h103v-952l461 575h122l-358 -446l356 -543h-124l-302 471l-155 -192v-279h-103z" />
<glyph unicode="l" horiz-adv-x="393" d="M145 0v1366h103v-1366h-103z" />
<glyph unicode="m" horiz-adv-x="1372" d="M145 0v989h103v-145q37 63 111.5 116.5t156.5 53.5q94 0 149.5 -49.5t65.5 -128.5q39 74 116 126t159 52q221 0 221 -256v-758h-105v737q0 184 -149 185q-66 0 -133.5 -51.5t-102.5 -122.5v-748h-104v737q0 184 -150 185q-68 0 -132 -51.5t-103 -122.5v-748h-103z" />
<glyph unicode="n" horiz-adv-x="921" d="M145 0v989h103v-145q47 72 126 121t161 49q244 0 243 -266v-748h-104v725q0 197 -170 197q-74 0 -145.5 -51.5t-110.5 -122.5v-748h-103z" />
<glyph unicode="o" d="M98 495.5q0 221.5 100.5 370t283 148.5t282.5 -148.5t100 -370t-101 -371t-281.5 -149.5t-282 149.5t-101.5 371zM209 495.5q0 -176.5 69.5 -302t202.5 -125.5t203 124.5t70 303.5q0 176 -70 301t-203 125t-202.5 -125t-69.5 -301.5z" />
<glyph unicode="p" horiz-adv-x="958" d="M145 -377v1366h103v-147q45 78 115.5 125t150.5 47q164 0 257 -141.5t93 -376.5q0 -233 -93 -377t-257 -144q-80 0 -150.5 46.5t-115.5 130.5v-529h-103zM248 252q33 -76 102.5 -130t145.5 -54q125 0 191.5 121.5t66.5 306t-66.5 305.5t-191.5 121q-78 0 -146.5 -53.5 t-101.5 -127.5v-489z" />
<glyph unicode="q" horiz-adv-x="958" d="M94 496q0 236 93.5 377t256.5 141q80 0 151 -47t114 -125v147h104v-1366h-104v529q-92 -176 -265 -177q-164 0 -257 144t-93 377zM205 495.5q0 -184.5 66.5 -306t191.5 -121.5q76 0 145.5 55t100.5 129v489q-31 74 -100.5 127.5t-145.5 53.5q-125 0 -191.5 -121 t-66.5 -305.5z" />
<glyph unicode="r" horiz-adv-x="569" d="M145 0v989h103v-168q115 188 284 189v-113q-14 2 -45 2q-68 0 -137 -54t-102 -124v-721h-103z" />
<glyph unicode="s" horiz-adv-x="772" d="M66 115l59 73q96 -125 252 -125q94 0 151.5 50.5t57.5 132.5q0 72 -51.5 120t-122.5 78l-145 65q-73 34 -124 97.5t-51 155.5q0 109 81 180.5t214 71.5q180 0 283 -127l-56 -72q-76 111 -227 111q-88 0 -141 -46t-53 -116q0 -66 51 -111t123.5 -74.5t145.5 -64.5 t124 -102.5t51 -163.5q0 -121 -84 -197t-225 -76q-198 1 -313 140z" />
<glyph unicode="t" horiz-adv-x="507" d="M35 897v92h135v271h102v-271h170v-92h-170v-702q0 -127 86 -127q55 0 91 45l40 -78q-59 -59 -147 -60q-172 0 -172 207v715h-135z" />
<glyph unicode="u" horiz-adv-x="921" d="M145 240v749h103v-727q0 -195 172 -194q76 0 145.5 49t108.5 121v751h104v-989h-104v141q-51 -72 -127 -119t-160 -47q-123 0 -182.5 64t-59.5 201z" />
<glyph unicode="v" horiz-adv-x="802" d="M20 989h115l266 -866l269 866h112l-323 -989h-117z" />
<glyph unicode="w" horiz-adv-x="1263" d="M35 989h110l211 -842l226 842h98l225 -842l213 842h111l-266 -989h-103l-229 846l-228 -846h-102z" />
<glyph unicode="x" horiz-adv-x="804" d="M35 0l305 504l-289 485h119l233 -405l232 405h119l-289 -485l307 -504h-119l-250 426l-251 -426h-117z" />
<glyph unicode="y" horiz-adv-x="802" d="M20 989h115l266 -862l269 862h112l-399 -1214q-59 -176 -211 -176q-53 0 -90 14l18 94q29 -16 66 -16q43 0 70.5 24.5t50.5 87.5l59 177z" />
<glyph unicode="z" horiz-adv-x="776" d="M96 0v86l453 811h-453v92h578v-84l-455 -813h463v-92h-586z" />
<glyph unicode="{" horiz-adv-x="454" d="M12 461v78q51 0 79 42t28 103v477q0 100 61.5 164t143.5 64h96v-86h-96q-49 0 -82 -40t-33 -102v-481q0 -139 -94 -180q94 -41 94 -181v-481q0 -61 32.5 -101t82.5 -40h96v-86h-96q-82 0 -143.5 63.5t-61.5 163.5v477q0 61 -28 103.5t-79 42.5z" />
<glyph unicode="|" horiz-adv-x="393" d="M154 -41v1448h86v-1448h-86z" />
<glyph unicode="}" horiz-adv-x="454" d="M35 -303h94q49 0 83 40t34 101v481q0 141 92 181q-92 39 -92 180v481q0 61 -34 101.5t-83 40.5h-94v86h94q82 0 143.5 -63.5t61.5 -164.5v-477q0 -61 27.5 -103t78.5 -42v-78q-51 0 -78.5 -42t-27.5 -104v-477q0 -100 -61.5 -163.5t-143.5 -63.5h-94v86z" />
<glyph unicode="~" horiz-adv-x="907" d="M57 887q8 98 20.5 170.5t39 147.5t73 116t109.5 41q76 0 122 -63.5t61.5 -138.5t46 -138.5t79.5 -63.5q68 0 101.5 98.5t54.5 309.5l86 -8q-8 -98 -20.5 -172t-39 -149.5t-72.5 -116.5t-110 -41q-61 0 -103 41t-61.5 100t-36 118.5t-42 100.5t-66.5 41 q-68 0 -101.5 -97.5t-54.5 -308.5z" />
<glyph unicode="&#xa1;" horiz-adv-x="446" d="M135 920q0 37 25.5 62.5t62.5 25.5t62.5 -26t25.5 -62q0 -35 -25.5 -60.5t-62.5 -25.5t-62.5 25.5t-25.5 60.5zM156 -377l26 1012h82l27 -1012h-135z" />
<glyph unicode="&#xa2;" horiz-adv-x="819" d="M98 496q0 201 86 342t238 170v149h90v-143q145 -8 246 -129l-62 -72q-76 102 -184 109v-854q111 6 184 108l62 -72q-94 -121 -246 -129v-180h-90v187q-152 27 -238 169t-86 345zM209 496q0 -154 55 -268.5t158 -147.5v829q-102 -33 -157.5 -147t-55.5 -266z" />
<glyph unicode="&#xa3;" horiz-adv-x="886" d="M49 633h205l-29 40q-23 32 -30 45l-28 43q-19 30 -27 51l-18 53q-11 32 -15.5 65t-4.5 69q0 158 103.5 272.5t263.5 114.5q113 0 199 -58t125 -161l-93 -51q-25 72 -84 122t-141 50q-104 0 -178 -79t-74 -212q0 -61 17.5 -117.5t36 -88t54.5 -83t50 -75.5h233v-84h-194 q18 -49 18 -113q0 -176 -153 -299q47 20 94 21q59 0 137 -40t125 -40q51 0 99 23.5t69 54.5l51 -90q-33 -39 -95.5 -66t-129.5 -27q-82 0 -160 45t-137 45q-80 0 -199 -77l-45 92q113 59 176.5 151.5t63.5 190.5q0 61 -29 129h-256v84z" />
<glyph unicode="&#xa4;" horiz-adv-x="1069" d="M74 281l114 114q-102 129 -102 287q0 162 102 287l-114 116l57 58l117 -115q121 102 287 102q162 0 286 -102l115 115l59 -58l-114 -116q102 -125 102 -287q0 -158 -102 -287l114 -114l-59 -60l-115 117q-123 -104 -286.5 -104.5t-286.5 104.5l-117 -117zM184 682 q0 -145 102.5 -247.5t248 -102.5t248 102.5t102.5 247.5t-102.5 247.5t-248 102.5t-248 -102.5t-102.5 -247.5z" />
<glyph unicode="&#xa5;" horiz-adv-x="989" d="M16 1366h131l349 -666l348 666h129l-377 -698h350v-82h-393v-246h393v-82h-393v-258h-115v258h-395v82h395v246h-395v82h350z" />
<glyph unicode="&#xa6;" horiz-adv-x="393" d="M154 -41v647h86v-647h-86zM154 760v647h86v-647h-86z" />
<glyph unicode="&#xa7;" horiz-adv-x="774" d="M66 -25l59 70q100 -127 252 -127q90 0 149.5 52.5t59.5 133.5q0 72 -51.5 122t-122.5 81l-145 65q-73 34 -124 96t-51 155q0 90 58.5 155.5t154.5 85.5q-111 57 -162 121t-51 152q0 109 80 179t209 70q182 0 289 -126l-58 -66q-88 111 -227 111q-84 0 -138 -47.5 t-54 -120.5q0 -68 51 -114t123.5 -75.5t145.5 -64.5t124 -101.5t51 -163.5q0 -174 -174 -245q174 -104 174 -267q0 -121 -86 -196.5t-223 -75.5q-109 0 -180.5 35.5t-132.5 105.5zM190 631q0 -76 57.5 -121t184.5 -100q156 72 156 198q0 45 -16.5 82t-49.5 62.5t-59.5 41 t-65.5 31.5q-207 -47 -207 -194z" />
<glyph unicode="&#xa8;" horiz-adv-x="532" d="M18 1231q0 31 22.5 52.5t53.5 21.5t52.5 -21.5t21.5 -52.5t-21.5 -53.5t-52.5 -22.5t-53.5 22.5t-22.5 53.5zM362 1231q0 31 23 52.5t53.5 21.5t53 -21.5t22.5 -52.5t-22.5 -53.5t-53 -22.5t-53.5 22.5t-23 53.5z" />
<glyph unicode="&#xa9;" horiz-adv-x="1593" d="M90 684q0 293 207 500t500 207t499.5 -207t206.5 -500t-206.5 -500t-499.5 -207t-500 208t-207 499zM147 684q0 -266 190.5 -457.5t459 -191.5t459 191.5t190.5 457.5t-190.5 457.5t-459 191.5t-459 -191.5t-190.5 -457.5zM373 686q0 188 124 313t304 125q182 0 295 -133 l-45 -45q-39 53 -108 85t-142 32q-147 0 -254 -105.5t-107 -271.5q0 -162 107.5 -270.5t253.5 -108.5q74 0 141.5 33t108.5 86l45 -45q-117 -135 -295 -135t-303 128t-125 312z" />
<glyph unicode="&#xaa;" horiz-adv-x="661" d="M78 866.5q0 96.5 58.5 153.5t142.5 57q115 0 182 -86v123q0 70 -40 105.5t-104 35.5q-100 0 -170 -88l-41 62q92 98 224 98q215 0 215 -223v-436h-84v71q-68 -88 -182 -88q-84 0 -142.5 59.5t-58.5 156zM164 866q0 -68 38 -110.5t103 -42.5q104 0 156 86v133 q-51 86 -156 86q-63 0 -102 -43t-39 -109z" />
<glyph unicode="&#xab;" horiz-adv-x="716" d="M61 498l256 362h105l-256 -362l256 -369h-105zM295 498l256 362h104l-256 -362l256 -369h-104z" />
<glyph unicode="&#xac;" horiz-adv-x="894" d="M59 844v82h775v-484h-86v402h-689z" />
<glyph unicode="&#xad;" horiz-adv-x="544" d="M61 449v94h422v-94h-422z" />
<glyph unicode="&#xae;" horiz-adv-x="1011" d="M72 952.5q0 180.5 127 307t307 126.5q182 0 308 -125.5t126 -308.5q0 -180 -127 -307t-307 -127t-307 127t-127 307.5zM127 952q0 -156 111.5 -267.5t267.5 -111.5t267.5 112t111.5 267q0 158 -110.5 268.5t-268.5 110.5t-268.5 -110.5t-110.5 -268.5zM342 702v498h203 q66 0 109.5 -42t43.5 -109q0 -72 -46 -110t-81 -38l134 -199h-78l-129 197h-95v-197h-61zM403 958h142q33 0 61.5 27t28.5 64q0 39 -27.5 66.5t-62.5 27.5h-142v-185z" />
<glyph unicode="&#xaf;" horiz-adv-x="622" d="M0 1210v76h623v-76h-623z" />
<glyph unicode="&#x203e;" horiz-adv-x="622" d="M0 1210v76h623v-76h-623z" />
<glyph unicode="&#xb0;" horiz-adv-x="575" d="M51 1149q0 98 68.5 167.5t167 69.5t168 -69.5t69.5 -167.5t-69.5 -168t-168 -70t-167 70t-68.5 168zM129 1148.5q0 -65.5 46 -111.5t111.5 -46t112.5 46t47 112q0 63 -47 111.5t-112 48.5q-63 0 -110.5 -47.5t-47.5 -113z" />
<glyph unicode="&#xb1;" horiz-adv-x="892" d="M59 53v82h775v-82h-775zM59 655v82h342v373h91v-373h342v-82h-342v-385h-91v385h-342z" />
<glyph unicode="&#xb2;" horiz-adv-x="653" d="M84 1565q84 129 248 129q100 0 168.5 -58.5t68.5 -162.5q0 -43 -18.5 -92.5t-40 -86.5t-79.5 -107.5t-94 -109.5l-130 -139h366v-76h-487v70q260 272 320 352q74 102 73 186q0 70 -44 109t-107 39q-127 0 -187 -107z" />
<glyph unicode="&#xb3;" horiz-adv-x="653" d="M70 983l59 53q68 -113 193 -112q80 0 122.5 44t42.5 119q0 84 -51 122t-129 38q-53 0 -63 -2v76q10 -2 61 -2q76 0 123 38t47 111q0 72 -43 111t-113 39q-113 0 -182 -102l-57 51q86 127 244 127q106 0 173.5 -56.5t67.5 -160.5q0 -76 -47 -126.5t-108 -64.5 q61 -8 114.5 -63.5t53.5 -139.5q0 -104 -68 -169.5t-186 -65.5q-88 0 -153.5 38t-100.5 97z" />
<glyph unicode="&#xb4;" horiz-adv-x="356" d="M0 1139l238 295h118l-276 -295h-80z" />
<glyph unicode="&#xb5;" horiz-adv-x="921" d="M145 -377v1366h103v-727q0 -197 172 -196q76 0 145.5 50t108.5 122v751h104v-989h-104v141q-51 -72 -127 -119t-160 -47q-82 0 -139 29v-381h-103z" />
<glyph unicode="&#x3bc;" horiz-adv-x="921" d="M145 -377v1366h103v-727q0 -197 172 -196q76 0 145.5 50t108.5 122v751h104v-989h-104v141q-51 -72 -127 -119t-160 -47q-82 0 -139 29v-381h-103z" />
<glyph unicode="&#xb6;" horiz-adv-x="919" d="M55 1013.5q0 145.5 103.5 249t249.5 103.5h344v-1571h-76v1495h-193v-1495h-75v867q-145 0 -249 103t-104 248.5z" />
<glyph unicode="&#xb7;" horiz-adv-x="446" d="M135 502q0 35 26.5 60.5t61.5 25.5q37 0 62.5 -25.5t25.5 -60.5q0 -37 -25.5 -62.5t-62.5 -25.5q-35 0 -61.5 25.5t-26.5 62.5z" />
<glyph unicode="&#x2219;" horiz-adv-x="446" d="M135 502q0 35 26.5 60.5t61.5 25.5q37 0 62.5 -25.5t25.5 -60.5q0 -37 -25.5 -62.5t-62.5 -25.5q-35 0 -61.5 25.5t-26.5 62.5z" />
<glyph unicode="&#xb8;" horiz-adv-x="364" d="M0 -328l33 66q63 -57 141 -57q47 0 82 25.5t35 66.5q0 80 -74 80q-41 0 -72 -35l-55 32l64 173h75l-53 -140q29 23 68 23q51 0 86 -37t35 -96q0 -70 -54.5 -115t-136.5 -45q-104 0 -174 59z" />
<glyph unicode="&#xb9;" horiz-adv-x="425" d="M35 1483l192 198h80v-819h-90v701l-129 -138z" />
<glyph unicode="&#xba;" horiz-adv-x="702" d="M80 989.5q0 143.5 72.5 240.5t197.5 97q127 0 200 -96t73 -242q0 -143 -73 -240.5t-200 -97.5q-125 0 -197.5 97.5t-72.5 241zM170 989.5q0 -112.5 46 -188.5t134 -76t135 76t47 188.5t-47 187t-135 74.5t-134 -74.5t-46 -187z" />
<glyph unicode="&#xbb;" horiz-adv-x="716" d="M61 129l256 369l-256 362h105l256 -362l-256 -369h-105zM295 129l256 369l-256 362h104l256 -362l-256 -369h-104z" />
<glyph unicode="&#xbc;" horiz-adv-x="1318" d="M35 1167l192 199h80v-819h-90v700l-129 -137zM217 0l715 1366h84l-715 -1366h-84zM729 219v74l315 526h115v-524h101v-76h-101v-219h-88v219h-342zM813 295h258v430z" />
<glyph unicode="&#xbd;" horiz-adv-x="1390" d="M35 1167l192 199h80v-819h-90v700l-129 -137zM217 0l715 1366h84l-715 -1366h-84zM821 702q84 129 248 129q100 0 169 -58t69 -163q0 -43 -18.5 -92t-40 -86t-80 -107.5t-94.5 -109.5l-130 -139h367v-76h-488v70q260 272 320 352q74 102 74 186q0 70 -44.5 109t-107.5 39 q-127 0 -186 -107z" />
<glyph unicode="&#xbe;" horiz-adv-x="1476" d="M70 668l59 53q68 -113 193 -113q80 0 122.5 44t42.5 120q0 84 -51 122t-129 38q-53 0 -63 -2v76q10 -2 61 -2q76 0 123 37.5t47 111.5q0 72 -43 111t-113 39q-113 0 -182 -103l-57 51q86 127 244 127q106 0 173.5 -56t67.5 -161q0 -76 -47 -126t-108 -64 q61 -8 114.5 -63.5t53.5 -139.5q0 -104 -68 -170t-186 -66q-88 0 -153.5 38.5t-100.5 97.5zM375 0l715 1366h84l-715 -1366h-84zM887 219v74l315 526h115v-524h100v-76h-100v-219h-88v219h-342zM971 295h258v430z" />
<glyph unicode="&#xbf;" horiz-adv-x="671" d="M66 -102q0 82 33.5 150.5t81.5 115.5t97.5 90t83 96t33.5 113q0 68 -53 110l84 50q72 -66 72 -164q0 -72 -33 -131.5t-79 -103.5l-92 -86q-46 -42 -79 -100t-33 -128q0 -86 60.5 -148.5t163.5 -62.5q154 0 256 129l63 -78q-125 -154 -330 -153q-147 0 -238 87t-91 214z M313 920q0 37 27 62.5t61 25.5q37 0 62.5 -26t25.5 -62q0 -35 -25.5 -60.5t-62.5 -25.5q-35 0 -61.5 25.5t-26.5 60.5z" />
<glyph unicode="&#xc0;" horiz-adv-x="1009" d="M25 0l411 1366h137l412 -1366h-125l-98 338h-514l-98 -338h-125zM256 1786h119l237 -295h-80zM272 440h465l-231 793z" />
<glyph unicode="&#xc1;" horiz-adv-x="1009" d="M25 0l411 1366h137l412 -1366h-125l-98 338h-514l-98 -338h-125zM272 440h465l-231 793zM399 1491l238 295h119l-277 -295h-80z" />
<glyph unicode="&#xc2;" horiz-adv-x="1009" d="M25 0l411 1366h137l412 -1366h-125l-98 338h-514l-98 -338h-125zM272 440h465l-231 793zM283 1491l168 295h106l174 -295h-74l-153 229l-148 -229h-73z" />
<glyph unicode="&#xc3;" horiz-adv-x="1009" d="M25 0l411 1366h137l412 -1366h-125l-98 338h-514l-98 -338h-125zM240 1499q0 121 42 198t121 77q45 0 77 -33t46.5 -73t37 -72.5t50.5 -32.5q92 0 93 198h67q0 -121 -43 -197.5t-123 -76.5q-45 0 -75.5 32.5t-45 72.5t-37 73t-51.5 33q-92 0 -92 -199h-67zM272 440h465 l-231 793z" />
<glyph unicode="&#xc4;" horiz-adv-x="1009" d="M25 0l411 1366h137l412 -1366h-125l-98 338h-514l-98 -338h-125zM258 1575q0 31 22.5 52.5t53.5 21.5t52.5 -21.5t21.5 -52.5t-21.5 -53.5t-52.5 -22.5t-53.5 22.5t-22.5 53.5zM272 440h465l-231 793zM602 1575q0 31 22.5 52.5t53.5 21.5t53.5 -21.5t22.5 -52.5 t-22.5 -53.5t-53.5 -22.5t-53.5 22.5t-22.5 53.5z" />
<glyph unicode="&#xc5;" horiz-adv-x="1009" d="M25 0l411 1366h137l412 -1366h-125l-98 338h-514l-98 -338h-125zM272 440h465l-231 793zM326 1599q0 74 53 127.5t127 53.5t126 -53.5t52 -127.5q0 -76 -51 -129t-127 -53q-74 0 -127 53t-53 129zM389 1599q0 -49 35 -83.5t82 -34.5q49 0 83 34.5t34 83.5q0 47 -34 82 t-83 35q-47 0 -82 -35t-35 -82z" />
<glyph unicode="&#xc6;" horiz-adv-x="1507" d="M33 0l651 1366h713v-102h-553v-512h538v-103h-538v-547h553v-102h-668v338h-416l-155 -338h-125zM356 440h373v793z" />
<glyph unicode="&#xc7;" horiz-adv-x="1071" d="M109 682q0 311 139 509t370 198q240 0 379 -240l-96 -49q-100 184 -283 184q-174 0 -281.5 -169t-107.5 -433q0 -262 107.5 -432t281.5 -170q186 0 285 205l96 -49q-133 -248 -356 -259l-33 -86q29 23 68 23q51 0 86 -37t35 -96q0 -70 -54.5 -115t-136.5 -45 q-104 0 -174 60l33 65q63 -57 141 -57q47 0 82 25.5t35 66.5q0 80 -74 80q-41 0 -71 -35l-56 33l43 121q-209 20 -333.5 214.5t-124.5 487.5z" />
<glyph unicode="&#xc8;" horiz-adv-x="927" d="M154 0v1366h667v-102h-553v-512h539v-103h-539v-547h553v-102h-667zM242 1786h118l238 -295h-80z" />
<glyph unicode="&#xc9;" horiz-adv-x="927" d="M154 0v1366h667v-102h-553v-512h539v-103h-539v-547h553v-102h-667zM383 1491l238 295h118l-276 -295h-80z" />
<glyph unicode="&#xca;" horiz-adv-x="927" d="M154 0v1366h667v-102h-553v-512h539v-103h-539v-547h553v-102h-667zM266 1491l168 295h107l174 -295h-74l-154 229l-147 -229h-74z" />
<glyph unicode="&#xcb;" horiz-adv-x="927" d="M154 0v1366h667v-102h-553v-512h539v-103h-539v-547h553v-102h-667zM240 1575q0 31 22.5 52.5t53 21.5t52 -21.5t21.5 -52.5t-21.5 -53.5t-52 -22.5t-53 22.5t-22.5 53.5zM584 1575q0 31 22.5 52.5t53 21.5t53 -21.5t22.5 -52.5t-22.5 -53.5t-53 -22.5t-53 22.5 t-22.5 53.5z" />
<glyph unicode="&#xcc;" horiz-adv-x="421" d="M-37 1786h119l237 -295h-79zM154 0v1366h114v-1366h-114z" />
<glyph unicode="&#xcd;" horiz-adv-x="421" d="M106 1491l238 295h119l-277 -295h-80zM154 0v1366h114v-1366h-114z" />
<glyph unicode="&#xce;" horiz-adv-x="421" d="M-10 1491l168 295h106l174 -295h-73l-154 229l-148 -229h-73zM154 0v1366h114v-1366h-114z" />
<glyph unicode="&#xcf;" horiz-adv-x="421" d="M-35 1573q0 31 22.5 52.5t53.5 21.5t52.5 -21.5t21.5 -52.5t-21.5 -53.5t-52.5 -22.5t-53.5 22.5t-22.5 53.5zM154 0v1366h114v-1366h-114zM309 1573q0 31 22.5 52.5t53.5 21.5t53.5 -21.5t22.5 -52.5t-22.5 -53.5t-53.5 -22.5t-53.5 22.5t-22.5 53.5z" />
<glyph unicode="&#xd0;" horiz-adv-x="1175" d="M35 635v90h168v641h332q252 0 392 -192.5t140 -491.5q0 -301 -140.5 -491.5t-391.5 -190.5h-332v635h-168zM317 102h218q199 0 305 162t106 418t-106.5 419t-304.5 163h-218v-539h269v-90h-269v-533z" />
<glyph unicode="&#xd1;" horiz-adv-x="1142" d="M154 0v1366h114l606 -1112v1112h115v-1366h-110l-611 1128v-1128h-114zM299 1499q0 121 42 198t122 77q45 0 76.5 -33t46 -73t37 -72.5t51.5 -32.5q92 0 92 198h68q0 -121 -43 -197.5t-123 -76.5q-45 0 -76 32.5t-45.5 72.5t-37 73t-50.5 33q-92 0 -92 -199h-68z" />
<glyph unicode="&#xd2;" horiz-adv-x="1208" d="M109 682q0 305 131 506t364.5 201t365.5 -201t132 -506t-132 -506t-365.5 -201t-364.5 201t-131 506zM229 682q0 -260 99.5 -431t275.5 -171t276.5 171t100.5 431q0 262 -100.5 432t-276.5 170t-275.5 -170t-99.5 -432zM358 1786h119l238 -295h-80z" />
<glyph unicode="&#xd3;" horiz-adv-x="1208" d="M109 682q0 305 131 506t364.5 201t365.5 -201t132 -506t-132 -506t-365.5 -201t-364.5 201t-131 506zM229 682q0 -260 99.5 -431t275.5 -171t276.5 171t100.5 431q0 262 -100.5 432t-276.5 170t-275.5 -170t-99.5 -432zM500 1491l237 295h119l-276 -295h-80z" />
<glyph unicode="&#xd4;" horiz-adv-x="1208" d="M109 682q0 305 131 506t364.5 201t365.5 -201t132 -506t-132 -506t-365.5 -201t-364.5 201t-131 506zM229 682q0 -260 99.5 -431t275.5 -171t276.5 171t100.5 431q0 262 -100.5 432t-276.5 170t-275.5 -170t-99.5 -432zM383 1491l168 295h106l174 -295h-73l-154 229 l-147 -229h-74z" />
<glyph unicode="&#xd5;" horiz-adv-x="1208" d="M109 682q0 305 131 506t364.5 201t365.5 -201t132 -506t-132 -506t-365.5 -201t-364.5 201t-131 506zM229 682q0 -260 99.5 -431t275.5 -171t276.5 171t100.5 431q0 262 -100.5 432t-276.5 170t-275.5 -170t-99.5 -432zM338 1499q0 121 42 198t122 77q45 0 76.5 -33 t46 -73t37 -72.5t51.5 -32.5q92 0 92 198h67q0 -121 -43 -197.5t-122 -76.5q-45 0 -76 32.5t-45.5 72.5t-37 73t-50.5 33q-92 0 -92 -199h-68z" />
<glyph unicode="&#xd6;" horiz-adv-x="1208" d="M109 682q0 305 131 506t364.5 201t365.5 -201t132 -506t-132 -506t-365.5 -201t-364.5 201t-131 506zM229 682q0 -260 99.5 -431t275.5 -171t276.5 171t100.5 431q0 262 -100.5 432t-276.5 170t-275.5 -170t-99.5 -432zM354 1575q0 31 22.5 52.5t53.5 21.5t52.5 -21.5 t21.5 -52.5t-21.5 -53.5t-52.5 -22.5t-53.5 22.5t-22.5 53.5zM698 1575q0 31 22.5 52.5t53.5 21.5t53.5 -21.5t22.5 -52.5t-22.5 -53.5t-53.5 -22.5t-53.5 22.5t-22.5 53.5z" />
<glyph unicode="&#xd7;" horiz-adv-x="892" d="M121 416l268 268l-268 268l59 58l266 -269l269 269l59 -58l-268 -268l268 -268l-59 -58l-269 269l-266 -269z" />
<glyph unicode="&#xd8;" horiz-adv-x="1208" d="M109 682q0 305 131 506t364 201q145 0 264 -93l35 70h96l-67 -131q170 -199 170 -553q0 -305 -132 -506t-366 -201q-156 0 -266 93l-35 -68h-96l65 131q-163 195 -163 551zM229 682q0 -272 103 -436l485 950q-92 88 -213 88q-176 0 -275.5 -170t-99.5 -432zM389 170 q90 -90 215 -90q176 0 276.5 171t100.5 431q0 274 -107 440z" />
<glyph unicode="&#xd9;" horiz-adv-x="1130" d="M154 430v936h114v-936q0 -174 77 -263t220.5 -89t220 89t76.5 263v936h115v-936q0 -219 -107.5 -337t-304 -118t-304 118t-107.5 337zM317 1786h119l238 -295h-80z" />
<glyph unicode="&#xda;" horiz-adv-x="1130" d="M154 430v936h114v-936q0 -174 77 -263t220.5 -89t220 89t76.5 263v936h115v-936q0 -219 -107.5 -337t-304 -118t-304 118t-107.5 337zM457 1491l237 295h119l-276 -295h-80z" />
<glyph unicode="&#xdb;" horiz-adv-x="1130" d="M154 430v936h114v-936q0 -174 77 -263t220.5 -89t220 89t76.5 263v936h115v-936q0 -219 -107.5 -337t-304 -118t-304 118t-107.5 337zM344 1491l168 295h106l175 -295h-74l-154 229l-147 -229h-74z" />
<glyph unicode="&#xdc;" horiz-adv-x="1130" d="M154 430v936h114v-936q0 -174 77 -263t220.5 -89t220 89t76.5 263v936h115v-936q0 -219 -107.5 -337t-304 -118t-304 118t-107.5 337zM317 1575q0 31 22.5 52.5t53.5 21.5t52.5 -21.5t21.5 -52.5t-21.5 -53.5t-52.5 -22.5t-53.5 22.5t-22.5 53.5zM662 1575 q0 31 22.5 52.5t53 21.5t53 -21.5t22.5 -52.5t-22.5 -53.5t-53 -22.5t-53 22.5t-22.5 53.5z" />
<glyph unicode="&#xdd;" horiz-adv-x="989" d="M16 1366h131l349 -666l348 666h129l-420 -780v-586h-115v586zM397 1491l238 295h119l-277 -295h-80z" />
<glyph unicode="&#xde;" horiz-adv-x="958" d="M154 0v1366h114v-254h262q170 0 264.5 -115.5t94.5 -285.5t-94.5 -283t-264.5 -113h-262v-315h-114zM268 418h254q115 0 181.5 81t66.5 212t-66.5 214t-181.5 83h-254v-590z" />
<glyph unicode="&#xdf;" horiz-adv-x="1026" d="M156 0v1065q0 139 87 230t228 91q127 0 212 -67.5t85 -171.5q0 -59 -27.5 -105.5t-66.5 -76.5l-77 -60q-38 -29 -65.5 -65.5t-27.5 -81.5q0 -66 50 -110t120.5 -73.5t142.5 -63.5t122 -100.5t50 -162.5q0 -113 -82 -193t-223 -80q-184 0 -307 142l57 76q98 -129 244 -130 q92 0 149.5 53.5t57.5 131.5q0 70 -50.5 119t-120.5 78l-142 63q-71 33 -121 95.5t-50 152.5q0 68 41 124t90.5 86.5t90.5 77t41 97.5q0 66 -57.5 109.5t-135.5 43.5q-92 0 -151.5 -60t-59.5 -169v-1065h-104z" />
<glyph unicode="&#xe0;" horiz-adv-x="901" d="M94 305q0 150 86 239t211 89q166 0 262 -133v194q0 111 -55 170.5t-156 59.5q-143 0 -252 -129l-53 73q131 145 316 146q145 0 225 -78t80 -231v-705h-105v113q-96 -137 -262 -138q-125 0 -211 91.5t-86 238.5zM203 303.5q0 -104.5 58 -175.5t159 -71q158 0 233 136v221 q-76 137 -233 137q-100 0 -158.5 -71.5t-58.5 -176zM205 1434h119l237 -295h-80z" />
<glyph unicode="&#xe1;" horiz-adv-x="901" d="M94 305q0 150 86 239t211 89q166 0 262 -133v194q0 111 -55 170.5t-156 59.5q-143 0 -252 -129l-53 73q131 145 316 146q145 0 225 -78t80 -231v-705h-105v113q-96 -137 -262 -138q-125 0 -211 91.5t-86 238.5zM203 303.5q0 -104.5 58 -175.5t159 -71q158 0 233 136v221 q-76 137 -233 137q-100 0 -158.5 -71.5t-58.5 -176zM348 1139l238 295h119l-277 -295h-80z" />
<glyph unicode="&#xe2;" horiz-adv-x="901" d="M94 305q0 150 86 239t211 89q166 0 262 -133v194q0 111 -55 170.5t-156 59.5q-143 0 -252 -129l-53 73q131 145 316 146q145 0 225 -78t80 -231v-705h-105v113q-96 -137 -262 -138q-125 0 -211 91.5t-86 238.5zM203 303.5q0 -104.5 58 -175.5t159 -71q158 0 233 136v221 q-76 137 -233 137q-100 0 -158.5 -71.5t-58.5 -176zM233 1139l168 295h107l174 -295h-74l-153 229l-148 -229h-74z" />
<glyph unicode="&#xe3;" horiz-adv-x="901" d="M94 305q0 150 86 239t211 89q166 0 262 -133v194q0 111 -55 170.5t-156 59.5q-143 0 -252 -129l-53 73q131 145 316 146q145 0 225 -78t80 -231v-705h-105v113q-96 -137 -262 -138q-125 0 -211 91.5t-86 238.5zM188 1147q0 121 42 197.5t122 76.5q45 0 77 -32.5t46 -72.5 t37 -73t51 -33q92 0 92 199h68q0 -121 -43 -197.5t-123 -76.5q-45 0 -75.5 32.5t-45 72.5t-37 73t-51.5 33q-92 0 -92 -199h-68zM203 303.5q0 -104.5 58 -175.5t159 -71q158 0 233 136v221q-76 137 -233 137q-100 0 -158.5 -71.5t-58.5 -176z" />
<glyph unicode="&#xe4;" horiz-adv-x="901" d="M94 305q0 150 86 239t211 89q166 0 262 -133v194q0 111 -55 170.5t-156 59.5q-143 0 -252 -129l-53 73q131 145 316 146q145 0 225 -78t80 -231v-705h-105v113q-96 -137 -262 -138q-125 0 -211 91.5t-86 238.5zM203 303.5q0 -104.5 58 -175.5t159 -71q158 0 233 136v221 q-76 137 -233 137q-100 0 -158.5 -71.5t-58.5 -176zM205 1231q0 31 22.5 52.5t53 21.5t52 -21.5t21.5 -52.5t-21.5 -53.5t-52 -22.5t-53 22.5t-22.5 53.5zM549 1231q0 31 22.5 52.5t53 21.5t53 -21.5t22.5 -52.5t-22.5 -53.5t-53 -22.5t-53 22.5t-22.5 53.5z" />
<glyph unicode="&#xe5;" horiz-adv-x="901" d="M94 305q0 150 86 239t211 89q166 0 262 -133v194q0 111 -55 170.5t-156 59.5q-143 0 -252 -129l-53 73q131 145 316 146q145 0 225 -78t80 -231v-705h-105v113q-96 -137 -262 -138q-125 0 -211 91.5t-86 238.5zM203 303.5q0 -104.5 58 -175.5t159 -71q158 0 233 136v221 q-76 137 -233 137q-100 0 -158.5 -71.5t-58.5 -176zM272 1309q0 74 53.5 127t127 53t126 -53.5t52.5 -126.5q0 -76 -51.5 -129.5t-126.5 -53.5q-74 0 -127.5 53.5t-53.5 129.5zM336 1309q0 -49 35 -84t82 -35q49 0 82.5 35t33.5 84q0 47 -33.5 81.5t-82.5 34.5 q-47 0 -82 -34.5t-35 -81.5z" />
<glyph unicode="&#xe6;" horiz-adv-x="1497" d="M94 303.5q0 147.5 85 238.5t212 91q168 0 262 -131v192q0 111 -55 170.5t-156 59.5q-143 0 -252 -129l-53 73q131 145 316 146q242 0 276 -207q39 92 117 149.5t186 57.5q182 0 278.5 -148.5t96.5 -371.5v-33h-651q4 -174 85 -284.5t220 -110.5q145 0 244 133l63 -62 q-125 -162 -313 -162q-215 0 -336 201q-115 -201 -326 -201q-127 0 -213 90.5t-86 238zM203 303q0 -113 59.5 -179.5t157.5 -66.5q176 0 264 185q-31 74 -31 170q-76 139 -233 139q-98 0 -157.5 -67.5t-59.5 -180.5zM756 543h544q0 147 -68.5 265t-203.5 118 q-90 0 -153.5 -63.5t-90 -146.5t-28.5 -173z" />
<glyph unicode="&#xe7;" horiz-adv-x="819" d="M98 496q0 223 105.5 370.5t285.5 147.5q160 0 269 -129l-62 -72q-80 109 -198 109q-137 0 -213 -123t-76 -303q0 -182 75.5 -305t213.5 -123q119 0 198 108l62 -72q-90 -117 -236 -127l-33 -90q29 23 68 23q51 0 86 -37t35 -96q0 -70 -54.5 -115t-136.5 -45 q-104 0 -174 59l33 66q63 -57 141 -57q47 0 82 25.5t35 66.5q0 80 -74 80q-41 0 -71 -35l-56 33l46 122q-164 16 -257.5 162t-93.5 357z" />
<glyph unicode="&#xe8;" horiz-adv-x="950" d="M98 496q0 221 104.5 369.5t278.5 148.5q184 0 280.5 -147.5t96.5 -372.5v-33h-649q4 -174 85 -286t218 -112q147 0 246 136l61 -62q-125 -162 -311 -162q-190 0 -300 145t-110 376zM209 543h543q0 147 -69 265t-204 118q-90 0 -153.5 -63.5t-89 -146.5t-27.5 -173z M236 1434h118l238 -295h-80z" />
<glyph unicode="&#xe9;" horiz-adv-x="950" d="M98 496q0 221 104.5 369.5t278.5 148.5q184 0 280.5 -147.5t96.5 -372.5v-33h-649q4 -174 85 -286t218 -112q147 0 246 136l61 -62q-125 -162 -311 -162q-190 0 -300 145t-110 376zM209 543h543q0 147 -69 265t-204 118q-90 0 -153.5 -63.5t-89 -146.5t-27.5 -173z M377 1139l237 295h119l-276 -295h-80z" />
<glyph unicode="&#xea;" horiz-adv-x="950" d="M98 496q0 221 104.5 369.5t278.5 148.5q184 0 280.5 -147.5t96.5 -372.5v-33h-649q4 -174 85 -286t218 -112q147 0 246 136l61 -62q-125 -162 -311 -162q-190 0 -300 145t-110 376zM209 543h543q0 147 -69 265t-204 118q-90 0 -153.5 -63.5t-89 -146.5t-27.5 -173z M260 1139l168 295h107l174 -295h-74l-154 229l-147 -229h-74z" />
<glyph unicode="&#xeb;" horiz-adv-x="950" d="M98 496q0 221 104.5 369.5t278.5 148.5q184 0 280.5 -147.5t96.5 -372.5v-33h-649q4 -174 85 -286t218 -112q147 0 246 136l61 -62q-125 -162 -311 -162q-190 0 -300 145t-110 376zM209 543h543q0 147 -69 265t-204 118q-90 0 -153.5 -63.5t-89 -146.5t-27.5 -173z M233 1231q0 31 23 52.5t53.5 21.5t52 -21.5t21.5 -52.5t-21.5 -53.5t-52 -22.5t-53.5 22.5t-23 53.5zM578 1231q0 31 22.5 52.5t53 21.5t53 -21.5t22.5 -52.5t-22.5 -53.5t-53 -22.5t-53 22.5t-22.5 53.5z" />
<glyph unicode="&#xec;" horiz-adv-x="393" d="M-53 1434h119l237 -295h-80zM145 0v989h103v-989h-103z" />
<glyph unicode="&#xed;" horiz-adv-x="393" d="M90 1139l238 295h118l-276 -295h-80zM145 0v989h103v-989h-103z" />
<glyph unicode="&#xee;" horiz-adv-x="393" d="M-27 1139l168 295h107l174 -295h-74l-153 229l-148 -229h-74zM145 0v989h103v-989h-103z" />
<glyph unicode="&#xef;" horiz-adv-x="393" d="M-51 1231q0 31 22.5 52.5t53 21.5t52 -21.5t21.5 -52.5t-21.5 -53.5t-52 -22.5t-53 22.5t-22.5 53.5zM145 0v989h103v-989h-103zM293 1231q0 31 22.5 52.5t53 21.5t53 -21.5t22.5 -52.5t-22.5 -53.5t-53 -22.5t-53 22.5t-22.5 53.5z" />
<glyph unicode="&#xf0;" d="M98 487q0 219 97.5 365.5t267.5 146.5q154 0 244 -149q-76 164 -207 317l-252 -112l-31 65l232 103q-55 61 -125 120l77 68q74 -72 142 -147l190 86l29 -66l-172 -78q274 -342 274 -700q0 -229 -100 -380t-283 -151q-180 0 -281.5 147.5t-101.5 364.5zM209 487.5 q0 -174.5 69.5 -297t202.5 -122.5t203 122.5t70 297t-70 296t-203 121.5t-202.5 -121.5t-69.5 -296z" />
<glyph unicode="&#xf1;" horiz-adv-x="921" d="M147 0v989h103v-145q47 72 126 121t161 49q244 0 243 -266v-748h-104v725q0 197 -170 197q-74 0 -145.5 -51.5t-110.5 -122.5v-748h-103zM197 1147q0 121 42 197.5t121 76.5q45 0 77 -32.5t46.5 -72.5t37 -73t50.5 -33q92 0 93 199h67q0 -121 -43 -197.5t-123 -76.5 q-45 0 -75.5 32.5t-45 72.5t-37 73t-51.5 33q-92 0 -92 -199h-67z" />
<glyph unicode="&#xf2;" d="M98 495.5q0 221.5 100.5 370t283 148.5t282.5 -148.5t100 -370t-101 -371t-281.5 -149.5t-282 149.5t-101.5 371zM209 495.5q0 -176.5 69.5 -302t202.5 -125.5t203 124.5t70 303.5q0 176 -70 301t-203 125t-202.5 -125t-69.5 -301.5zM233 1434h119l238 -295h-80z" />
<glyph unicode="&#xf3;" d="M98 495.5q0 221.5 100.5 370t283 148.5t282.5 -148.5t100 -370t-101 -371t-281.5 -149.5t-282 149.5t-101.5 371zM209 495.5q0 -176.5 69.5 -302t202.5 -125.5t203 124.5t70 303.5q0 176 -70 301t-203 125t-202.5 -125t-69.5 -301.5zM375 1139l237 295h119l-276 -295h-80 z" />
<glyph unicode="&#xf4;" d="M98 495.5q0 221.5 100.5 370t283 148.5t282.5 -148.5t100 -370t-101 -371t-281.5 -149.5t-282 149.5t-101.5 371zM209 495.5q0 -176.5 69.5 -302t202.5 -125.5t203 124.5t70 303.5q0 176 -70 301t-203 125t-202.5 -125t-69.5 -301.5zM258 1139l168 295h106l175 -295h-74 l-154 229l-147 -229h-74z" />
<glyph unicode="&#xf5;" d="M98 495.5q0 221.5 100.5 370t283 148.5t282.5 -148.5t100 -370t-101 -371t-281.5 -149.5t-282 149.5t-101.5 371zM209 495.5q0 -176.5 69.5 -302t202.5 -125.5t203 124.5t70 303.5q0 176 -70 301t-203 125t-202.5 -125t-69.5 -301.5zM215 1147q0 121 42 197.5t122 76.5 q45 0 76.5 -32.5t46 -72.5t37 -73t51.5 -33q92 0 92 199h68q0 -121 -43 -197.5t-123 -76.5q-45 0 -76 32.5t-45 72.5t-37 73t-51 33q-92 0 -92 -199h-68z" />
<glyph unicode="&#xf6;" d="M98 495.5q0 221.5 100.5 370t283 148.5t282.5 -148.5t100 -370t-101 -371t-281.5 -149.5t-282 149.5t-101.5 371zM209 495.5q0 -176.5 69.5 -302t202.5 -125.5t203 124.5t70 303.5q0 176 -70 301t-203 125t-202.5 -125t-69.5 -301.5zM233 1231q0 31 23 52.5t53.5 21.5 t52 -21.5t21.5 -52.5t-21.5 -53.5t-52 -22.5t-53.5 22.5t-23 53.5zM578 1231q0 31 22.5 52.5t53 21.5t53 -21.5t22.5 -52.5t-22.5 -53.5t-53 -22.5t-53 22.5t-22.5 53.5z" />
<glyph unicode="&#xf7;" horiz-adv-x="907" d="M59 649v82h789v-82h-789zM375 338q0 33 23.5 56.5t56 23.5t56.5 -22.5t24 -57.5q0 -33 -24 -56.5t-56.5 -23.5t-56 23.5t-23.5 56.5zM375 1032q0 33 23.5 56.5t56 23.5t56.5 -23.5t24 -56.5t-24 -56.5t-56.5 -23.5t-56 23.5t-23.5 56.5z" />
<glyph unicode="&#xf8;" d="M98 496q0 221 100.5 369.5t282.5 148.5q133 0 224 -84l36 59h82l-69 -112q111 -141 110 -381q0 -221 -101 -371t-282 -150q-137 0 -231 88l-39 -63h-82l74 119q-105 144 -105 377zM209 496q0 -160 55 -277l387 623q-70 80 -170 80q-133 0 -202.5 -125t-69.5 -301z M305 154q70 -86 176 -86q133 0 203 124.5t70 303.5q0 166 -62 282z" />
<glyph unicode="&#xf9;" horiz-adv-x="921" d="M145 240v749h103v-727q0 -195 172 -194q76 0 145.5 49t108.5 121v751h104v-989h-104v141q-51 -72 -127 -119t-160 -47q-123 0 -182.5 64t-59.5 201zM215 1434h119l237 -295h-79z" />
<glyph unicode="&#xfa;" horiz-adv-x="921" d="M145 240v749h103v-727q0 -195 172 -194q76 0 145.5 49t108.5 121v751h104v-989h-104v141q-51 -72 -127 -119t-160 -47q-123 0 -182.5 64t-59.5 201zM356 1139l238 295h119l-277 -295h-80z" />
<glyph unicode="&#xfb;" horiz-adv-x="921" d="M145 240v749h103v-727q0 -195 172 -194q76 0 145.5 49t108.5 121v751h104v-989h-104v141q-51 -72 -127 -119t-160 -47q-123 0 -182.5 64t-59.5 201zM238 1139l168 295h106l174 -295h-74l-153 229l-148 -229h-73z" />
<glyph unicode="&#xfc;" horiz-adv-x="921" d="M145 240v749h103v-727q0 -195 172 -194q76 0 145.5 49t108.5 121v751h104v-989h-104v141q-51 -72 -127 -119t-160 -47q-123 0 -182.5 64t-59.5 201zM219 1231q0 31 22.5 52.5t53.5 21.5t52.5 -21.5t21.5 -52.5t-21.5 -53.5t-52.5 -22.5t-53.5 22.5t-22.5 53.5zM563 1231 q0 31 22.5 52.5t53.5 21.5t53.5 -21.5t22.5 -52.5t-22.5 -53.5t-53.5 -22.5t-53.5 22.5t-22.5 53.5z" />
<glyph unicode="&#xfd;" horiz-adv-x="802" d="M20 989h115l266 -862l269 862h112l-399 -1214q-59 -176 -211 -176q-53 0 -90 14l18 94q29 -16 66 -16q43 0 70.5 24.5t50.5 87.5l59 177zM295 1139l237 295h119l-276 -295h-80z" />
<glyph unicode="&#xfe;" horiz-adv-x="958" d="M145 -377v1743h103v-520q94 168 266 168q164 0 257 -141.5t93 -376.5q0 -233 -93 -377t-257 -144q-174 0 -266 172v-524h-103zM248 252q33 -76 102.5 -130t145.5 -54q125 0 191.5 121.5t66.5 306t-66.5 305.5t-191.5 121q-78 0 -146.5 -53.5t-101.5 -127.5v-489z" />
<glyph unicode="&#xff;" horiz-adv-x="802" d="M20 989h115l266 -862l269 862h112l-399 -1214q-59 -176 -211 -176q-53 0 -90 14l18 94q29 -16 66 -16q43 0 70.5 24.5t50.5 87.5l59 177zM154 1231q0 31 22.5 52.5t53 21.5t52 -21.5t21.5 -52.5t-21.5 -53.5t-52 -22.5t-53 22.5t-22.5 53.5zM498 1231q0 31 22.5 52.5 t53 21.5t53 -21.5t22.5 -52.5t-22.5 -53.5t-53 -22.5t-53 22.5t-22.5 53.5z" />
<glyph unicode="&#x152;" horiz-adv-x="1734" d="M109 682q0 305 128 504.5t357 199.5q111 0 208 -58t154 -179v217h668v-102h-553v-512h539v-103h-539v-547h553v-102h-668v217q-57 -123 -154 -182.5t-208 -59.5q-229 0 -357 201t-128 506zM229 682q0 -262 98.5 -432t278.5 -170q123 0 214 84t136 239v560 q-45 156 -136 237.5t-214 81.5q-180 0 -278.5 -169t-98.5 -431z" />
<glyph unicode="&#x153;" horiz-adv-x="1603" d="M98 495.5q0 221.5 100.5 370t282.5 148.5q131 0 212 -79t116 -194q33 113 117 193t211 80q182 0 279 -148.5t97 -371.5v-33h-651q4 -174 85 -286t220 -112q145 0 244 136l64 -62q-125 -162 -314 -162q-264 0 -352 277q-37 -117 -117 -197t-211 -80q-180 0 -281.5 149.5 t-101.5 371zM209 496q0 -178 69.5 -304t202.5 -126t203 125.5t70 304.5q0 176 -70 301t-203 125t-202.5 -125t-69.5 -301zM862 543h545q0 147 -68.5 265t-203.5 118q-90 0 -153.5 -63.5t-90.5 -146.5t-29 -173z" />
<glyph unicode="&#x178;" horiz-adv-x="989" d="M16 1366h131l349 -666l348 666h129l-420 -780v-586h-115v586zM254 1575q0 31 22.5 52.5t53 21.5t52 -21.5t21.5 -52.5t-21.5 -53.5t-52 -22.5t-53 22.5t-22.5 53.5zM598 1575q0 31 22.5 52.5t53.5 21.5t53.5 -21.5t22.5 -52.5t-22.5 -53.5t-53.5 -22.5t-53.5 22.5 t-22.5 53.5z" />
<glyph unicode="&#x2c6;" horiz-adv-x="448" d="M0 1139l168 295h106l175 -295h-74l-154 229l-147 -229h-74z" />
<glyph unicode="&#x2dc;" horiz-adv-x="534" d="M0 1147q0 121 42 197.5t122 76.5q45 0 76.5 -32.5t46 -72.5t37 -73t51.5 -33q92 0 92 199h68q0 -121 -43 -197.5t-123 -76.5q-45 0 -76 32.5t-45.5 72.5t-37 73t-50.5 33q-92 0 -92 -199h-68z" />
<glyph unicode="&#x2013;" horiz-adv-x="1079" d="M61 449v94h957v-94h-957z" />
<glyph unicode="&#x2014;" horiz-adv-x="1509" d="M61 449v94h1387v-94h-1387z" />
<glyph unicode="&#x2018;" horiz-adv-x="446" d="M117 1110q0 82 42 157.5t103 118.5l60 -49q-49 -33 -82 -87t-37 -101l8 2h12q35 0 58.5 -24.5t23.5 -59.5t-24.5 -60.5t-61.5 -25.5q-43 0 -72.5 35t-29.5 94z" />
<glyph unicode="&#x2019;" horiz-adv-x="446" d="M117 1028q49 35 84 89t37 102l-9 -2h-12q-37 0 -59.5 23.5t-22.5 59.5q0 35 24.5 60.5t61.5 25.5q41 0 71 -34.5t30 -96.5q0 -82 -41 -156.5t-105 -117.5z" />
<glyph unicode="&#x201a;" horiz-adv-x="446" d="M117 -201q49 33 82.5 87.5t38.5 101.5h-9q-8 -2 -12 -2q-37 0 -59.5 23.5t-22.5 60.5q0 35 24.5 60.5t61.5 25.5q41 0 71 -35t30 -94q0 -82 -41 -158t-105 -119z" />
<glyph unicode="&#x201c;" horiz-adv-x="735" d="M125 1110q0 82 42 158q42 74 103 118l60 -49q-49 -33 -82 -87t-37 -101q14 2 20 2q35 0 57.5 -24.5t22.5 -59.5q0 -37 -24.5 -61.5t-61.5 -24.5q-41 0 -70.5 35t-29.5 94zM412 1110q0 82 42 158q42 74 103 118l59 -49q-49 -33 -81.5 -87t-36.5 -101l8 2h12 q35 0 58.5 -24.5t23.5 -59.5t-24.5 -60.5t-61.5 -25.5q-43 0 -72.5 35t-29.5 94z" />
<glyph unicode="&#x201d;" horiz-adv-x="735" d="M117 1028q49 35 84 89t37 102l-9 -2h-12q-37 0 -59.5 23.5t-22.5 59.5q0 35 24.5 60.5t61.5 25.5q41 0 71 -34.5t30 -96.5q0 -82 -41 -156.5t-105 -117.5zM406 1028q49 35 81.5 89t36.5 102l-8 -2h-12q-35 0 -58.5 24.5t-23.5 59t24.5 60t61.5 25.5q43 0 71.5 -34.5 t28.5 -96.5q0 -82 -41 -156.5t-102 -117.5z" />
<glyph unicode="&#x201e;" horiz-adv-x="735" d="M117 -201q49 33 82.5 87.5t38.5 101.5h-9q-8 -2 -12 -2q-37 0 -59.5 23.5t-22.5 60.5q0 35 24.5 60.5t61.5 25.5q41 0 71 -35t30 -94q0 -82 -41 -158t-105 -119zM406 -201q49 33 81.5 87.5t36.5 101.5h-8q-8 -2 -12 -2q-35 0 -58.5 24.5t-23.5 59t24.5 60.5t61.5 26 q43 0 71.5 -35t28.5 -94q0 -82 -41 -158t-102 -119z" />
<glyph unicode="&#x2022;" horiz-adv-x="733" d="M160 496q0 88 60.5 148.5t148.5 60.5t148.5 -60.5t60.5 -148.5q0 -86 -60.5 -146.5t-148.5 -60.5t-148.5 60.5t-60.5 146.5z" />
<glyph unicode="&#x2026;" horiz-adv-x="1341" d="M135 70q0 35 26.5 60.5t61.5 25.5q37 0 62.5 -26t25.5 -60q0 -37 -25.5 -62.5t-62.5 -25.5q-35 0 -61.5 25.5t-26.5 62.5zM582 70q0 35 26.5 60.5t61.5 25.5q37 0 63.5 -26t26.5 -60q0 -37 -26.5 -62.5t-63.5 -25.5q-35 0 -61.5 25.5t-26.5 62.5zM1028 70q0 35 26.5 60.5 t63.5 25.5q35 0 61.5 -26t26.5 -60q0 -37 -26.5 -62.5t-61.5 -25.5q-37 0 -63.5 25.5t-26.5 62.5z" />
<glyph unicode="&#x2039;" horiz-adv-x="483" d="M61 498l256 362h105l-256 -362l256 -369h-105z" />
<glyph unicode="&#x203a;" horiz-adv-x="483" d="M61 129l256 369l-256 362h105l256 -362l-256 -369h-105z" />
<glyph unicode="&#x20ac;" horiz-adv-x="1101" d="M53 496v84h92q-4 33 -4 102q0 37 4 106h-92v84h103q41 236 172 376.5t323 140.5q240 0 379 -240l-96 -49q-100 184 -283 184q-141 0 -239.5 -111.5t-132.5 -300.5h462v-84h-475q-4 -70 -4 -106q0 -70 4 -102h475v-84h-465q35 -188 134.5 -302t240.5 -114q186 0 285 205 l96 -49q-137 -260 -381 -261q-195 0 -325.5 141.5t-169.5 379.5h-103z" />
<glyph unicode="&#x2122;" horiz-adv-x="847" d="M35 1313v53h270v-53h-106v-398h-58v398h-106zM379 915v451h88l111 -324l110 324h88v-451h-57v373l-133 -373h-17l-133 373v-373h-57z" />
<glyph unicode="&#xe000;" horiz-adv-x="990" d="M0 990h990v-990h-990v990z" />
<glyph unicode="&#xfb01;" horiz-adv-x="882" d="M45 897v92h131v139q0 121 60.5 189.5t160.5 68.5q68 0 111 -28l-33 -84q-27 20 -65 20q-129 0 -129 -166v-139h170v-92h-170v-897h-105v897h-131zM606 1224.5q0 32.5 23.5 56.5t56.5 24q35 0 57.5 -24t22.5 -56.5t-23.5 -56t-56.5 -23.5t-56.5 23.5t-23.5 56zM635 0v989 h102v-989h-102z" />
<glyph unicode="&#xfb02;" horiz-adv-x="882" d="M45 897v92h131v139q0 121 60.5 189.5t160.5 68.5q68 0 111 -28l-33 -84q-27 20 -65 20q-129 0 -129 -166v-139h170v-92h-170v-897h-105v897h-131zM635 0v1366h102v-1366h-102z" />
<glyph unicode="&#xfb03;" horiz-adv-x="1370" d="M45 897v92h131v139q0 121 60.5 189.5t166.5 68.5q96 0 158 -61l-47 -80q-43 49 -100 49q-133 0 -133 -166v-139h170v-92h-170v-897h-105v897h-131zM535 897v92h131v139q0 121 60 189.5t161 68.5q68 0 110 -28l-32 -84q-27 20 -66 20q-129 0 -129 -166v-139h170v-92h-170 v-897h-104v897h-131zM1094 1224.5q0 32.5 23.5 56.5t56.5 24q35 0 57 -24t22 -56.5t-23.5 -56t-56 -23.5t-56 23.5t-23.5 56zM1122 0v989h103v-989h-103z" />
<glyph unicode="&#xfb04;" horiz-adv-x="1370" d="M45 897v92h131v139q0 121 60.5 189.5t166.5 68.5q96 0 158 -61l-47 -80q-43 49 -100 49q-133 0 -133 -166v-139h170v-92h-170v-897h-105v897h-131zM535 897v92h131v139q0 121 60 189.5t161 68.5q68 0 110 -28l-32 -84q-27 20 -66 20q-129 0 -129 -166v-139h170v-92h-170 v-897h-104v897h-131zM1122 0v1366h103v-1366h-103z" />
</font>
</defs>
</svg>
