<?xml version="1.0" encoding="utf-8"?>
<!-- Generator: Adobe Illustrator 17.0.0, SVG Export Plug-In . SVG Version: 6.00 Build 0)  -->
<!DOCTYPE svg PUBLIC "-//W3C//DTD SVG 1.1//EN" "http://www.w3.org/Graphics/SVG/1.1/DTD/svg11.dtd">
<svg version="1.1" id="Layer_1" xmlns="http://www.w3.org/2000/svg" xmlns:xlink="http://www.w3.org/1999/xlink" x="0px" y="0px"
	 width="109.264px" height="111.116px" viewBox="0 0 109.264 111.116" enable-background="new 0 0 109.264 111.116"
	 xml:space="preserve">
<g id="S5StqR_1_">
	<g>
		<g>
			<path d="M43.251,19.133c5.923,0,11.715,0,17.78,0c0.019,5.773-0.905,12.097,6.965,12.986c-0.296-2.06-0.741-3.982-0.814-5.917
				c-0.129-3.411-0.079-6.831-0.017-10.246c0.062-3.433,2.709-6.19,5.886-6.255c3.174-0.065,6.037,2.858,6.141,6.303
				c0.038,1.241,0.006,2.484,0.006,3.885c3.948,0.583,7.795,1.071,11.612,1.734c4.662,0.809,6.071,3.041,6.049,6.722
				c-0.128,20.828-0.057,41.658-0.065,62.487c-0.001,4.145-0.877,5.33-4.994,6.036c-14.979,2.57-30.082,3.813-45.257,2.87
				c-9.778-0.607-19.519-1.892-29.253-3.07c-3.354-0.406-4.491-2.032-4.495-5.482c-0.022-21.079-0.022-42.158,0-63.237
				c0.004-3.528,1.413-5.133,4.946-5.752c2.207-0.387,4.437-0.645,6.988-1.009c-0.198,5.629,0.709,10.607,7.236,11.29
				c-0.342-2.176-0.858-4.321-0.975-6.488c-0.166-3.074-0.104-6.165-0.021-9.245c0.11-4.078,2.628-6.732,6.183-6.667
				c3.383,0.061,5.833,2.799,5.987,6.686C43.168,17.493,43.208,18.221,43.251,19.133z M87.645,46.328c-22.105,0-43.953,0-65.816,0
				c0,14.323,0,28.456,0,42.7c22.025,3.391,43.909,3.435,65.816-0.011C87.645,74.632,87.645,60.57,87.645,46.328z"/>
		</g>
	</g>
</g>
<g>
	<path d="M33.582,58.839c1.406-1.613,3.135-2.827,5.186-3.641c2.051-0.813,4.175-1.221,6.372-1.221c3.296,0,6.046,0.865,8.251,2.595
		c2.204,1.729,3.307,4.046,3.307,6.95c0,2.467-0.967,4.878-2.9,7.234s-4.973,5.04-9.119,8.05h12.239v5.625H34.329V79.4
		c6.41-4.786,10.645-8.185,12.707-10.195c2.061-2.012,3.092-3.905,3.092-5.682c0-1.263-0.472-2.231-1.417-2.907
		c-0.944-0.675-2.091-1.013-3.438-1.013c-3.149,0-5.837,1.152-8.064,3.457L33.582,58.839z"/>
	<path d="M59.62,63.91l9.447-9.493h5.582v30.015h-6.395V62.657l-5.01,5.076L59.62,63.91z"/>
</g>
</svg>
