<?xml version="1.0" encoding="utf-8"?>
<!-- Generator: Adobe Illustrator 17.0.0, SVG Export Plug-In . SVG Version: 6.00 Build 0)  -->
<!DOCTYPE svg PUBLIC "-//W3C//DTD SVG 1.1//EN" "http://www.w3.org/Graphics/SVG/1.1/DTD/svg11.dtd">
<svg version="1.1" id="Layer_1" xmlns="http://www.w3.org/2000/svg" xmlns:xlink="http://www.w3.org/1999/xlink" x="0px" y="0px"
	 width="109.264px" height="111.116px" viewBox="0 0 109.264 111.116" enable-background="new 0 0 109.264 111.116"
	 xml:space="preserve">
<g id="S5StqR_1_">
	<g>
		<g>
			<path d="M43.251,19.133c5.923,0,11.715,0,17.78,0c0.019,5.773-0.905,12.097,6.965,12.986c-0.296-2.06-0.741-3.982-0.814-5.917
				c-0.129-3.411-0.079-6.831-0.017-10.246c0.062-3.433,2.709-6.19,5.886-6.255c3.174-0.065,6.037,2.858,6.141,6.303
				c0.038,1.241,0.006,2.484,0.006,3.885c3.948,0.583,7.795,1.071,11.612,1.734c4.662,0.809,6.071,3.041,6.049,6.722
				c-0.128,20.828-0.057,41.658-0.065,62.487c-0.001,4.145-0.877,5.33-4.994,6.036c-14.979,2.57-30.082,3.813-45.257,2.87
				c-9.778-0.607-19.519-1.892-29.253-3.07c-3.354-0.406-4.491-2.032-4.495-5.482c-0.022-21.079-0.022-42.158,0-63.237
				c0.004-3.528,1.413-5.133,4.946-5.752c2.207-0.387,4.437-0.645,6.988-1.009c-0.198,5.629,0.709,10.607,7.236,11.29
				c-0.342-2.176-0.858-4.321-0.975-6.488c-0.166-3.074-0.104-6.165-0.021-9.245c0.11-4.078,2.628-6.732,6.183-6.667
				c3.383,0.061,5.833,2.799,5.987,6.686C43.168,17.493,43.208,18.221,43.251,19.133z M87.645,46.328c-22.105,0-43.953,0-65.816,0
				c0,14.323,0,28.456,0,42.7c22.025,3.391,43.909,3.435,65.816-0.011C87.645,74.632,87.645,60.57,87.645,46.328z"/>
		</g>
	</g>
</g>
<g enable-background="new    ">
	<path d="M30.388,58.564c1.422-1.552,3.141-2.707,5.158-3.462s4.078-1.134,6.183-1.134c3.325,0,6.025,0.845,8.102,2.536
		c2.077,1.689,3.116,3.912,3.116,6.667c0,2.145-0.783,4.209-2.348,6.195c-1.565,1.985-4.125,4.229-7.68,6.73h10.233v6.296H31.188
		v-5.619c6.274-4.507,10.266-7.557,11.975-9.15c1.71-1.594,2.565-3.078,2.565-4.452c0-0.906-0.373-1.618-1.118-2.133
		c-0.745-0.516-1.665-0.773-2.758-0.773c-2.803,0-5.291,1.024-7.465,3.071L30.388,58.564z"/>
	<path d="M55.879,58.564c1.422-1.552,3.142-2.707,5.158-3.462s4.077-1.134,6.183-1.134c3.325,0,6.025,0.845,8.103,2.536
		c2.077,1.689,3.115,3.912,3.115,6.667c0,2.145-0.782,4.209-2.348,6.195c-1.565,1.985-4.126,4.229-7.681,6.73h10.233v6.296H56.679
		v-5.619c6.274-4.507,10.266-7.557,11.976-9.15s2.564-3.078,2.564-4.452c0-0.906-0.372-1.618-1.117-2.133
		c-0.745-0.516-1.665-0.773-2.759-0.773c-2.803,0-5.291,1.024-7.465,3.071L55.879,58.564z"/>
</g>
</svg>
